<svg width="480" height="80" viewBox="0 0 480 80" fill="none" xmlns="http://www.w3.org/2000/svg">
<path d="M4.8 64V60.48H14.08V20.48H4.8V16.96H27.2V20.48H17.92V60.48H27.2V64H4.8ZM48 64.512C46.848 64.512 45.696 64.384 44.544 64.128C43.4347 63.9147 42.3893 63.5307 41.408 62.976C40.4267 62.3787 39.552 61.6533 38.784 60.8C38.016 59.904 37.3973 58.944 36.928 57.92C36.5013 56.8533 36.1813 55.7653 35.968 54.656C35.7973 53.504 35.712 52.352 35.712 51.2V43.52C35.712 42.368 35.7973 41.2373 35.968 40.128C36.1813 38.976 36.5013 37.888 36.928 36.864C37.3973 35.7973 38.016 34.8373 38.784 33.984C39.552 33.088 40.4267 32.3627 41.408 31.808C42.3893 31.2107 43.4347 30.8053 44.544 30.592C45.696 30.336 46.848 30.208 48 30.208C49.152 30.208 50.2827 30.336 51.392 30.592C52.544 30.8053 53.6107 31.2107 54.592 31.808C55.5733 32.3627 56.448 33.088 57.216 33.984C57.984 34.8373 58.5813 35.7973 59.008 36.864C59.4773 37.888 59.7973 38.976 59.968 40.128C60.1813 41.2373 60.288 42.368 60.288 43.52V51.2C60.288 52.352 60.1813 53.504 59.968 54.656C59.7973 55.7653 59.4773 56.8533 59.008 57.92C58.5813 58.944 57.984 59.904 57.216 60.8C56.448 61.6533 55.5733 62.3787 54.592 62.976C53.6107 63.5307 52.544 63.9147 51.392 64.128C50.2827 64.384 49.152 64.512 48 64.512ZM48 60.992C48.8107 60.992 49.6213 60.9067 50.432 60.736C51.2427 60.5227 51.9893 60.2027 52.672 59.776C53.3547 59.3067 53.9307 58.752 54.4 58.112C54.912 57.4293 55.3173 56.7253 55.616 56C55.9147 55.232 56.1067 54.4427 56.192 53.632C56.32 52.8213 56.384 52.0107 56.384 51.2V43.52C56.384 42.7093 56.32 41.8987 56.192 41.088C56.1067 40.2773 55.9147 39.5093 55.616 38.784C55.3173 38.016 54.912 37.312 54.4 36.672C53.9307 35.9893 53.3547 35.4347 52.672 35.008C51.9893 34.5387 51.2427 34.2187 50.432 34.048C49.6213 33.8347 48.8107 33.728 48 33.728C47.1893 33.728 46.3787 33.8347 45.568 34.048C44.7573 34.2187 44.0107 34.5387 43.328 35.008C42.6453 35.4347 42.048 35.9893 41.536 36.672C41.0667 37.312 40.6827 38.016 40.384 38.784C40.0853 39.5093 39.872 40.2773 39.744 41.088C39.6587 41.8987 39.616 42.7093 39.616 43.52V51.2C39.616 52.0107 39.6587 52.8213 39.744 53.632C39.872 54.4427 40.0853 55.232 40.384 56C40.6827 56.7253 41.0667 57.4293 41.536 58.112C42.048 58.752 42.6453 59.3067 43.328 59.776C44.0107 60.2027 44.7573 60.5227 45.568 60.736C46.3787 60.9067 47.1893 60.992 48 60.992ZM79.936 64.512C78.9973 64.512 78.0587 64.448 77.12 64.32C76.224 64.2347 75.328 64.0427 74.432 63.744C73.5787 63.4453 72.7467 63.0613 71.936 62.592C71.168 62.08 70.4853 61.4613 69.888 60.736C69.3333 60.0107 68.8853 59.2 68.544 58.304C68.2453 57.408 68.096 56.512 68.096 55.616V55.424H72V55.488C72 56.384 72.256 57.2373 72.768 58.048C73.28 58.816 73.92 59.4347 74.688 59.904C75.4987 60.3307 76.352 60.6293 77.248 60.8C78.144 60.928 79.04 60.992 79.936 60.992C80.832 60.992 81.728 60.928 82.624 60.8C83.52 60.6293 84.352 60.3307 85.12 59.904C85.9307 59.4773 86.592 58.88 87.104 58.112C87.616 57.3013 87.872 56.448 87.872 55.552C87.872 54.6133 87.616 53.76 87.104 52.992C86.592 52.1813 85.952 51.5413 85.184 51.072C84.416 50.56 83.5627 50.1973 82.624 49.984C81.728 49.728 80.832 49.5147 79.936 49.344C79.04 49.1307 78.144 48.896 77.248 48.64C76.3947 48.384 75.5413 48.064 74.688 47.68C73.8773 47.296 73.1093 46.8267 72.384 46.272C71.6587 45.6747 71.0187 45.0133 70.464 44.288C69.9093 43.5627 69.4827 42.752 69.184 41.856C68.8853 40.96 68.736 40.064 68.736 39.168C68.736 38.272 68.864 37.3973 69.12 36.544C69.4187 35.648 69.8453 34.8373 70.4 34.112C70.9547 33.3867 71.5947 32.768 72.32 32.256C73.088 31.7013 73.8987 31.2747 74.752 30.976C75.6053 30.6773 76.48 30.4853 77.376 30.4C78.272 30.272 79.168 30.208 80.064 30.208C80.96 30.208 81.856 30.272 82.752 30.4C83.648 30.4853 84.5227 30.6773 85.376 30.976C86.2293 31.2747 87.0187 31.68 87.744 32.192C88.512 32.704 89.152 33.3227 89.664 34.048C90.2187 34.7307 90.6453 35.52 90.944 36.416C91.2427 37.2693 91.392 38.144 91.392 39.04V39.232H87.488V39.104C87.488 38.2507 87.2533 37.44 86.784 36.672C86.3573 35.904 85.76 35.3067 84.992 34.88C84.2667 34.4533 83.4773 34.1547 82.624 33.984C81.7707 33.8133 80.9173 33.728 80.064 33.728C79.2107 33.728 78.3573 33.8133 77.504 33.984C76.6507 34.1547 75.84 34.4747 75.072 34.944C74.3467 35.3707 73.7493 35.968 73.28 36.736C72.8533 37.504 72.64 38.3147 72.64 39.168C72.64 40.064 72.896 40.9173 73.408 41.728C73.92 42.5387 74.56 43.2 75.328 43.712C76.096 44.1813 76.928 44.544 77.824 44.8C78.72 45.0133 79.616 45.2267 80.512 45.44C81.408 45.6107 82.304 45.824 83.2 46.08C84.096 46.2933 84.9493 46.6133 85.76 47.04C86.6133 47.424 87.4027 47.9147 88.128 48.512C88.8533 49.0667 89.4933 49.7067 90.048 50.432C90.6027 51.1573 91.0293 51.968 91.328 52.864C91.6267 53.7173 91.776 54.6133 91.776 55.552C91.776 56.4907 91.6053 57.408 91.264 58.304C90.9653 59.2 90.5173 60.0107 89.92 60.736C89.3653 61.4613 88.6827 62.08 87.872 62.592C87.104 63.0613 86.272 63.4453 85.376 63.744C84.5227 64.0427 83.6267 64.2347 82.688 64.32C81.792 64.448 80.8747 64.512 79.936 64.512ZM112.064 64.512C110.955 64.512 109.824 64.384 108.672 64.128C107.52 63.9147 106.432 63.5307 105.408 62.976C104.427 62.4213 103.552 61.7173 102.784 60.864C102.016 59.968 101.397 58.9867 100.928 57.92C100.501 56.8533 100.181 55.7653 99.968 54.656C99.7973 53.504 99.712 52.352 99.712 51.2V43.52C99.712 42.368 99.7973 41.2373 99.968 40.128C100.181 38.976 100.501 37.888 100.928 36.864C101.397 35.7973 102.016 34.8373 102.784 33.984C103.552 33.088 104.427 32.3627 105.408 31.808C106.389 31.2107 107.435 30.8053 108.544 30.592C109.696 30.336 110.848 30.208 112 30.208C113.152 30.208 114.283 30.336 115.392 30.592C116.544 30.8053 117.611 31.2107 118.592 31.808C119.573 32.3627 120.448 33.088 121.216 33.984C121.984 34.8373 122.581 35.7973 123.008 36.864C123.477 37.888 123.797 38.976 123.968 40.128C124.181 41.2373 124.288 42.368 124.288 43.52V49.152H103.616V51.2C103.616 52.0107 103.659 52.8213 103.744 53.632C103.872 54.4427 104.085 55.232 104.384 56C104.683 56.768 105.088 57.4933 105.6 58.176C106.112 58.816 106.709 59.3493 107.392 59.776C108.117 60.2027 108.864 60.5227 109.632 60.736C110.443 60.9067 111.253 60.992 112.064 60.992C113.003 60.992 113.941 60.9067 114.88 60.736C115.819 60.5227 116.672 60.1813 117.44 59.712C118.251 59.2 118.912 58.5387 119.424 57.728C119.936 56.8747 120.213 55.9787 120.256 55.04H124.16C124.075 55.9787 123.883 56.9173 123.584 57.856C123.285 58.752 122.837 59.584 122.24 60.352C121.685 61.12 121.003 61.7813 120.192 62.336C119.424 62.8907 118.592 63.3387 117.696 63.68C116.8 63.9787 115.883 64.192 114.944 64.32C114.005 64.448 113.045 64.512 112.064 64.512ZM103.616 45.568H120.384V43.52C120.384 42.7093 120.32 41.8987 120.192 41.088C120.107 40.2773 119.915 39.5093 119.616 38.784C119.317 38.016 118.912 37.312 118.4 36.672C117.931 35.9893 117.355 35.4347 116.672 35.008C115.989 34.5387 115.243 34.2187 114.432 34.048C113.621 33.8347 112.811 33.728 112 33.728C111.189 33.728 110.379 33.8347 109.568 34.048C108.757 34.2187 108.011 34.5387 107.328 35.008C106.645 35.4347 106.048 35.9893 105.536 36.672C105.067 37.312 104.683 38.016 104.384 38.784C104.085 39.5093 103.872 40.2773 103.744 41.088C103.659 41.8987 103.616 42.7093 103.616 43.52V45.568ZM141.76 64L131.072 30.72H135.168L142.08 52.928C142.379 53.9947 142.699 55.0827 143.04 56.192C143.381 57.2587 143.701 58.3467 144 59.456C144.299 58.3467 144.619 57.2587 144.96 56.192C145.301 55.0827 145.621 53.9947 145.92 52.928L152.832 30.72H156.928L146.24 64H141.76ZM165.248 64V16.96H169.152V45.696L182.848 30.72H187.904L172.672 47.36L187.904 64H182.848L169.152 49.024V64H165.248ZM206.528 64.512C205.419 64.512 204.331 64.3627 203.264 64.064C202.24 63.808 201.28 63.36 200.384 62.72C199.531 62.08 198.784 61.312 198.144 60.416C197.547 59.52 197.056 58.5813 196.672 57.6C196.331 56.576 196.075 55.5307 195.904 54.464C195.776 53.3547 195.712 52.2667 195.712 51.2V43.52C195.712 42.368 195.797 41.2373 195.968 40.128C196.139 38.976 196.459 37.888 196.928 36.864C197.397 35.7973 197.995 34.8373 198.72 33.984C199.488 33.088 200.363 32.3627 201.344 31.808C202.325 31.2107 203.371 30.8053 204.48 30.592C205.632 30.336 206.784 30.208 207.936 30.208C209.088 30.208 210.219 30.336 211.328 30.592C212.437 30.8053 213.461 31.2107 214.4 31.808C215.381 32.4053 216.213 33.152 216.896 34.048C217.621 34.9013 218.197 35.8613 218.624 36.928C219.051 37.952 219.349 39.04 219.52 40.192C219.691 41.3013 219.776 42.4107 219.776 43.52V64H215.872V57.856C215.531 58.8373 215.061 59.7547 214.464 60.608C213.867 61.4613 213.141 62.208 212.288 62.848C211.477 63.4453 210.56 63.872 209.536 64.128C208.555 64.384 207.552 64.512 206.528 64.512ZM207.936 60.992C208.747 60.992 209.536 60.9067 210.304 60.736C211.072 60.5227 211.776 60.1813 212.416 59.712C213.099 59.2427 213.653 58.688 214.08 58.048C214.549 57.3653 214.912 56.6613 215.168 55.936C215.424 55.168 215.595 54.4 215.68 53.632C215.808 52.8213 215.872 52.0107 215.872 51.2V43.52C215.872 42.7093 215.808 41.92 215.68 41.152C215.595 40.3413 215.424 39.5733 215.168 38.848C214.912 38.08 214.549 37.376 214.08 36.736C213.653 36.0533 213.099 35.4773 212.416 35.008C211.776 34.5387 211.072 34.2187 210.304 34.048C209.536 33.8347 208.747 33.728 207.936 33.728C207.125 33.728 206.315 33.8347 205.504 34.048C204.736 34.2187 204.011 34.5387 203.328 35.008C202.645 35.4347 202.048 35.9893 201.536 36.672C201.067 37.312 200.683 38.016 200.384 38.784C200.085 39.5093 199.872 40.2773 199.744 41.088C199.659 41.8987 199.616 42.7093 199.616 43.52V51.2C199.616 52.0107 199.659 52.8213 199.744 53.632C199.872 54.4427 200.085 55.232 200.384 56C200.683 56.7253 201.067 57.4293 201.536 58.112C202.048 58.752 202.645 59.3067 203.328 59.776C204.011 60.2027 204.736 60.5227 205.504 60.736C206.315 60.9067 207.125 60.992 207.936 60.992ZM259.584 64L259.968 54.592C260.181 48.32 260.48 42.048 260.864 35.776C261.248 29.504 261.44 23.232 261.44 16.96H266.944L272 41.28L277.056 16.96H282.56C282.56 23.232 282.752 29.504 283.136 35.776C283.52 42.048 283.819 48.32 284.032 54.592L284.416 64H280.576L280.192 54.592C279.979 49.7707 279.723 44.9707 279.424 40.192C279.125 35.4133 278.912 30.6133 278.784 25.792L273.792 49.856H270.208L265.216 25.792C265.088 30.6133 264.875 35.4133 264.576 40.192C264.277 44.9707 264.021 49.7707 263.808 54.592L263.424 64H259.584ZM302.528 64.512C301.419 64.512 300.331 64.3627 299.264 64.064C298.24 63.808 297.28 63.36 296.384 62.72C295.531 62.08 294.784 61.312 294.144 60.416C293.547 59.52 293.056 58.5813 292.672 57.6C292.331 56.576 292.075 55.5307 291.904 54.464C291.776 53.3547 291.712 52.2667 291.712 51.2V43.52C291.712 42.368 291.797 41.2373 291.968 40.128C292.139 38.976 292.459 37.888 292.928 36.864C293.397 35.7973 293.995 34.8373 294.72 33.984C295.488 33.088 296.363 32.3627 297.344 31.808C298.325 31.2107 299.371 30.8053 300.48 30.592C301.632 30.336 302.784 30.208 303.936 30.208C305.088 30.208 306.219 30.336 307.328 30.592C308.437 30.8053 309.461 31.2107 310.4 31.808C311.381 32.4053 312.213 33.152 312.896 34.048C313.621 34.9013 314.197 35.8613 314.624 36.928C315.051 37.952 315.349 39.04 315.52 40.192C315.691 41.3013 315.776 42.4107 315.776 43.52V64H311.872V57.856C311.531 58.8373 311.061 59.7547 310.464 60.608C309.867 61.4613 309.141 62.208 308.288 62.848C307.477 63.4453 306.56 63.872 305.536 64.128C304.555 64.384 303.552 64.512 302.528 64.512ZM303.936 60.992C304.747 60.992 305.536 60.9067 306.304 60.736C307.072 60.5227 307.776 60.1813 308.416 59.712C309.099 59.2427 309.653 58.688 310.08 58.048C310.549 57.3653 310.912 56.6613 311.168 55.936C311.424 55.168 311.595 54.4 311.68 53.632C311.808 52.8213 311.872 52.0107 311.872 51.2V43.52C311.872 42.7093 311.808 41.92 311.68 41.152C311.595 40.3413 311.424 39.5733 311.168 38.848C310.912 38.08 310.549 37.376 310.08 36.736C309.653 36.0533 309.099 35.4773 308.416 35.008C307.776 34.5387 307.072 34.2187 306.304 34.048C305.536 33.8347 304.747 33.728 303.936 33.728C303.125 33.728 302.315 33.8347 301.504 34.048C300.736 34.2187 300.011 34.5387 299.328 35.008C298.645 35.4347 298.048 35.9893 297.536 36.672C297.067 37.312 296.683 38.016 296.384 38.784C296.085 39.5093 295.872 40.2773 295.744 41.088C295.659 41.8987 295.616 42.7093 295.616 43.52V51.2C295.616 52.0107 295.659 52.8213 295.744 53.632C295.872 54.4427 296.085 55.232 296.384 56C296.683 56.7253 297.067 57.4293 297.536 58.112C298.048 58.752 298.645 59.3067 299.328 59.776C300.011 60.2027 300.736 60.5227 301.504 60.736C302.315 60.9067 303.125 60.992 303.936 60.992ZM342.592 64C341.696 64 340.8 63.936 339.904 63.808C339.008 63.6373 338.155 63.36 337.344 62.976C336.576 62.592 335.872 62.08 335.232 61.44C334.592 60.8 334.08 60.0747 333.696 59.264C333.312 58.4533 333.035 57.6213 332.864 56.768C332.736 55.872 332.672 54.976 332.672 54.08V34.24H324.224V30.72H332.672V16.96H336.576V30.72H347.776V34.24H336.576V54.08C336.576 54.9333 336.683 55.7653 336.896 56.576C337.109 57.3867 337.493 58.112 338.048 58.752C338.603 59.3493 339.285 59.7973 340.096 60.096C340.907 60.352 341.739 60.48 342.592 60.48H347.776V64H342.592ZM367.936 64.512C366.997 64.512 366.059 64.448 365.12 64.32C364.224 64.2347 363.328 64.0427 362.432 63.744C361.579 63.4453 360.747 63.0613 359.936 62.592C359.168 62.08 358.485 61.4613 357.888 60.736C357.333 60.0107 356.885 59.2 356.544 58.304C356.245 57.408 356.096 56.512 356.096 55.616V55.424H360V55.488C360 56.384 360.256 57.2373 360.768 58.048C361.28 58.816 361.92 59.4347 362.688 59.904C363.499 60.3307 364.352 60.6293 365.248 60.8C366.144 60.928 367.04 60.992 367.936 60.992C368.832 60.992 369.728 60.928 370.624 60.8C371.52 60.6293 372.352 60.3307 373.12 59.904C373.931 59.4773 374.592 58.88 375.104 58.112C375.616 57.3013 375.872 56.448 375.872 55.552C375.872 54.6133 375.616 53.76 375.104 52.992C374.592 52.1813 373.952 51.5413 373.184 51.072C372.416 50.56 371.563 50.1973 370.624 49.984C369.728 49.728 368.832 49.5147 367.936 49.344C367.04 49.1307 366.144 48.896 365.248 48.64C364.395 48.384 363.541 48.064 362.688 47.68C361.877 47.296 361.109 46.8267 360.384 46.272C359.659 45.6747 359.019 45.0133 358.464 44.288C357.909 43.5627 357.483 42.752 357.184 41.856C356.885 40.96 356.736 40.064 356.736 39.168C356.736 38.272 356.864 37.3973 357.12 36.544C357.419 35.648 357.845 34.8373 358.4 34.112C358.955 33.3867 359.595 32.768 360.32 32.256C361.088 31.7013 361.899 31.2747 362.752 30.976C363.605 30.6773 364.48 30.4853 365.376 30.4C366.272 30.272 367.168 30.208 368.064 30.208C368.96 30.208 369.856 30.272 370.752 30.4C371.648 30.4853 372.523 30.6773 373.376 30.976C374.229 31.2747 375.019 31.68 375.744 32.192C376.512 32.704 377.152 33.3227 377.664 34.048C378.219 34.7307 378.645 35.52 378.944 36.416C379.243 37.2693 379.392 38.144 379.392 39.04V39.232H375.488V39.104C375.488 38.2507 375.253 37.44 374.784 36.672C374.357 35.904 373.76 35.3067 372.992 34.88C372.267 34.4533 371.477 34.1547 370.624 33.984C369.771 33.8133 368.917 33.728 368.064 33.728C367.211 33.728 366.357 33.8133 365.504 33.984C364.651 34.1547 363.84 34.4747 363.072 34.944C362.347 35.3707 361.749 35.968 361.28 36.736C360.853 37.504 360.64 38.3147 360.64 39.168C360.64 40.064 360.896 40.9173 361.408 41.728C361.92 42.5387 362.56 43.2 363.328 43.712C364.096 44.1813 364.928 44.544 365.824 44.8C366.72 45.0133 367.616 45.2267 368.512 45.44C369.408 45.6107 370.304 45.824 371.2 46.08C372.096 46.2933 372.949 46.6133 373.76 47.04C374.613 47.424 375.403 47.9147 376.128 48.512C376.853 49.0667 377.493 49.7067 378.048 50.432C378.603 51.1573 379.029 51.968 379.328 52.864C379.627 53.7173 379.776 54.6133 379.776 55.552C379.776 56.4907 379.605 57.408 379.264 58.304C378.965 59.2 378.517 60.0107 377.92 60.736C377.365 61.4613 376.683 62.08 375.872 62.592C375.104 63.0613 374.272 63.4453 373.376 63.744C372.523 64.0427 371.627 64.2347 370.688 64.32C369.792 64.448 368.875 64.512 367.936 64.512ZM400 64.512C398.891 64.512 397.781 64.384 396.672 64.128C395.563 63.9147 394.517 63.5093 393.536 62.912C392.597 62.3147 391.765 61.568 391.04 60.672C390.357 59.776 389.803 58.816 389.376 57.792C388.949 56.768 388.651 55.7013 388.48 54.592C388.309 53.44 388.224 52.3093 388.224 51.2V30.72H392.128V51.2C392.128 52.0107 392.171 52.8 392.256 53.568C392.384 54.336 392.576 55.104 392.832 55.872C393.088 56.5973 393.429 57.3013 393.856 57.984C394.325 58.6667 394.88 59.2427 395.52 59.712C396.16 60.1387 396.864 60.4587 397.632 60.672C398.4 60.8853 399.189 60.992 400 60.992C400.811 60.992 401.6 60.8853 402.368 60.672C403.136 60.4587 403.84 60.1387 404.48 59.712C405.12 59.2427 405.653 58.6667 406.08 57.984C406.549 57.3013 406.912 56.5973 407.168 55.872C407.424 55.104 407.595 54.336 407.68 53.568C407.808 52.8 407.872 52.0107 407.872 51.2V30.72H411.776V51.2C411.776 52.3093 411.691 53.44 411.52 54.592C411.349 55.7013 411.051 56.768 410.624 57.792C410.197 58.816 409.621 59.776 408.896 60.672C408.213 61.568 407.381 62.3147 406.4 62.912C405.461 63.5093 404.437 63.9147 403.328 64.128C402.219 64.384 401.109 64.512 400 64.512ZM424.064 64V43.52C424.064 42.4533 424.128 41.3867 424.256 40.32C424.384 39.2533 424.619 38.208 424.96 37.184C425.344 36.16 425.835 35.2 426.432 34.304C427.029 33.408 427.755 32.64 428.608 32C429.461 31.36 430.4 30.912 431.424 30.656C432.491 30.3573 433.557 30.208 434.624 30.208C435.947 30.208 437.227 30.4 438.464 30.784C439.744 31.1253 440.853 31.744 441.792 32.64C442.731 33.4933 443.456 34.5387 443.968 35.776C444.48 36.9707 444.779 38.2293 444.864 39.552H440.96C440.917 38.7413 440.725 37.952 440.384 37.184C440.085 36.416 439.637 35.776 439.04 35.264C438.485 34.7093 437.803 34.3253 436.992 34.112C436.224 33.856 435.435 33.728 434.624 33.728C433.899 33.728 433.173 33.856 432.448 34.112C431.765 34.368 431.147 34.752 430.592 35.264C430.08 35.776 429.653 36.3733 429.312 37.056C428.971 37.696 428.693 38.3787 428.48 39.104C428.267 39.8293 428.117 40.576 428.032 41.344C427.989 42.0693 427.968 42.7947 427.968 43.52V64H424.064ZM471.936 64C471.083 64 470.208 63.936 469.312 63.808C468.416 63.6373 467.563 63.36 466.752 62.976C465.984 62.592 465.28 62.08 464.64 61.44C464 60.8 463.488 60.0747 463.104 59.264C462.72 58.4533 462.443 57.6213 462.272 56.768C462.144 55.872 462.08 54.976 462.08 54.08V34.24H452.8V30.72H465.92V54.08C465.92 54.9333 466.027 55.7653 466.24 56.576C466.496 57.3867 466.901 58.112 467.456 58.752C468.011 59.3493 468.693 59.7973 469.504 60.096C470.315 60.352 471.125 60.48 471.936 60.48H475.776V64H471.936ZM464 24.448C463.531 24.448 463.083 24.384 462.656 24.256C462.229 24.128 461.845 23.9147 461.504 23.616C461.205 23.2747 460.992 22.8907 460.864 22.464C460.736 22.0373 460.672 21.5893 460.672 21.12C460.672 20.6507 460.736 20.2027 460.864 19.776C460.992 19.3493 461.205 18.9867 461.504 18.688C461.845 18.3467 462.229 18.112 462.656 17.984C463.083 17.856 463.531 17.792 464 17.792C464.469 17.792 464.917 17.856 465.344 17.984C465.771 18.112 466.133 18.3467 466.432 18.688C466.773 18.9867 467.008 19.3493 467.136 19.776C467.264 20.2027 467.328 20.6507 467.328 21.12C467.328 21.5893 467.264 22.0373 467.136 22.464C467.008 22.8907 466.773 23.2747 466.432 23.616C466.133 23.9147 465.771 24.128 465.344 24.256C464.917 24.384 464.469 24.448 464 24.448Z" fill="black"/>
</svg>
