<svg width="625" height="180" viewBox="0 0 625 180" fill="none" xmlns="http://www.w3.org/2000/svg">
<path d="M0.384 48L0.96 44.448C1.248 42.656 1.664 40.864 2.208 39.072C2.784 37.28 3.392 35.504 4.032 33.744C4.672 31.952 5.344 30.176 6.048 28.416C6.752 26.656 7.472 24.912 8.208 23.184C8.976 21.424 9.744 19.68 10.512 17.952C11.312 16.192 12.128 14.448 12.96 12.72H17.28C17.536 14.448 17.76 16.192 17.952 17.952C18.176 19.68 18.368 21.424 18.528 23.184C18.72 24.912 18.88 26.656 19.008 28.416C19.136 30.176 19.232 31.952 19.296 33.744C19.36 35.504 19.36 37.28 19.296 39.072C19.264 40.864 19.104 42.656 18.816 44.448L18.24 48H14.448L15.024 44.448C15.184 43.52 15.296 42.592 15.36 41.664C15.456 40.736 15.536 39.808 15.6 38.88H6.048C5.76 39.808 5.504 40.736 5.28 41.664C5.088 42.592 4.912 43.52 4.752 44.448L4.176 48H0.384ZM15.696 35.52C15.728 32.256 15.632 29.024 15.408 25.824C15.216 22.592 14.96 19.376 14.64 16.176C13.264 19.376 11.936 22.592 10.656 25.824C9.376 29.024 8.192 32.256 7.104 35.52H15.696ZM24.384 48L30.192 12.72H37.776C38.64 12.72 39.504 12.8 40.368 12.96C41.232 13.12 42.016 13.408 42.72 13.824C43.424 14.24 44.032 14.784 44.544 15.456C45.088 16.096 45.472 16.816 45.696 17.616C45.952 18.416 46.08 19.264 46.08 20.16C46.112 21.024 46.064 21.904 45.936 22.8C45.808 23.536 45.6 24.272 45.312 25.008C45.056 25.744 44.688 26.432 44.208 27.072C43.728 27.68 43.152 28.224 42.48 28.704C41.808 29.184 41.104 29.552 40.368 29.808C41.168 30.192 41.888 30.688 42.528 31.296C43.2 31.904 43.712 32.624 44.064 33.456C44.448 34.256 44.656 35.136 44.688 36.096C44.72 37.024 44.656 37.968 44.496 38.928C44.368 39.76 44.144 40.608 43.824 41.472C43.504 42.304 43.056 43.088 42.48 43.824C41.936 44.56 41.296 45.216 40.56 45.792C39.824 46.336 39.024 46.784 38.16 47.136C37.328 47.456 36.48 47.68 35.616 47.808C34.752 47.936 33.888 48 33.024 48H24.384ZM31.488 28.032H35.904C36.64 28.032 37.392 27.92 38.16 27.696C38.928 27.44 39.6 27.04 40.176 26.496C40.784 25.952 41.232 25.312 41.52 24.576C41.84 23.84 42.064 23.088 42.192 22.32C42.32 21.552 42.352 20.784 42.288 20.016C42.224 19.216 42 18.512 41.616 17.904C41.264 17.296 40.736 16.848 40.032 16.56C39.328 16.24 38.576 16.08 37.776 16.08H33.456L31.488 28.032ZM28.704 44.64H32.976C33.584 44.64 34.176 44.592 34.752 44.496C35.36 44.4 35.952 44.24 36.528 44.016C37.136 43.76 37.696 43.44 38.208 43.056C38.72 42.672 39.152 42.224 39.504 41.712C39.888 41.2 40.176 40.656 40.368 40.08C40.56 39.472 40.704 38.88 40.8 38.304C40.896 37.696 40.944 37.088 40.944 36.48C40.976 35.872 40.88 35.296 40.656 34.752C40.464 34.176 40.192 33.664 39.84 33.216C39.488 32.768 39.056 32.416 38.544 32.16C38.064 31.872 37.52 31.68 36.912 31.584C36.336 31.456 35.728 31.392 35.088 31.392H30.912L28.704 44.64ZM58.176 48.384C57.248 48.384 56.32 48.288 55.392 48.096C54.496 47.936 53.68 47.632 52.944 47.184C52.208 46.736 51.568 46.176 51.024 45.504C50.48 44.8 50.08 44.032 49.824 43.2C49.568 42.336 49.44 41.44 49.44 40.512C49.44 39.584 49.52 38.656 49.68 37.728L52.416 21.168C52.544 20.368 52.736 19.584 52.992 18.816C53.248 18.048 53.6 17.312 54.048 16.608C54.528 15.904 55.088 15.264 55.728 14.688C56.4 14.112 57.104 13.648 57.84 13.296C58.576 12.944 59.344 12.704 60.144 12.576C60.944 12.416 61.744 12.336 62.544 12.336C63.344 12.336 64.128 12.4 64.896 12.528C65.696 12.624 66.432 12.832 67.104 13.152C67.776 13.44 68.384 13.84 68.928 14.352C69.504 14.832 69.952 15.408 70.272 16.08C70.592 16.72 70.8 17.44 70.896 18.24C70.992 19.008 70.976 19.792 70.848 20.592L70.8 20.88H67.056L67.104 20.736C67.2 20.032 67.168 19.344 67.008 18.672C66.88 18 66.592 17.44 66.144 16.992C65.728 16.512 65.184 16.176 64.512 15.984C63.872 15.792 63.2 15.696 62.496 15.696C61.76 15.696 60.992 15.84 60.192 16.128C59.392 16.384 58.704 16.816 58.128 17.424C57.552 18 57.104 18.672 56.784 19.44C56.464 20.176 56.24 20.928 56.112 21.696L53.376 38.256C53.28 38.832 53.216 39.408 53.184 39.984C53.184 40.528 53.248 41.072 53.376 41.616C53.504 42.128 53.696 42.608 53.952 43.056C54.24 43.504 54.592 43.888 55.008 44.208C55.456 44.496 55.952 44.704 56.496 44.832C57.04 44.96 57.6 45.024 58.176 45.024C58.88 45.024 59.584 44.928 60.288 44.736C61.024 44.512 61.696 44.16 62.304 43.68C62.944 43.2 63.472 42.64 63.888 42C64.336 41.36 64.672 40.688 64.896 39.984L68.256 41.136C67.872 42.16 67.344 43.136 66.672 44.064C66.032 44.992 65.248 45.808 64.32 46.512C63.424 47.184 62.432 47.664 61.344 47.952C60.288 48.24 59.232 48.384 58.176 48.384ZM72.384 48L78.192 12.72H83.808C84.64 12.72 85.472 12.8 86.304 12.96C87.136 13.088 87.888 13.344 88.56 13.728C89.264 14.08 89.888 14.528 90.432 15.072C91.008 15.616 91.504 16.224 91.92 16.896C92.336 17.536 92.672 18.24 92.928 19.008C93.216 19.744 93.424 20.512 93.552 21.312C93.712 22.08 93.808 22.88 93.84 23.712C93.904 24.512 93.92 25.344 93.888 26.208C93.888 27.04 93.84 27.872 93.744 28.704C93.648 29.536 93.536 30.368 93.408 31.2C93.28 31.968 93.12 32.736 92.928 33.504C92.768 34.272 92.576 35.04 92.352 35.808C92.128 36.576 91.872 37.328 91.584 38.064C91.296 38.8 90.96 39.536 90.576 40.272C90.192 40.976 89.76 41.68 89.28 42.384C88.8 43.056 88.272 43.696 87.696 44.304C87.12 44.88 86.48 45.424 85.776 45.936C85.104 46.416 84.4 46.816 83.664 47.136C82.928 47.456 82.16 47.68 81.36 47.808C80.592 47.936 79.824 48 79.056 48H72.384ZM76.704 44.64H79.056C79.664 44.64 80.272 44.576 80.88 44.448C81.52 44.32 82.112 44.096 82.656 43.776C83.232 43.456 83.776 43.072 84.288 42.624C84.8 42.176 85.248 41.696 85.632 41.184C86.048 40.672 86.416 40.144 86.736 39.6C87.088 39.024 87.392 38.448 87.648 37.872C87.936 37.296 88.176 36.72 88.368 36.144C88.592 35.536 88.784 34.928 88.944 34.32C89.104 33.712 89.232 33.104 89.328 32.496C89.456 31.888 89.568 31.28 89.664 30.672C89.792 30.032 89.888 29.408 89.952 28.8C90.048 28.16 90.112 27.536 90.144 26.928C90.208 26.32 90.224 25.712 90.192 25.104C90.192 24.464 90.16 23.856 90.096 23.28C90.032 22.672 89.92 22.08 89.76 21.504C89.632 20.896 89.456 20.336 89.232 19.824C89.04 19.28 88.768 18.768 88.416 18.288C88.096 17.808 87.696 17.392 87.216 17.04C86.736 16.688 86.208 16.448 85.632 16.32C85.056 16.16 84.464 16.08 83.856 16.08H81.456L76.704 44.64ZM96.768 48L102.576 12.72H120.048L119.52 16.08H105.84L103.872 27.984H114.864L114.288 31.344H103.296L101.088 44.64H114.768L114.24 48H96.768ZM121.92 48L127.728 12.72H144.048L143.52 16.08H130.992L129.024 27.984H138.864L138.288 31.344H128.448L125.712 48H121.92ZM153.504 48.384C152.608 48.384 151.728 48.272 150.864 48.048C150.032 47.856 149.264 47.536 148.56 47.088C147.856 46.608 147.264 46.016 146.784 45.312C146.336 44.608 145.984 43.84 145.728 43.008C145.504 42.176 145.408 41.312 145.44 40.416C145.472 39.52 145.552 38.624 145.68 37.728L148.416 21.168C148.544 20.368 148.736 19.584 148.992 18.816C149.248 18.048 149.6 17.312 150.048 16.608C150.528 15.904 151.088 15.264 151.728 14.688C152.4 14.112 153.104 13.648 153.84 13.296C154.576 12.944 155.344 12.704 156.144 12.576C156.944 12.416 157.744 12.336 158.544 12.336C159.344 12.336 160.128 12.4 160.896 12.528C161.696 12.624 162.432 12.832 163.104 13.152C163.776 13.44 164.384 13.84 164.928 14.352C165.504 14.832 165.952 15.408 166.272 16.08C166.592 16.72 166.8 17.44 166.896 18.24C166.992 19.008 166.976 19.792 166.848 20.592L166.8 20.88H163.056L163.104 20.736C163.2 20.032 163.168 19.344 163.008 18.672C162.88 18 162.592 17.44 162.144 16.992C161.728 16.512 161.184 16.176 160.512 15.984C159.872 15.792 159.2 15.696 158.496 15.696C157.728 15.696 156.944 15.84 156.144 16.128C155.376 16.384 154.704 16.816 154.128 17.424C153.552 18 153.104 18.672 152.784 19.44C152.464 20.176 152.24 20.928 152.112 21.696L149.376 38.256C149.312 38.8 149.264 39.344 149.232 39.888C149.2 40.432 149.232 40.96 149.328 41.472C149.424 41.952 149.568 42.432 149.76 42.912C149.984 43.36 150.288 43.744 150.672 44.064C151.056 44.384 151.488 44.624 151.968 44.784C152.48 44.944 153.008 45.024 153.552 45.024C154.32 45.024 155.088 44.88 155.856 44.592C156.656 44.304 157.36 43.888 157.968 43.344C158.576 42.768 159.024 42.096 159.312 41.328C159.6 40.56 159.808 39.792 159.936 39.024L161.04 32.16H155.904L156.48 28.8H165.408L163.632 39.552C163.504 40.352 163.328 41.152 163.104 41.952C162.912 42.72 162.576 43.456 162.096 44.16C161.616 44.864 161.04 45.504 160.368 46.08C159.728 46.624 159.024 47.072 158.256 47.424C157.488 47.776 156.688 48.016 155.856 48.144C155.056 48.304 154.272 48.384 153.504 48.384ZM168.384 48L174.192 12.72H177.984L175.44 28.08H185.712L188.256 12.72H192.048L186.24 48H182.448L185.184 31.44H174.912L172.176 48H168.384ZM193.248 48L193.2 44.64H199.968L204.72 16.08H198.432L198.384 12.72H215.184L215.232 16.08H208.464L203.712 44.64H210L210.048 48H193.248ZM224.688 48.384C223.888 48.384 223.088 48.304 222.288 48.144C221.52 48.016 220.8 47.76 220.128 47.376C219.456 46.992 218.88 46.512 218.4 45.936C217.92 45.328 217.552 44.656 217.296 43.92C217.072 43.184 216.928 42.416 216.864 41.616C216.8 40.816 216.832 40 216.96 39.168H220.704C220.576 39.904 220.544 40.624 220.608 41.328C220.704 42.032 220.912 42.672 221.232 43.248C221.584 43.824 222.064 44.272 222.672 44.592C223.312 44.88 224 45.024 224.736 45.024C225.312 45.024 225.888 44.912 226.464 44.688C227.04 44.464 227.568 44.144 228.048 43.728C228.528 43.312 228.928 42.832 229.248 42.288C229.6 41.744 229.888 41.2 230.112 40.656C230.368 40.08 230.56 39.504 230.688 38.928C230.848 38.32 230.976 37.728 231.072 37.152L234.576 16.08H228.288L228.24 12.72H238.896L234.768 37.728C234.64 38.56 234.448 39.408 234.192 40.272C233.968 41.104 233.648 41.936 233.232 42.768C232.848 43.568 232.352 44.336 231.744 45.072C231.168 45.776 230.496 46.4 229.728 46.944C228.992 47.456 228.176 47.824 227.28 48.048C226.416 48.272 225.552 48.384 224.688 48.384ZM241.152 48L246.96 12.72H250.704L248.112 28.416L260.016 12.72H264.48L251.184 30.336L258.672 48H254.688L247.632 31.392L244.896 48H241.152ZM265.92 48L271.728 12.72H275.52L270.24 44.64H283.056L282.528 48H265.92ZM287.616 48L289.056 40.944C290.016 36.24 291.024 31.536 292.08 26.832C293.168 22.128 294.096 17.424 294.864 12.72H299.376L300.192 30.528L306.864 12.72H311.376C310.608 17.424 309.968 22.128 309.456 26.832C308.976 31.536 308.448 36.24 307.872 40.944L307.008 48H303.216L304.08 40.944C304.528 37.488 304.992 34.032 305.472 30.576C305.952 27.12 306.464 23.664 307.008 20.208L300.48 37.392H297.6L296.832 20.208C296.224 23.664 295.584 27.12 294.912 30.576C294.24 34.032 293.552 37.488 292.848 40.944L291.408 48H287.616ZM312.384 48L318.192 12.72H322.704L327.888 41.952C328.24 39.424 328.56 36.912 328.848 34.416C329.168 31.888 329.536 29.36 329.952 26.832L332.256 12.72H336.048L330.24 48H325.728L320.592 18.768C320.208 21.296 319.856 23.824 319.536 26.352C319.248 28.848 318.896 31.36 318.48 33.888L316.176 48H312.384ZM345.744 48.384C344.848 48.384 343.952 48.288 343.056 48.096C342.192 47.936 341.392 47.632 340.656 47.184C339.952 46.704 339.344 46.112 338.832 45.408C338.352 44.704 338 43.936 337.776 43.104C337.552 42.24 337.44 41.36 337.44 40.464C337.472 39.536 337.552 38.624 337.68 37.728L340.416 21.168C340.544 20.368 340.752 19.584 341.04 18.816C341.328 18.016 341.696 17.264 342.144 16.56C342.592 15.856 343.136 15.232 343.776 14.688C344.448 14.112 345.152 13.648 345.888 13.296C346.656 12.944 347.44 12.704 348.24 12.576C349.072 12.416 349.888 12.336 350.688 12.336C351.584 12.336 352.464 12.432 353.328 12.624C354.224 12.784 355.024 13.104 355.728 13.584C356.464 14.032 357.072 14.608 357.552 15.312C358.064 16.016 358.432 16.8 358.656 17.664C358.88 18.496 358.992 19.376 358.992 20.304C358.992 21.2 358.912 22.096 358.752 22.992L356.016 39.552C355.888 40.352 355.68 41.152 355.392 41.952C355.136 42.72 354.768 43.456 354.288 44.16C353.84 44.864 353.296 45.504 352.656 46.08C352.016 46.624 351.312 47.072 350.544 47.424C349.776 47.776 348.976 48.016 348.144 48.144C347.344 48.304 346.544 48.384 345.744 48.384ZM345.792 45.024C346.336 45.024 346.864 44.976 347.376 44.88C347.888 44.752 348.384 44.56 348.864 44.304C349.376 44.048 349.84 43.728 350.256 43.344C350.672 42.928 351.024 42.496 351.312 42.048C351.6 41.568 351.808 41.072 351.936 40.56C352.096 40.048 352.224 39.536 352.32 39.024L355.056 22.464C355.152 21.92 355.2 21.376 355.2 20.832C355.232 20.256 355.2 19.712 355.104 19.2C355.008 18.688 354.832 18.208 354.576 17.76C354.32 17.28 354 16.88 353.616 16.56C353.232 16.24 352.768 16.016 352.224 15.888C351.712 15.76 351.184 15.696 350.64 15.696C350.096 15.696 349.568 15.76 349.056 15.888C348.544 15.984 348.032 16.16 347.52 16.416C347.04 16.672 346.592 17.008 346.176 17.424C345.76 17.808 345.408 18.24 345.12 18.72C344.832 19.168 344.608 19.648 344.448 20.16C344.32 20.672 344.208 21.184 344.112 21.696L341.376 38.256C341.312 38.8 341.264 39.36 341.232 39.936C341.2 40.48 341.232 41.008 341.328 41.52C341.424 42.032 341.6 42.528 341.856 43.008C342.112 43.456 342.432 43.84 342.816 44.16C343.2 44.48 343.648 44.704 344.16 44.832C344.704 44.96 345.248 45.024 345.792 45.024ZM361.152 48L366.96 12.72H374.88C375.808 12.72 376.72 12.832 377.616 13.056C378.512 13.248 379.328 13.584 380.064 14.064C380.8 14.544 381.408 15.168 381.888 15.936C382.368 16.672 382.72 17.472 382.944 18.336C383.168 19.2 383.264 20.112 383.232 21.072C383.232 22 383.152 22.944 382.992 23.904C382.864 24.704 382.656 25.52 382.368 26.352C382.112 27.184 381.744 27.984 381.264 28.752C380.816 29.488 380.272 30.176 379.632 30.816C378.992 31.424 378.272 31.936 377.472 32.352C376.704 32.736 375.888 33.008 375.024 33.168C374.192 33.328 373.36 33.408 372.528 33.408H367.344L364.944 48H361.152ZM367.92 30.048H372.528C373.104 30.048 373.664 29.984 374.208 29.856C374.784 29.728 375.328 29.52 375.84 29.232C376.352 28.912 376.816 28.528 377.232 28.08C377.648 27.632 377.984 27.152 378.24 26.64C378.528 26.096 378.752 25.552 378.912 25.008C379.072 24.464 379.2 23.904 379.296 23.328C379.392 22.752 379.456 22.176 379.488 21.6C379.52 21.024 379.488 20.464 379.392 19.92C379.296 19.376 379.136 18.864 378.912 18.384C378.688 17.872 378.368 17.44 377.952 17.088C377.568 16.736 377.104 16.48 376.56 16.32C376.016 16.16 375.456 16.08 374.88 16.08H370.224L367.92 30.048ZM399.84 50.496L398.256 47.568C397.552 47.856 396.816 48.064 396.048 48.192C395.28 48.32 394.512 48.384 393.744 48.384C392.848 48.384 391.952 48.288 391.056 48.096C390.192 47.936 389.392 47.632 388.656 47.184C387.952 46.704 387.344 46.112 386.832 45.408C386.352 44.704 386 43.936 385.776 43.104C385.552 42.24 385.44 41.36 385.44 40.464C385.472 39.536 385.552 38.624 385.68 37.728L388.416 21.168C388.544 20.368 388.752 19.584 389.04 18.816C389.328 18.016 389.696 17.264 390.144 16.56C390.592 15.856 391.136 15.232 391.776 14.688C392.448 14.112 393.152 13.648 393.888 13.296C394.656 12.944 395.44 12.704 396.24 12.576C397.072 12.416 397.888 12.336 398.688 12.336C399.584 12.336 400.464 12.432 401.328 12.624C402.224 12.784 403.024 13.104 403.728 13.584C404.464 14.032 405.072 14.608 405.552 15.312C406.064 16.016 406.432 16.8 406.656 17.664C406.88 18.496 406.992 19.376 406.992 20.304C406.992 21.2 406.912 22.096 406.752 22.992L404.016 39.552C403.92 40.096 403.808 40.64 403.68 41.184C403.552 41.696 403.36 42.208 403.104 42.72C402.848 43.232 402.56 43.728 402.24 44.208C401.92 44.688 401.568 45.136 401.184 45.552L403.776 50.496H399.84ZM393.792 45.024C394.272 45.024 394.752 44.992 395.232 44.928C395.712 44.832 396.176 44.672 396.624 44.448L392.736 37.104H396.672L399.264 42C399.584 41.552 399.808 41.072 399.936 40.56C400.096 40.048 400.224 39.536 400.32 39.024L403.056 22.464C403.152 21.92 403.2 21.376 403.2 20.832C403.232 20.256 403.2 19.712 403.104 19.2C403.008 18.688 402.832 18.208 402.576 17.76C402.32 17.28 402 16.88 401.616 16.56C401.232 16.24 400.768 16.016 400.224 15.888C399.712 15.76 399.184 15.696 398.64 15.696C398.096 15.696 397.568 15.76 397.056 15.888C396.544 15.984 396.032 16.16 395.52 16.416C395.04 16.672 394.592 17.008 394.176 17.424C393.76 17.808 393.408 18.24 393.12 18.72C392.832 19.168 392.608 19.648 392.448 20.16C392.32 20.672 392.208 21.184 392.112 21.696L389.376 38.256C389.312 38.8 389.264 39.36 389.232 39.936C389.2 40.48 389.232 41.008 389.328 41.52C389.424 42.032 389.6 42.528 389.856 43.008C390.112 43.456 390.432 43.84 390.816 44.16C391.2 44.48 391.648 44.704 392.16 44.832C392.704 44.96 393.248 45.024 393.792 45.024ZM408.384 48L414.192 12.72H422.88C423.808 12.72 424.704 12.832 425.568 13.056C426.464 13.248 427.248 13.6 427.92 14.112C428.624 14.624 429.2 15.264 429.648 16.032C430.096 16.768 430.416 17.568 430.608 18.432C430.8 19.296 430.88 20.192 430.848 21.12C430.848 22.048 430.768 22.976 430.608 23.904C430.48 24.736 430.272 25.584 429.984 26.448C429.728 27.28 429.36 28.08 428.88 28.848C428.432 29.616 427.856 30.32 427.152 30.96C426.448 31.6 425.696 32.112 424.896 32.496C425.504 32.816 426.016 33.248 426.432 33.792C426.88 34.336 427.2 34.944 427.392 35.616C427.616 36.256 427.728 36.944 427.728 37.68C427.728 38.416 427.68 39.152 427.584 39.888L426.768 44.736C426.672 45.312 426.624 45.888 426.624 46.464C426.624 47.008 426.752 47.52 427.008 48H423.216C422.992 47.52 422.864 47.008 422.832 46.464C422.832 45.888 422.88 45.312 422.976 44.736L423.792 39.888C423.856 39.408 423.904 38.928 423.936 38.448C424 37.968 424.016 37.504 423.984 37.056C423.952 36.608 423.872 36.16 423.744 35.712C423.616 35.264 423.424 34.864 423.168 34.512C422.944 34.16 422.624 33.888 422.208 33.696C421.792 33.504 421.344 33.408 420.864 33.408H414.576L412.176 48H408.384ZM415.152 30.048H420.528C421.072 30.048 421.616 29.984 422.16 29.856C422.704 29.696 423.216 29.456 423.696 29.136C424.176 28.816 424.608 28.432 424.992 27.984C425.376 27.536 425.696 27.056 425.952 26.544C426.208 26.032 426.4 25.504 426.528 24.96C426.688 24.416 426.816 23.888 426.912 23.376C427.008 22.8 427.072 22.24 427.104 21.696C427.136 21.12 427.12 20.56 427.056 20.016C426.992 19.472 426.848 18.96 426.624 18.48C426.432 17.968 426.16 17.536 425.808 17.184C425.456 16.8 425.024 16.528 424.512 16.368C424 16.176 423.456 16.08 422.88 16.08H417.456L415.152 30.048ZM441.696 48.384C440.896 48.384 440.112 48.32 439.344 48.192C438.576 48.096 437.84 47.904 437.136 47.616C436.432 47.328 435.776 46.944 435.168 46.464C434.592 45.984 434.128 45.424 433.776 44.784C433.424 44.112 433.2 43.392 433.104 42.624C433.008 41.824 433.04 41.024 433.2 40.224L433.248 39.84H436.992L436.944 40.08C436.816 40.784 436.832 41.472 436.992 42.144C437.184 42.784 437.504 43.344 437.952 43.824C438.432 44.272 439.008 44.592 439.68 44.784C440.352 44.944 441.04 45.024 441.744 45.024C442.448 45.024 443.168 44.928 443.904 44.736C444.672 44.512 445.36 44.16 445.968 43.68C446.576 43.2 447.072 42.608 447.456 41.904C447.84 41.2 448.096 40.48 448.224 39.744C448.352 38.912 448.304 38.112 448.08 37.344C447.888 36.544 447.552 35.824 447.072 35.184C446.624 34.544 446.08 33.984 445.44 33.504C444.832 33.024 444.208 32.576 443.568 32.16C442.928 31.712 442.288 31.248 441.648 30.768C441.04 30.288 440.464 29.776 439.92 29.232C439.376 28.656 438.88 28.048 438.432 27.408C437.984 26.736 437.616 26.032 437.328 25.296C437.072 24.56 436.896 23.776 436.8 22.944C436.736 22.112 436.784 21.28 436.944 20.448C437.072 19.712 437.264 18.976 437.52 18.24C437.808 17.504 438.176 16.816 438.624 16.176C439.104 15.536 439.648 14.96 440.256 14.448C440.896 13.936 441.568 13.52 442.272 13.2C442.976 12.88 443.712 12.656 444.48 12.528C445.248 12.4 446 12.336 446.736 12.336C447.504 12.336 448.272 12.4 449.04 12.528C449.808 12.624 450.528 12.816 451.2 13.104C451.904 13.392 452.512 13.792 453.024 14.304C453.568 14.784 454 15.36 454.32 16.032C454.672 16.672 454.88 17.376 454.944 18.144C455.04 18.88 455.024 19.648 454.896 20.448L454.8 20.832H451.056L451.104 20.592C451.232 19.92 451.232 19.264 451.104 18.624C450.976 17.952 450.688 17.392 450.24 16.944C449.824 16.496 449.296 16.176 448.656 15.984C448.048 15.792 447.392 15.696 446.688 15.696C446.016 15.696 445.312 15.808 444.576 16.032C443.872 16.256 443.232 16.624 442.656 17.136C442.112 17.616 441.664 18.192 441.312 18.864C440.96 19.536 440.72 20.224 440.592 20.928C440.464 21.792 440.512 22.624 440.736 23.424C440.96 24.192 441.296 24.896 441.744 25.536C442.192 26.176 442.72 26.736 443.328 27.216C443.968 27.664 444.608 28.112 445.248 28.56C445.888 29.008 446.512 29.472 447.12 29.952C447.728 30.432 448.304 30.96 448.848 31.536C449.424 32.08 449.92 32.688 450.336 33.36C450.784 34 451.136 34.688 451.392 35.424C451.68 36.16 451.872 36.944 451.968 37.776C452.064 38.608 452.032 39.44 451.872 40.272C451.744 41.04 451.536 41.792 451.248 42.528C450.96 43.264 450.56 43.952 450.048 44.592C449.568 45.232 448.992 45.808 448.32 46.32C447.68 46.832 446.992 47.248 446.256 47.568C445.552 47.888 444.8 48.096 444 48.192C443.232 48.32 442.464 48.384 441.696 48.384ZM463.44 48L468.72 16.08H461.376L461.904 12.72H480.336L479.808 16.08H472.464L467.184 48H463.44ZM489.744 48.384C488.848 48.384 487.968 48.288 487.104 48.096C486.24 47.904 485.456 47.568 484.752 47.088C484.08 46.608 483.52 46.016 483.072 45.312C482.624 44.608 482.288 43.84 482.064 43.008C481.872 42.176 481.792 41.312 481.824 40.416C481.856 39.52 481.936 38.624 482.064 37.728L486.192 12.72H489.984L485.76 38.256C485.696 38.8 485.632 39.344 485.568 39.888C485.536 40.4 485.568 40.912 485.664 41.424C485.76 41.936 485.904 42.432 486.096 42.912C486.32 43.36 486.608 43.76 486.96 44.112C487.312 44.432 487.744 44.672 488.256 44.832C488.768 44.96 489.28 45.024 489.792 45.024C490.56 45.024 491.312 44.88 492.048 44.592C492.816 44.304 493.472 43.872 494.016 43.296C494.592 42.688 495.024 42.016 495.312 41.28C495.6 40.512 495.808 39.76 495.936 39.024L500.256 12.72H504.048L499.632 39.552C499.504 40.32 499.312 41.088 499.056 41.856C498.8 42.624 498.448 43.36 498 44.064C497.584 44.768 497.056 45.408 496.416 45.984C495.808 46.56 495.136 47.04 494.4 47.424C493.664 47.776 492.896 48.016 492.096 48.144C491.296 48.304 490.512 48.384 489.744 48.384ZM511.152 48C510.896 46.272 510.656 44.544 510.432 42.816C510.24 41.056 510.048 39.312 509.856 37.584C509.696 35.824 509.552 34.064 509.424 32.304C509.296 30.544 509.2 28.784 509.136 27.024C509.072 25.232 509.056 23.44 509.088 21.648C509.152 19.856 509.328 18.048 509.616 16.224L510.192 12.72H513.984L513.408 16.224C513.152 17.824 512.976 19.424 512.88 21.024C512.784 22.624 512.736 24.224 512.736 25.824C512.736 27.392 512.768 28.96 512.832 30.528C512.896 32.096 512.976 33.664 513.072 35.232C513.168 36.768 513.28 38.32 513.408 39.888C513.536 41.424 513.664 42.976 513.792 44.544C514.464 42.976 515.12 41.424 515.76 39.888C516.432 38.32 517.072 36.768 517.68 35.232C518.288 33.664 518.88 32.096 519.456 30.528C520.064 28.96 520.624 27.392 521.136 25.824C521.648 24.224 522.128 22.64 522.576 21.072C523.056 19.472 523.424 17.856 523.68 16.224L524.256 12.72H528.048L527.472 16.224C527.184 18.048 526.752 19.856 526.176 21.648C525.632 23.44 525.04 25.232 524.4 27.024C523.76 28.784 523.088 30.544 522.384 32.304C521.68 34.064 520.944 35.824 520.176 37.584C519.44 39.312 518.672 41.056 517.872 42.816C517.104 44.544 516.304 46.272 515.472 48H511.152ZM531.84 48C531.712 46.56 531.616 45.104 531.552 43.632C531.488 42.16 531.424 40.704 531.36 39.264C531.328 37.792 531.296 36.32 531.264 34.848C531.264 33.376 531.28 31.904 531.312 30.432C531.344 28.96 531.392 27.488 531.456 26.016C531.552 24.512 531.728 23.024 531.984 21.552L533.424 12.72H537.216L535.776 21.552C535.456 23.376 535.2 25.216 535.008 27.072C534.848 28.896 534.704 30.72 534.576 32.544C534.448 34.368 534.336 36.208 534.24 38.064C534.144 39.888 534.048 41.712 533.952 43.536L539.52 26.832H542.112V43.536C542.656 41.712 543.184 39.888 543.696 38.064C544.208 36.208 544.688 34.368 545.136 32.544C545.584 30.72 546.016 28.896 546.432 27.072C546.88 25.216 547.264 23.376 547.584 21.552L549.024 12.72H552.816L551.376 21.552C551.12 23.024 550.784 24.512 550.368 26.016C549.984 27.488 549.568 28.96 549.12 30.432C548.672 31.904 548.176 33.376 547.632 34.848C547.12 36.32 546.592 37.792 546.048 39.264C545.536 40.704 545.008 42.16 544.464 43.632C543.92 45.104 543.36 46.56 542.784 48H540.192L540.144 30.72L534.432 48H531.84ZM552.384 48L552.672 46.224C552.96 44.464 553.52 42.736 554.352 41.04C555.216 39.312 556.224 37.696 557.376 36.192L562.08 30.144L559.44 24.192C559.12 23.456 558.832 22.704 558.576 21.936C558.32 21.168 558.112 20.384 557.952 19.584C557.792 18.752 557.712 17.92 557.712 17.088C557.712 16.224 557.776 15.36 557.904 14.496L558.192 12.72H561.984L561.696 14.496C561.472 15.968 561.456 17.408 561.648 18.816C561.872 20.224 562.272 21.552 562.848 22.8L564.672 26.88L568.128 22.464C569.056 21.248 569.872 19.968 570.576 18.624C571.28 17.28 571.744 15.904 571.968 14.496L572.256 12.72H576.048L575.76 14.496C575.472 16.256 574.896 18 574.032 19.728C573.2 21.424 572.208 23.024 571.056 24.528L566.352 30.576L568.992 36.528C569.312 37.264 569.6 38.016 569.856 38.784C570.144 39.552 570.352 40.352 570.48 41.184C570.64 41.984 570.72 42.816 570.72 43.68C570.72 44.512 570.656 45.36 570.528 46.224L570.24 48H566.448L566.736 46.224C566.96 44.752 566.96 43.312 566.736 41.904C566.544 40.496 566.16 39.168 565.584 37.92L563.808 33.84L560.304 38.256C559.376 39.472 558.56 40.752 557.856 42.096C557.152 43.44 556.688 44.816 556.464 46.224L556.176 48H552.384ZM583.44 48L585.744 34.032L583.008 26.208C582.4 24.448 581.968 22.608 581.712 20.688C581.488 18.768 581.536 16.816 581.856 14.832L582.192 12.72H585.984L585.648 14.832C585.36 16.624 585.296 18.4 585.456 20.16C585.616 21.888 585.984 23.536 586.56 25.104L588.192 29.856L591.696 24.72C592.72 23.184 593.6 21.584 594.336 19.92C595.104 18.256 595.632 16.56 595.92 14.832L596.256 12.72H600.048L599.712 14.832C599.392 16.784 598.816 18.704 597.984 20.592C597.184 22.48 596.224 24.304 595.104 26.064V26.112C595.04 26.176 594.976 26.256 594.912 26.352C594.88 26.448 594.832 26.528 594.768 26.592L589.392 34.464L587.184 48H583.44ZM600.384 48L600.72 45.792C601.04 44 601.6 42.224 602.4 40.464C603.232 38.704 604.272 37.072 605.52 35.568L616.08 22.992C616.912 21.968 617.632 20.88 618.24 19.728C618.88 18.544 619.376 17.328 619.728 16.08H605.664L606.192 12.72H624.048L623.712 14.928C623.424 16.72 622.864 18.496 622.032 20.256C621.2 22.016 620.176 23.648 618.96 25.152L608.352 37.728C607.52 38.752 606.784 39.856 606.144 41.04C605.536 42.192 605.056 43.392 604.704 44.64H618.768L618.24 48H600.384ZM7.584 108.384C6.752 108.384 5.952 108.256 5.184 108C4.416 107.744 3.76 107.328 3.216 106.752C2.704 106.176 2.304 105.52 2.016 104.784C1.76 104.016 1.584 103.232 1.488 102.432C1.392 101.632 1.376 100.816 1.44 99.984C1.504 99.152 1.6 98.32 1.728 97.488L2.688 91.728C2.816 90.928 3.008 90.128 3.264 89.328C3.52 88.528 3.872 87.776 4.32 87.072C4.8 86.368 5.36 85.728 6 85.152C6.672 84.544 7.392 84.048 8.16 83.664C8.928 83.28 9.712 83.024 10.512 82.896C11.312 82.736 12.112 82.656 12.912 82.656C13.84 82.656 14.736 82.752 15.6 82.944C16.464 83.136 17.232 83.488 17.904 84C18.608 84.48 19.184 85.088 19.632 85.824C20.08 86.56 20.4 87.36 20.592 88.224C20.816 89.056 20.912 89.936 20.88 90.864C20.848 91.76 20.768 92.656 20.64 93.552L18.24 108H14.448L15.072 104.016C14.72 104.688 14.256 105.312 13.68 105.888C13.136 106.432 12.528 106.896 11.856 107.28C11.216 107.664 10.528 107.936 9.792 108.096C9.056 108.288 8.32 108.384 7.584 108.384ZM9.6 105.024C10.112 105.024 10.608 104.976 11.088 104.88C11.6 104.752 12.096 104.576 12.576 104.352C13.056 104.096 13.488 103.776 13.872 103.392C14.288 103.008 14.624 102.592 14.88 102.144C15.168 101.664 15.392 101.184 15.552 100.704C15.712 100.192 15.824 99.696 15.888 99.216L16.896 93.024C16.992 92.48 17.056 91.936 17.088 91.392C17.152 90.816 17.136 90.272 17.04 89.76C16.976 89.248 16.832 88.752 16.608 88.272C16.416 87.792 16.128 87.376 15.744 87.024C15.392 86.672 14.96 86.416 14.448 86.256C13.968 86.096 13.456 86.016 12.912 86.016C12.368 86.016 11.824 86.08 11.28 86.208C10.736 86.336 10.208 86.544 9.696 86.832C9.216 87.088 8.784 87.424 8.4 87.84C8.016 88.256 7.68 88.704 7.392 89.184C7.104 89.664 6.88 90.176 6.72 90.72C6.592 91.232 6.48 91.744 6.384 92.256L5.424 98.016C5.328 98.56 5.264 99.12 5.232 99.696C5.2 100.24 5.216 100.784 5.28 101.328C5.376 101.84 5.52 102.336 5.712 102.816C5.936 103.296 6.24 103.712 6.624 104.064C7.008 104.416 7.456 104.672 7.968 104.832C8.512 104.96 9.056 105.024 9.6 105.024ZM33.792 108.384C32.864 108.384 31.968 108.288 31.104 108.096C30.24 107.904 29.472 107.568 28.8 107.088C28.128 106.576 27.552 105.952 27.072 105.216C26.624 104.48 26.304 103.696 26.112 102.864C25.92 102 25.824 101.12 25.824 100.224C25.856 99.296 25.952 98.384 26.112 97.488L30.192 72.72H33.984L31.632 87.024C32.016 86.352 32.48 85.744 33.024 85.2C33.568 84.624 34.16 84.144 34.8 83.76C35.472 83.376 36.176 83.104 36.912 82.944C37.648 82.752 38.384 82.656 39.12 82.656C39.952 82.656 40.752 82.784 41.52 83.04C42.288 83.296 42.944 83.712 43.488 84.288C44.032 84.864 44.432 85.536 44.688 86.304C44.976 87.04 45.152 87.808 45.216 88.608C45.312 89.408 45.328 90.224 45.264 91.056C45.232 91.888 45.152 92.72 45.024 93.552L44.064 99.312C43.936 100.112 43.728 100.912 43.44 101.712C43.184 102.512 42.832 103.264 42.384 103.968C41.936 104.672 41.376 105.328 40.704 105.936C40.064 106.512 39.36 106.992 38.592 107.376C37.824 107.76 37.024 108.016 36.192 108.144C35.392 108.304 34.592 108.384 33.792 108.384ZM33.84 105.024C34.384 105.024 34.912 104.96 35.424 104.832C35.968 104.704 36.48 104.512 36.96 104.256C37.472 103.968 37.92 103.616 38.304 103.2C38.688 102.784 39.024 102.336 39.312 101.856C39.6 101.376 39.824 100.88 39.984 100.368C40.144 99.824 40.256 99.296 40.32 98.784L41.28 93.024C41.376 92.48 41.44 91.936 41.472 91.392C41.536 90.816 41.52 90.272 41.424 89.76C41.328 89.216 41.168 88.704 40.944 88.224C40.752 87.744 40.464 87.328 40.08 86.976C39.696 86.624 39.248 86.384 38.736 86.256C38.224 86.096 37.696 86.016 37.152 86.016C36.64 86.016 36.128 86.08 35.616 86.208C35.104 86.304 34.608 86.48 34.128 86.736C33.68 86.96 33.248 87.264 32.832 87.648C32.448 88.032 32.112 88.464 31.824 88.944C31.536 89.392 31.312 89.872 31.152 90.384C31.024 90.864 30.928 91.344 30.864 91.824L29.808 98.016C29.712 98.56 29.648 99.12 29.616 99.696C29.584 100.24 29.6 100.768 29.664 101.28C29.728 101.792 29.856 102.288 30.048 102.768C30.272 103.248 30.576 103.664 30.96 104.016C31.344 104.368 31.776 104.624 32.256 104.784C32.768 104.944 33.296 105.024 33.84 105.024ZM58.176 108.384C57.248 108.384 56.32 108.288 55.392 108.096C54.496 107.936 53.664 107.632 52.896 107.184C52.16 106.704 51.52 106.112 50.976 105.408C50.464 104.672 50.08 103.872 49.824 103.008C49.568 102.144 49.44 101.248 49.44 100.32C49.472 99.36 49.568 98.416 49.728 97.488L50.688 91.728C50.816 90.928 51.008 90.144 51.264 89.376C51.52 88.576 51.872 87.824 52.32 87.12C52.8 86.384 53.36 85.728 54 85.152C54.64 84.544 55.328 84.048 56.064 83.664C56.832 83.28 57.616 83.024 58.416 82.896C59.216 82.736 60.016 82.656 60.816 82.656C61.616 82.656 62.4 82.72 63.168 82.848C63.968 82.944 64.704 83.152 65.376 83.472C66.08 83.76 66.704 84.16 67.248 84.672C67.824 85.184 68.272 85.776 68.592 86.448C68.912 87.12 69.104 87.856 69.168 88.656C69.264 89.424 69.248 90.208 69.12 91.008L69.072 91.248H65.328L65.376 91.104C65.504 90.4 65.488 89.712 65.328 89.04C65.2 88.368 64.912 87.792 64.464 87.312C64.048 86.832 63.504 86.496 62.832 86.304C62.192 86.112 61.536 86.016 60.864 86.016C60.064 86.016 59.248 86.176 58.416 86.496C57.616 86.784 56.928 87.232 56.352 87.84C55.776 88.448 55.328 89.152 55.008 89.952C54.72 90.72 54.512 91.488 54.384 92.256L53.424 98.016C53.328 98.592 53.264 99.168 53.232 99.744C53.2 100.32 53.248 100.88 53.376 101.424C53.504 101.968 53.696 102.48 53.952 102.96C54.24 103.44 54.592 103.84 55.008 104.16C55.456 104.48 55.952 104.704 56.496 104.832C57.04 104.96 57.616 105.024 58.224 105.024C58.928 105.024 59.632 104.912 60.336 104.688C61.072 104.464 61.744 104.112 62.352 103.632C62.96 103.152 63.472 102.592 63.888 101.952C64.336 101.312 64.704 100.64 64.992 99.936L68.256 101.136C67.872 102.128 67.344 103.104 66.672 104.064C66 104.992 65.216 105.792 64.32 106.464C63.456 107.136 62.48 107.632 61.392 107.952C60.304 108.24 59.232 108.384 58.176 108.384ZM81.696 108.384C80.768 108.384 79.856 108.288 78.96 108.096C78.096 107.904 77.296 107.568 76.56 107.088C75.856 106.608 75.264 106.016 74.784 105.312C74.336 104.576 74 103.776 73.776 102.912C73.552 102.048 73.44 101.168 73.44 100.272C73.472 99.344 73.568 98.416 73.728 97.488L74.688 91.728C74.816 90.992 74.976 90.256 75.168 89.52C75.392 88.752 75.696 88.032 76.08 87.36C76.464 86.656 76.912 86 77.424 85.392C77.968 84.784 78.576 84.272 79.248 83.856C79.92 83.44 80.64 83.136 81.408 82.944C82.176 82.752 82.928 82.656 83.664 82.656C84.464 82.656 85.232 82.768 85.968 82.992C86.704 83.216 87.328 83.568 87.84 84.048C88.384 84.528 88.8 85.12 89.088 85.824C89.408 86.496 89.632 87.2 89.76 87.936L92.256 72.72H96.048L91.68 99.312C91.552 100.112 91.36 100.896 91.104 101.664C90.848 102.432 90.496 103.184 90.048 103.92C89.632 104.624 89.104 105.28 88.464 105.888C87.856 106.464 87.168 106.96 86.4 107.376C85.664 107.76 84.896 108.016 84.096 108.144C83.296 108.304 82.496 108.384 81.696 108.384ZM81.744 105.024C82.512 105.024 83.264 104.88 84 104.592C84.768 104.272 85.424 103.824 85.968 103.248C86.544 102.64 86.976 101.968 87.264 101.232C87.584 100.496 87.808 99.76 87.936 99.024L88.848 93.456C88.944 92.88 89.008 92.304 89.04 91.728C89.104 91.152 89.088 90.592 88.992 90.048C88.928 89.472 88.784 88.928 88.56 88.416C88.368 87.904 88.08 87.472 87.696 87.12C87.312 86.736 86.848 86.464 86.304 86.304C85.76 86.112 85.2 86.016 84.624 86.016C84.112 86.016 83.584 86.08 83.04 86.208C82.528 86.336 82.032 86.544 81.552 86.832C81.072 87.12 80.64 87.472 80.256 87.888C79.904 88.304 79.6 88.752 79.344 89.232C79.088 89.712 78.88 90.208 78.72 90.72C78.592 91.232 78.48 91.744 78.384 92.256L77.424 98.016C77.328 98.592 77.264 99.168 77.232 99.744C77.2 100.288 77.232 100.832 77.328 101.376C77.424 101.888 77.584 102.384 77.808 102.864C78.032 103.344 78.336 103.76 78.72 104.112C79.104 104.432 79.568 104.672 80.112 104.832C80.656 104.96 81.2 105.024 81.744 105.024ZM106.464 108.384C105.504 108.384 104.56 108.288 103.632 108.096C102.704 107.936 101.856 107.632 101.088 107.184C100.32 106.736 99.664 106.16 99.12 105.456C98.576 104.72 98.16 103.92 97.872 103.056C97.616 102.192 97.488 101.296 97.488 100.368C97.488 99.408 97.568 98.448 97.728 97.488L98.688 91.728C98.816 90.928 99.008 90.128 99.264 89.328C99.52 88.528 99.888 87.776 100.368 87.072C100.848 86.336 101.408 85.68 102.048 85.104C102.72 84.496 103.44 84.016 104.208 83.664C105.008 83.28 105.808 83.024 106.608 82.896C107.44 82.736 108.256 82.656 109.056 82.656C109.856 82.656 110.64 82.72 111.408 82.848C112.208 82.976 112.944 83.2 113.616 83.52C114.32 83.808 114.944 84.208 115.488 84.72C116.032 85.232 116.464 85.824 116.784 86.496C117.104 87.168 117.328 87.904 117.456 88.704C117.584 89.472 117.584 90.256 117.456 91.056C117.36 91.696 117.152 92.336 116.832 92.976C116.512 93.616 116.112 94.208 115.632 94.752C115.152 95.264 114.608 95.712 114 96.096C113.392 96.448 112.752 96.736 112.08 96.96C111.44 97.184 110.784 97.344 110.112 97.44C109.44 97.504 108.768 97.536 108.096 97.536C107.008 97.536 105.904 97.52 104.784 97.488C103.664 97.424 102.592 97.296 101.568 97.104L101.424 98.016C101.328 98.624 101.264 99.216 101.232 99.792C101.232 100.368 101.296 100.944 101.424 101.52C101.552 102.064 101.76 102.576 102.048 103.056C102.368 103.504 102.752 103.888 103.2 104.208C103.648 104.496 104.16 104.704 104.736 104.832C105.312 104.96 105.888 105.024 106.464 105.024C107.104 105.024 107.728 104.96 108.336 104.832C108.976 104.704 109.584 104.48 110.16 104.16C110.736 103.808 111.248 103.392 111.696 102.912C112.176 102.4 112.576 101.856 112.896 101.28L116.016 102.816C115.504 103.648 114.912 104.432 114.24 105.168C113.568 105.904 112.8 106.528 111.936 107.04C111.104 107.52 110.208 107.856 109.248 108.048C108.288 108.272 107.36 108.384 106.464 108.384ZM108.672 94.32C109.216 94.32 109.76 94.256 110.304 94.128C110.848 93.968 111.376 93.728 111.888 93.408C112.4 93.056 112.816 92.64 113.136 92.16C113.456 91.648 113.664 91.12 113.76 90.576C113.856 89.904 113.808 89.264 113.616 88.656C113.424 88.016 113.104 87.504 112.656 87.12C112.208 86.704 111.664 86.416 111.024 86.256C110.416 86.096 109.776 86.016 109.104 86.016C108.56 86.016 108.016 86.064 107.472 86.16C106.928 86.256 106.4 86.448 105.888 86.736C105.376 86.992 104.896 87.328 104.448 87.744C104.032 88.16 103.68 88.624 103.392 89.136C103.104 89.616 102.88 90.128 102.72 90.672C102.592 91.184 102.48 91.712 102.384 92.256L102.144 93.744C102.624 93.84 103.136 93.92 103.68 93.984C104.256 94.016 104.816 94.048 105.36 94.08C105.936 94.08 106.48 94.128 106.992 94.224C107.536 94.288 108.096 94.32 108.672 94.32ZM118.656 118.32V114.96H121.344C121.952 114.96 122.56 114.848 123.168 114.624C123.776 114.432 124.304 114.112 124.752 113.664C125.2 113.216 125.552 112.688 125.808 112.08C126.064 111.504 126.24 110.928 126.336 110.352L129.888 88.656H123.84V85.296H130.464L131.424 79.488C131.52 78.848 131.664 78.224 131.856 77.616C132.08 77.008 132.368 76.416 132.72 75.84C133.072 75.264 133.488 74.752 133.968 74.304C134.448 73.824 134.992 73.44 135.6 73.152C136.208 72.832 136.816 72.624 137.424 72.528C138.064 72.4 138.688 72.336 139.296 72.336C140.192 72.336 141.04 72.464 141.84 72.72C142.64 72.944 143.312 73.36 143.856 73.968C144.4 74.576 144.752 75.312 144.912 76.176C145.072 77.008 145.088 77.856 144.96 78.72C144.928 78.784 144.912 78.848 144.912 78.912C144.912 78.944 144.896 78.992 144.864 79.056H141.168V78.864C141.232 78.48 141.232 78.08 141.168 77.664C141.136 77.248 141.008 76.896 140.784 76.608C140.592 76.288 140.304 76.064 139.92 75.936C139.536 75.776 139.136 75.696 138.72 75.696C138.24 75.696 137.76 75.84 137.28 76.128C136.8 76.384 136.416 76.736 136.128 77.184C135.84 77.6 135.616 78.064 135.456 78.576C135.328 79.056 135.216 79.536 135.12 80.016L134.256 85.296H141.696V88.656H133.68L130.032 110.88C129.904 111.552 129.728 112.208 129.504 112.848C129.312 113.52 129.008 114.16 128.592 114.768C128.176 115.376 127.68 115.92 127.104 116.4C126.56 116.88 125.968 117.264 125.328 117.552C124.688 117.84 124.032 118.032 123.36 118.128C122.688 118.256 122.016 118.32 121.344 118.32H118.656ZM151.968 118.704C151.232 118.704 150.496 118.656 149.76 118.56C149.056 118.464 148.368 118.288 147.696 118.032C147.024 117.808 146.416 117.488 145.872 117.072C145.328 116.656 144.864 116.16 144.48 115.584C144.128 115.008 143.888 114.368 143.76 113.664C143.632 112.96 143.616 112.224 143.712 111.456H147.456C147.36 112.064 147.424 112.64 147.648 113.184C147.872 113.728 148.208 114.16 148.656 114.48C149.104 114.832 149.6 115.056 150.144 115.152C150.72 115.28 151.312 115.344 151.92 115.344C152.688 115.344 153.472 115.184 154.272 114.864C155.072 114.576 155.76 114.112 156.336 113.472C156.912 112.864 157.344 112.176 157.632 111.408C157.92 110.64 158.128 109.872 158.256 109.104L159.072 104.016C158.72 104.688 158.256 105.312 157.68 105.888C157.136 106.432 156.528 106.896 155.856 107.28C155.216 107.664 154.528 107.936 153.792 108.096C153.056 108.288 152.32 108.384 151.584 108.384C150.752 108.384 149.952 108.256 149.184 108C148.416 107.744 147.76 107.328 147.216 106.752C146.704 106.176 146.304 105.52 146.016 104.784C145.76 104.016 145.584 103.232 145.488 102.432C145.392 101.632 145.376 100.816 145.44 99.984C145.504 99.152 145.6 98.32 145.728 97.488L146.688 91.728C146.816 90.928 147.008 90.128 147.264 89.328C147.52 88.528 147.872 87.776 148.32 87.072C148.8 86.368 149.36 85.728 150 85.152C150.672 84.544 151.392 84.048 152.16 83.664C152.928 83.28 153.712 83.024 154.512 82.896C155.312 82.736 156.112 82.656 156.912 82.656C157.84 82.656 158.736 82.752 159.6 82.944C160.464 83.136 161.232 83.488 161.904 84C162.608 84.48 163.184 85.088 163.632 85.824C164.08 86.56 164.4 87.36 164.592 88.224C164.816 89.056 164.912 89.936 164.88 90.864C164.848 91.76 164.768 92.656 164.64 93.552L161.952 109.632C161.824 110.432 161.632 111.216 161.376 111.984C161.12 112.784 160.768 113.536 160.32 114.24C159.904 114.944 159.376 115.6 158.736 116.208C158.096 116.816 157.392 117.312 156.624 117.696C155.888 118.08 155.12 118.336 154.32 118.464C153.52 118.624 152.736 118.704 151.968 118.704ZM153.6 105.024C154.112 105.024 154.608 104.976 155.088 104.88C155.6 104.752 156.096 104.576 156.576 104.352C157.056 104.096 157.488 103.776 157.872 103.392C158.288 103.008 158.624 102.592 158.88 102.144C159.168 101.664 159.392 101.184 159.552 100.704C159.712 100.192 159.824 99.696 159.888 99.216L160.896 93.024C160.992 92.48 161.056 91.936 161.088 91.392C161.152 90.816 161.136 90.272 161.04 89.76C160.976 89.248 160.832 88.752 160.608 88.272C160.416 87.792 160.128 87.376 159.744 87.024C159.392 86.672 158.96 86.416 158.448 86.256C157.968 86.096 157.456 86.016 156.912 86.016C156.368 86.016 155.824 86.08 155.28 86.208C154.736 86.336 154.208 86.544 153.696 86.832C153.216 87.088 152.784 87.424 152.4 87.84C152.016 88.256 151.68 88.704 151.392 89.184C151.104 89.664 150.88 90.176 150.72 90.72C150.592 91.232 150.48 91.744 150.384 92.256L149.424 98.016C149.328 98.56 149.264 99.12 149.232 99.696C149.2 100.24 149.216 100.784 149.28 101.328C149.376 101.84 149.52 102.336 149.712 102.816C149.936 103.296 150.24 103.712 150.624 104.064C151.008 104.416 151.456 104.672 151.968 104.832C152.512 104.96 153.056 105.024 153.6 105.024ZM168.384 108L174.192 72.72H177.984L175.632 86.976C176.016 86.336 176.464 85.744 176.976 85.2C177.488 84.624 178.064 84.144 178.704 83.76C179.344 83.376 180.016 83.104 180.72 82.944C181.456 82.752 182.176 82.656 182.88 82.656C183.712 82.656 184.496 82.8 185.232 83.088C186 83.344 186.64 83.76 187.152 84.336C187.664 84.912 188.048 85.568 188.304 86.304C188.592 87.04 188.768 87.808 188.832 88.608C188.928 89.408 188.944 90.224 188.88 91.056C188.848 91.888 188.768 92.72 188.64 93.552L186.24 108H182.448L184.896 93.024C184.992 92.48 185.056 91.936 185.088 91.392C185.152 90.848 185.136 90.32 185.04 89.808C184.976 89.264 184.832 88.752 184.608 88.272C184.416 87.792 184.144 87.376 183.792 87.024C183.44 86.672 183.008 86.416 182.496 86.256C181.984 86.096 181.456 86.016 180.912 86.016C180.176 86.016 179.424 86.16 178.656 86.448C177.92 86.704 177.28 87.12 176.736 87.696C176.192 88.272 175.76 88.928 175.44 89.664C175.152 90.368 174.96 91.088 174.864 91.824L172.176 108H168.384ZM206.16 108.384C205.424 108.384 204.704 108.304 204 108.144C203.296 107.984 202.656 107.712 202.08 107.328C201.504 106.944 201.024 106.464 200.64 105.888C200.256 105.28 199.968 104.64 199.776 103.968C199.616 103.264 199.552 102.544 199.584 101.808C199.616 101.072 199.696 100.336 199.824 99.6L201.984 86.4H195.648L195.696 83.04H206.304L203.472 100.128C203.376 100.704 203.328 101.28 203.328 101.856C203.328 102.4 203.424 102.928 203.616 103.44C203.84 103.92 204.176 104.304 204.624 104.592C205.104 104.88 205.616 105.024 206.16 105.024C206.704 105.024 207.216 104.912 207.696 104.688C208.208 104.432 208.656 104.096 209.04 103.68C209.424 103.232 209.728 102.752 209.952 102.24C210.176 101.728 210.368 101.216 210.528 100.704L213.984 101.616C213.728 102.48 213.36 103.344 212.88 104.208C212.432 105.04 211.872 105.792 211.2 106.464C210.528 107.104 209.728 107.584 208.8 107.904C207.904 108.224 207.024 108.384 206.16 108.384ZM206.016 78.816C205.536 78.816 205.072 78.736 204.624 78.576C204.208 78.416 203.872 78.16 203.616 77.808C203.36 77.424 203.184 77.008 203.088 76.56C203.024 76.08 203.024 75.6 203.088 75.12C203.152 74.8 203.264 74.48 203.424 74.16C203.616 73.84 203.84 73.584 204.096 73.392C204.384 73.168 204.688 73.024 205.008 72.96C205.36 72.864 205.712 72.816 206.064 72.816C206.544 72.816 206.992 72.912 207.408 73.104C207.856 73.264 208.208 73.536 208.464 73.92C208.72 74.272 208.896 74.688 208.992 75.168C209.088 75.616 209.088 76.08 208.992 76.56C208.928 76.88 208.8 77.2 208.608 77.52C208.448 77.84 208.224 78.112 207.936 78.336C207.68 78.528 207.376 78.656 207.024 78.72C206.704 78.784 206.368 78.816 206.016 78.816ZM220.992 118.704C220.256 118.704 219.536 118.64 218.832 118.512C218.128 118.416 217.472 118.224 216.864 117.936C216.288 117.648 215.76 117.264 215.28 116.784C214.8 116.304 214.432 115.744 214.176 115.104C213.888 114.496 213.728 113.84 213.696 113.136C213.632 112.432 213.648 111.728 213.744 111.024H217.44C217.344 111.6 217.344 112.16 217.44 112.704C217.568 113.248 217.776 113.728 218.064 114.144C218.384 114.56 218.8 114.864 219.312 115.056C219.824 115.248 220.368 115.344 220.944 115.344C221.392 115.344 221.856 115.264 222.336 115.104C222.816 114.976 223.248 114.752 223.632 114.432C224.048 114.144 224.4 113.792 224.688 113.376C224.976 112.96 225.216 112.528 225.408 112.08C225.632 111.632 225.808 111.168 225.936 110.688C226.064 110.24 226.16 109.792 226.224 109.344L230.016 86.4H223.728V83.04H234.336L229.872 109.872C229.744 110.608 229.568 111.344 229.344 112.08C229.152 112.816 228.864 113.52 228.48 114.192C228.128 114.864 227.68 115.488 227.136 116.064C226.592 116.672 225.984 117.168 225.312 117.552C224.64 117.968 223.92 118.256 223.152 118.416C222.416 118.608 221.696 118.704 220.992 118.704ZM232.992 78.816C232.512 78.816 232.048 78.736 231.6 78.576C231.184 78.416 230.848 78.16 230.592 77.808C230.336 77.424 230.16 77.008 230.064 76.56C230 76.08 230 75.6 230.064 75.12C230.128 74.8 230.24 74.48 230.4 74.16C230.592 73.84 230.816 73.584 231.072 73.392C231.36 73.168 231.664 73.024 231.984 72.96C232.336 72.864 232.688 72.816 233.04 72.816C233.52 72.816 233.968 72.912 234.384 73.104C234.832 73.264 235.184 73.536 235.44 73.92C235.696 74.272 235.872 74.688 235.968 75.168C236.064 75.616 236.064 76.08 235.968 76.56C235.904 76.88 235.776 77.2 235.584 77.52C235.424 77.84 235.2 78.112 234.912 78.336C234.656 78.528 234.352 78.656 234 78.72C233.68 78.784 233.344 78.816 232.992 78.816ZM241.152 108L246.96 72.72H250.704L248.544 85.824C249.024 85.344 249.536 84.896 250.08 84.48C250.656 84.064 251.248 83.728 251.856 83.472C252.464 83.184 253.088 82.976 253.728 82.848C254.368 82.72 255.008 82.656 255.648 82.656C256.512 82.656 257.312 82.832 258.048 83.184C258.816 83.504 259.424 83.984 259.872 84.624C260.32 85.264 260.624 86 260.784 86.832C260.976 87.632 260.992 88.464 260.832 89.328C260.672 90.352 260.352 91.36 259.872 92.352C259.392 93.312 258.752 94.176 257.952 94.944C257.152 95.68 256.256 96.288 255.264 96.768C254.272 97.248 253.28 97.616 252.288 97.872L258.576 108H254.304L249.504 100.368L248.304 98.4H248.256C247.968 98.4 247.664 98.4 247.344 98.4C247.056 98.368 246.768 98.336 246.48 98.304L244.896 108H241.152ZM248.496 95.184C249.072 95.184 249.664 95.136 250.272 95.04C250.88 94.944 251.472 94.816 252.048 94.656C252.656 94.464 253.232 94.224 253.776 93.936C254.352 93.648 254.864 93.28 255.312 92.832C255.76 92.384 256.128 91.888 256.416 91.344C256.704 90.768 256.896 90.176 256.992 89.568C257.056 89.152 257.072 88.736 257.04 88.32C257.008 87.904 256.896 87.52 256.704 87.168C256.512 86.816 256.24 86.544 255.888 86.352C255.536 86.128 255.152 86.016 254.736 86.016C254.064 86.016 253.376 86.16 252.672 86.448C252 86.704 251.392 87.072 250.848 87.552C250.304 88.032 249.808 88.576 249.36 89.184C248.944 89.792 248.592 90.416 248.304 91.056C248.016 91.696 247.76 92.352 247.536 93.024C247.344 93.696 247.184 94.368 247.056 95.04C247.28 95.072 247.504 95.104 247.728 95.136C247.984 95.168 248.24 95.184 248.496 95.184ZM278.16 108.384C277.424 108.384 276.704 108.304 276 108.144C275.296 107.984 274.656 107.712 274.08 107.328C273.504 106.944 273.024 106.464 272.64 105.888C272.256 105.28 271.968 104.64 271.776 103.968C271.616 103.264 271.552 102.544 271.584 101.808C271.616 101.072 271.696 100.336 271.824 99.6L275.712 76.08H269.376V72.72H279.984L275.472 100.128C275.376 100.704 275.328 101.28 275.328 101.856C275.328 102.4 275.424 102.928 275.616 103.44C275.84 103.92 276.176 104.304 276.624 104.592C277.104 104.88 277.616 105.024 278.16 105.024C278.704 105.024 279.216 104.912 279.696 104.688C280.208 104.432 280.656 104.096 281.04 103.68C281.424 103.232 281.728 102.752 281.952 102.24C282.176 101.728 282.368 101.216 282.528 100.704L285.984 101.616C285.728 102.48 285.36 103.344 284.88 104.208C284.432 105.04 283.872 105.792 283.2 106.464C282.528 107.104 281.728 107.584 280.8 107.904C279.904 108.224 279.024 108.384 278.16 108.384ZM287.616 108L290.784 88.8C290.912 88.032 291.12 87.264 291.408 86.496C291.728 85.728 292.176 85.056 292.752 84.48C293.328 83.872 294 83.424 294.768 83.136C295.536 82.816 296.304 82.656 297.072 82.656C297.552 82.656 298.016 82.704 298.464 82.8C298.912 82.896 299.312 83.072 299.664 83.328C300.016 83.584 300.304 83.904 300.528 84.288C300.784 84.672 300.96 85.072 301.056 85.488C301.344 85.072 301.648 84.688 301.968 84.336C302.32 83.952 302.704 83.632 303.12 83.376C303.568 83.12 304.016 82.944 304.464 82.848C304.944 82.72 305.424 82.656 305.904 82.656C306.448 82.656 306.976 82.736 307.488 82.896C308 83.024 308.432 83.264 308.784 83.616C309.136 83.936 309.424 84.32 309.648 84.768C309.904 85.216 310.064 85.696 310.128 86.208C310.224 86.72 310.256 87.248 310.224 87.792C310.224 88.336 310.176 88.88 310.08 89.424L307.008 108H303.216L306.384 88.8C306.448 88.48 306.48 88.16 306.48 87.84C306.48 87.52 306.416 87.232 306.288 86.976C306.192 86.688 306.016 86.464 305.76 86.304C305.504 86.112 305.216 86.016 304.896 86.016C304.48 86.016 304.08 86.176 303.696 86.496C303.344 86.816 303.072 87.184 302.88 87.6C302.688 87.984 302.528 88.384 302.4 88.8C302.304 89.216 302.224 89.632 302.16 90.048L300.768 98.256H297.024L298.512 89.424C298.576 89.04 298.608 88.672 298.608 88.32C298.64 87.936 298.608 87.584 298.512 87.264C298.416 86.912 298.24 86.624 297.984 86.4C297.728 86.144 297.424 86.016 297.072 86.016C296.688 86.016 296.32 86.144 295.968 86.4C295.648 86.624 295.392 86.912 295.2 87.264C295.008 87.584 294.848 87.936 294.72 88.32C294.624 88.672 294.544 89.04 294.48 89.424L291.408 108H287.616ZM312.384 108L315.072 91.728C315.2 90.928 315.376 90.144 315.6 89.376C315.856 88.608 316.192 87.872 316.608 87.168C317.056 86.432 317.584 85.776 318.192 85.2C318.832 84.592 319.52 84.096 320.256 83.712C320.992 83.328 321.76 83.056 322.56 82.896C323.36 82.736 324.16 82.656 324.96 82.656C325.856 82.656 326.736 82.768 327.6 82.992C328.496 83.184 329.28 83.52 329.952 84C330.656 84.48 331.216 85.088 331.632 85.824C332.08 86.56 332.4 87.36 332.592 88.224C332.816 89.056 332.912 89.936 332.88 90.864C332.848 91.76 332.768 92.656 332.64 93.552L330.24 108H326.448L328.896 93.024C328.992 92.48 329.056 91.936 329.088 91.392C329.152 90.848 329.136 90.32 329.04 89.808C328.976 89.264 328.832 88.752 328.608 88.272C328.416 87.792 328.144 87.376 327.792 87.024C327.44 86.672 327.008 86.416 326.496 86.256C326.016 86.096 325.504 86.016 324.96 86.016C324.192 86.016 323.408 86.176 322.608 86.496C321.84 86.816 321.184 87.296 320.64 87.936C320.096 88.544 319.68 89.232 319.392 90C319.104 90.736 318.896 91.488 318.768 92.256L316.176 108H312.384ZM345.744 108.384C344.816 108.384 343.904 108.288 343.008 108.096C342.144 107.904 341.344 107.568 340.608 107.088C339.904 106.608 339.312 106.016 338.832 105.312C338.352 104.576 338 103.776 337.776 102.912C337.584 102.048 337.488 101.168 337.488 100.272C337.488 99.344 337.568 98.416 337.728 97.488L338.688 91.728C338.816 90.928 339.008 90.128 339.264 89.328C339.52 88.528 339.888 87.776 340.368 87.072C340.848 86.336 341.408 85.68 342.048 85.104C342.688 84.528 343.392 84.048 344.16 83.664C344.928 83.28 345.712 83.024 346.512 82.896C347.344 82.736 348.16 82.656 348.96 82.656C349.888 82.656 350.784 82.752 351.648 82.944C352.544 83.136 353.344 83.472 354.048 83.952C354.784 84.432 355.392 85.04 355.872 85.776C356.384 86.48 356.736 87.264 356.928 88.128C357.152 88.992 357.248 89.888 357.216 90.816C357.216 91.712 357.152 92.624 357.024 93.552L356.064 99.312C355.936 100.112 355.728 100.912 355.44 101.712C355.184 102.512 354.816 103.28 354.336 104.016C353.888 104.72 353.344 105.36 352.704 105.936C352.064 106.512 351.36 106.992 350.592 107.376C349.824 107.76 349.024 108.016 348.192 108.144C347.36 108.304 346.544 108.384 345.744 108.384ZM345.792 105.024C346.336 105.024 346.864 104.976 347.376 104.88C347.92 104.752 348.432 104.544 348.912 104.256C349.424 103.968 349.872 103.616 350.256 103.2C350.672 102.784 351.024 102.336 351.312 101.856C351.6 101.376 351.824 100.88 351.984 100.368C352.144 99.824 352.256 99.296 352.32 98.784L353.28 93.024C353.376 92.448 353.44 91.888 353.472 91.344C353.504 90.768 353.472 90.224 353.376 89.712C353.312 89.168 353.152 88.656 352.896 88.176C352.672 87.696 352.352 87.296 351.936 86.976C351.552 86.624 351.088 86.384 350.544 86.256C350.032 86.096 349.504 86.016 348.96 86.016C348.416 86.016 347.872 86.08 347.328 86.208C346.784 86.304 346.256 86.496 345.744 86.784C345.264 87.072 344.816 87.424 344.4 87.84C344.016 88.256 343.68 88.704 343.392 89.184C343.104 89.664 342.88 90.176 342.72 90.72C342.592 91.232 342.48 91.744 342.384 92.256L341.424 98.016C341.328 98.592 341.264 99.168 341.232 99.744C341.2 100.288 341.232 100.832 341.328 101.376C341.424 101.888 341.584 102.384 341.808 102.864C342.064 103.344 342.384 103.76 342.768 104.112C343.152 104.432 343.616 104.672 344.16 104.832C344.704 104.96 345.248 105.024 345.792 105.024ZM358.656 118.32L363.072 91.728C363.2 90.928 363.392 90.144 363.648 89.376C363.904 88.608 364.24 87.872 364.656 87.168C365.072 86.432 365.584 85.776 366.192 85.2C366.832 84.592 367.536 84.096 368.304 83.712C369.072 83.296 369.84 83.024 370.608 82.896C371.408 82.736 372.208 82.656 373.008 82.656C373.936 82.656 374.832 82.752 375.696 82.944C376.592 83.136 377.392 83.472 378.096 83.952C378.832 84.432 379.44 85.04 379.92 85.776C380.4 86.48 380.752 87.264 380.976 88.128C381.2 88.992 381.296 89.888 381.264 90.816C381.232 91.712 381.152 92.624 381.024 93.552L380.064 99.312C379.936 100.048 379.76 100.8 379.536 101.568C379.312 102.304 379.008 103.024 378.624 103.728C378.272 104.4 377.824 105.04 377.28 105.648C376.768 106.256 376.16 106.768 375.456 107.184C374.784 107.6 374.064 107.904 373.296 108.096C372.528 108.288 371.776 108.384 371.04 108.384C370.24 108.384 369.472 108.272 368.736 108.048C368.032 107.824 367.408 107.472 366.864 106.992C366.352 106.512 365.936 105.936 365.616 105.264C365.328 104.56 365.12 103.84 364.992 103.104L362.448 118.32H358.656ZM370.128 105.024C370.64 105.024 371.152 104.96 371.664 104.832C372.176 104.704 372.672 104.496 373.152 104.208C373.632 103.92 374.064 103.568 374.448 103.152C374.832 102.736 375.152 102.288 375.408 101.808C375.664 101.328 375.856 100.832 375.984 100.32C376.144 99.808 376.256 99.296 376.32 98.784L377.28 93.024C377.376 92.448 377.44 91.888 377.472 91.344C377.504 90.768 377.472 90.224 377.376 89.712C377.312 89.168 377.168 88.656 376.944 88.176C376.72 87.696 376.4 87.296 375.984 86.976C375.6 86.624 375.136 86.384 374.592 86.256C374.08 86.096 373.552 86.016 373.008 86.016C372.496 86.016 371.968 86.08 371.424 86.208C370.88 86.336 370.368 86.544 369.888 86.832C369.44 87.12 369.024 87.472 368.64 87.888C368.288 88.304 367.984 88.752 367.728 89.232C367.472 89.712 367.264 90.208 367.104 90.72C366.976 91.232 366.864 91.744 366.768 92.256L365.904 97.584C365.808 98.16 365.728 98.736 365.664 99.312C365.632 99.888 365.648 100.464 365.712 101.04C365.808 101.584 365.952 102.112 366.144 102.624C366.368 103.136 366.672 103.584 367.056 103.968C367.44 104.32 367.904 104.592 368.448 104.784C368.992 104.944 369.552 105.024 370.128 105.024ZM396.72 118.32L399.072 104.016C398.72 104.688 398.256 105.312 397.68 105.888C397.136 106.432 396.528 106.896 395.856 107.28C395.216 107.664 394.528 107.936 393.792 108.096C393.056 108.288 392.32 108.384 391.584 108.384C390.752 108.384 389.952 108.256 389.184 108C388.416 107.744 387.76 107.328 387.216 106.752C386.704 106.176 386.304 105.52 386.016 104.784C385.76 104.016 385.584 103.232 385.488 102.432C385.392 101.632 385.376 100.816 385.44 99.984C385.504 99.152 385.6 98.32 385.728 97.488L386.688 91.728C386.816 90.928 387.008 90.128 387.264 89.328C387.52 88.528 387.872 87.776 388.32 87.072C388.8 86.368 389.36 85.728 390 85.152C390.672 84.544 391.392 84.048 392.16 83.664C392.928 83.28 393.712 83.024 394.512 82.896C395.312 82.736 396.112 82.656 396.912 82.656C397.84 82.656 398.736 82.752 399.6 82.944C400.464 83.136 401.232 83.488 401.904 84C402.608 84.48 403.184 85.088 403.632 85.824C404.08 86.56 404.4 87.36 404.592 88.224C404.816 89.056 404.912 89.936 404.88 90.864C404.848 91.76 404.768 92.656 404.64 93.552L400.512 118.32H396.72ZM393.6 105.024C394.112 105.024 394.608 104.976 395.088 104.88C395.6 104.752 396.096 104.576 396.576 104.352C397.056 104.096 397.488 103.776 397.872 103.392C398.288 103.008 398.624 102.592 398.88 102.144C399.168 101.664 399.392 101.184 399.552 100.704C399.712 100.192 399.824 99.696 399.888 99.216L400.896 93.024C400.992 92.48 401.056 91.936 401.088 91.392C401.152 90.816 401.136 90.272 401.04 89.76C400.976 89.248 400.832 88.752 400.608 88.272C400.416 87.792 400.128 87.376 399.744 87.024C399.392 86.672 398.96 86.416 398.448 86.256C397.968 86.096 397.456 86.016 396.912 86.016C396.368 86.016 395.824 86.08 395.28 86.208C394.736 86.336 394.208 86.544 393.696 86.832C393.216 87.088 392.784 87.424 392.4 87.84C392.016 88.256 391.68 88.704 391.392 89.184C391.104 89.664 390.88 90.176 390.72 90.72C390.592 91.232 390.48 91.744 390.384 92.256L389.424 98.016C389.328 98.56 389.264 99.12 389.232 99.696C389.2 100.24 389.216 100.784 389.28 101.328C389.376 101.84 389.52 102.336 389.712 102.816C389.936 103.296 390.24 103.712 390.624 104.064C391.008 104.416 391.456 104.672 391.968 104.832C392.512 104.96 393.056 105.024 393.6 105.024ZM411.264 108L413.952 91.728C414.08 90.992 414.24 90.256 414.432 89.52C414.656 88.752 414.96 88.032 415.344 87.36C415.728 86.656 416.176 86 416.688 85.392C417.232 84.784 417.84 84.272 418.512 83.856C419.184 83.408 419.888 83.104 420.624 82.944C421.392 82.752 422.144 82.656 422.88 82.656C423.904 82.656 424.896 82.784 425.856 83.04C426.816 83.296 427.648 83.744 428.352 84.384C429.056 85.024 429.552 85.824 429.84 86.784C430.128 87.744 430.208 88.736 430.08 89.76H426.336C426.4 89.248 426.368 88.752 426.24 88.272C426.112 87.76 425.888 87.328 425.568 86.976C425.28 86.624 424.896 86.384 424.416 86.256C423.936 86.096 423.44 86.016 422.928 86.016C422.448 86.016 421.968 86.096 421.488 86.256C421.008 86.416 420.56 86.672 420.144 87.024C419.76 87.344 419.424 87.712 419.136 88.128C418.848 88.544 418.592 88.992 418.368 89.472C418.176 89.92 418.016 90.384 417.888 90.864C417.792 91.312 417.712 91.776 417.648 92.256L415.056 108H411.264ZM441.696 108.384C440.992 108.384 440.288 108.336 439.584 108.24C438.88 108.176 438.192 108.048 437.52 107.856C436.848 107.664 436.224 107.392 435.648 107.04C435.072 106.688 434.576 106.24 434.16 105.696C433.776 105.152 433.504 104.544 433.344 103.872C433.216 103.168 433.2 102.464 433.296 101.76L433.344 101.472H437.088V101.616C436.992 102.192 437.072 102.736 437.328 103.248C437.616 103.728 437.984 104.096 438.432 104.352C438.912 104.608 439.424 104.784 439.968 104.88C440.544 104.976 441.136 105.024 441.744 105.024C442.288 105.024 442.848 104.992 443.424 104.928C444.032 104.832 444.608 104.672 445.152 104.448C445.696 104.192 446.192 103.84 446.64 103.392C447.12 102.912 447.408 102.4 447.504 101.856C447.6 101.28 447.52 100.752 447.264 100.272C447.04 99.76 446.736 99.328 446.352 98.976C445.968 98.624 445.52 98.352 445.008 98.16C444.528 97.936 444.032 97.728 443.52 97.536C443.04 97.344 442.544 97.152 442.032 96.96C441.52 96.768 441.024 96.56 440.544 96.336C440.096 96.08 439.648 95.808 439.2 95.52C438.752 95.2 438.336 94.864 437.952 94.512C437.6 94.128 437.28 93.728 436.992 93.312C436.704 92.864 436.464 92.4 436.272 91.92C436.08 91.408 435.952 90.88 435.888 90.336C435.824 89.792 435.84 89.232 435.936 88.656C436.064 88.016 436.272 87.392 436.56 86.784C436.88 86.176 437.28 85.632 437.76 85.152C438.24 84.672 438.768 84.272 439.344 83.952C439.952 83.6 440.56 83.328 441.168 83.136C441.808 82.944 442.448 82.816 443.088 82.752C443.728 82.688 444.368 82.656 445.008 82.656C445.712 82.656 446.4 82.704 447.072 82.8C447.744 82.864 448.4 82.992 449.04 83.184C449.68 83.376 450.288 83.648 450.864 84C451.44 84.352 451.904 84.8 452.256 85.344C452.608 85.856 452.848 86.448 452.976 87.12C453.136 87.792 453.168 88.48 453.072 89.184L453.024 89.472H449.28V89.328C449.376 88.784 449.312 88.272 449.088 87.792C448.864 87.312 448.528 86.944 448.08 86.688C447.664 86.432 447.184 86.256 446.64 86.16C446.128 86.064 445.584 86.016 445.008 86.016C444.496 86.016 443.952 86.064 443.376 86.16C442.832 86.224 442.288 86.384 441.744 86.64C441.232 86.864 440.768 87.216 440.352 87.696C439.936 88.144 439.696 88.64 439.632 89.184C439.536 89.76 439.6 90.304 439.824 90.816C440.048 91.296 440.352 91.712 440.736 92.064C441.152 92.416 441.6 92.704 442.08 92.928C442.56 93.12 443.056 93.312 443.568 93.504C444.08 93.696 444.576 93.888 445.056 94.08C445.568 94.272 446.048 94.496 446.496 94.752C446.976 94.976 447.424 95.248 447.84 95.568C448.288 95.856 448.688 96.192 449.04 96.576C449.424 96.928 449.76 97.328 450.048 97.776C450.368 98.192 450.624 98.656 450.816 99.168C451.008 99.648 451.136 100.16 451.2 100.704C451.264 101.248 451.248 101.808 451.152 102.384C451.056 103.024 450.832 103.664 450.48 104.304C450.16 104.912 449.744 105.456 449.232 105.936C448.72 106.416 448.144 106.816 447.504 107.136C446.896 107.456 446.272 107.712 445.632 107.904C444.992 108.096 444.336 108.224 443.664 108.288C442.992 108.352 442.336 108.384 441.696 108.384ZM469.392 108.384C468.592 108.384 467.808 108.288 467.04 108.096C466.304 107.936 465.632 107.632 465.024 107.184C464.448 106.736 463.952 106.192 463.536 105.552C463.152 104.912 462.88 104.224 462.72 103.488C462.56 102.72 462.496 101.936 462.528 101.136C462.592 100.336 462.688 99.536 462.816 98.736L464.832 86.4H460.512V83.04H465.408L467.088 72.72H470.832L469.152 83.04H477.312V86.4H468.576L466.464 99.312C466.4 99.728 466.352 100.16 466.32 100.608C466.288 101.024 466.288 101.44 466.32 101.856C466.384 102.272 466.48 102.688 466.608 103.104C466.736 103.488 466.928 103.84 467.184 104.16C467.44 104.448 467.76 104.672 468.144 104.832C468.56 104.96 468.976 105.024 469.392 105.024C470 105.024 470.576 104.88 471.12 104.592C471.696 104.304 472.192 103.92 472.608 103.44C473.024 102.96 473.36 102.432 473.616 101.856C473.872 101.28 474.08 100.704 474.24 100.128L477.6 101.136C477.44 101.744 477.216 102.352 476.928 102.96C476.672 103.536 476.352 104.112 475.968 104.688C475.616 105.232 475.184 105.744 474.672 106.224C474.192 106.704 473.664 107.12 473.088 107.472C472.544 107.792 471.936 108.016 471.264 108.144C470.624 108.304 470 108.384 469.392 108.384ZM489.744 108.384C488.848 108.384 487.968 108.272 487.104 108.048C486.24 107.856 485.456 107.52 484.752 107.04C484.08 106.56 483.52 105.952 483.072 105.216C482.624 104.48 482.304 103.696 482.112 102.864C481.92 102 481.824 101.12 481.824 100.224C481.856 99.296 481.952 98.384 482.112 97.488L484.512 83.04H488.304L485.808 98.016C485.712 98.56 485.648 99.104 485.616 99.648C485.584 100.192 485.6 100.736 485.664 101.28C485.728 101.792 485.856 102.288 486.048 102.768C486.272 103.248 486.56 103.664 486.912 104.016C487.296 104.368 487.728 104.624 488.208 104.784C488.72 104.944 489.248 105.024 489.792 105.024C490.56 105.024 491.328 104.864 492.096 104.544C492.864 104.224 493.52 103.76 494.064 103.152C494.64 102.512 495.072 101.824 495.36 101.088C495.648 100.32 495.84 99.552 495.936 98.784L498.576 83.04H502.368L499.68 99.312C499.552 100.112 499.36 100.896 499.104 101.664C498.88 102.432 498.544 103.184 498.096 103.92C497.648 104.624 497.104 105.28 496.464 105.888C495.856 106.464 495.184 106.944 494.448 107.328C493.712 107.712 492.944 107.984 492.144 108.144C491.344 108.304 490.544 108.384 489.744 108.384ZM510.192 108.384C509.52 108.384 508.864 108.272 508.224 108.048C507.584 107.856 507.056 107.52 506.64 107.04C506.224 106.528 505.968 105.936 505.872 105.264C505.808 104.56 505.824 103.856 505.92 103.152L509.28 83.04H513.024L509.568 103.728C509.568 103.856 509.552 104 509.52 104.16C509.52 104.32 509.536 104.464 509.568 104.592C509.632 104.72 509.712 104.832 509.808 104.928C509.936 104.992 510.08 105.024 510.24 105.024C511.168 105.024 512.096 104.848 513.024 104.496C513.984 104.112 514.848 103.616 515.616 103.008C516.416 102.4 517.136 101.696 517.776 100.896C518.416 100.096 518.976 99.264 519.456 98.4C519.936 97.536 520.32 96.64 520.608 95.712C520.928 94.784 521.168 93.856 521.328 92.928C521.584 91.328 521.648 89.76 521.52 88.224C521.392 86.656 521.072 85.152 520.56 83.712L524.112 82.656C524.72 84.32 525.104 86.064 525.264 87.888C525.424 89.712 525.344 91.552 525.024 93.408C524.832 94.624 524.512 95.824 524.064 97.008C523.648 98.192 523.12 99.328 522.48 100.416C521.84 101.504 521.072 102.544 520.176 103.536C519.312 104.496 518.336 105.344 517.248 106.08C516.192 106.784 515.056 107.344 513.84 107.76C512.624 108.176 511.408 108.384 510.192 108.384ZM532.032 108.384C531.424 108.384 530.832 108.288 530.256 108.096C529.712 107.904 529.264 107.6 528.912 107.184C528.592 106.736 528.384 106.224 528.288 105.648C528.192 105.072 528.192 104.48 528.288 103.872L531.744 83.04H535.536L532.08 103.872C532.048 104.064 532.064 104.24 532.128 104.4C532.192 104.56 532.304 104.688 532.464 104.784C532.624 104.88 532.8 104.944 532.992 104.976C533.184 105.008 533.376 105.024 533.568 105.024C533.952 105.024 534.288 104.864 534.576 104.544C534.896 104.192 535.152 103.84 535.344 103.488C535.536 103.104 535.696 102.736 535.824 102.384C535.984 102 536.128 101.616 536.256 101.232C536.384 100.816 536.496 100.416 536.592 100.032C536.688 99.648 536.768 99.264 536.832 98.88C536.928 98.496 537.008 98.112 537.072 97.728C537.168 97.312 537.248 96.912 537.312 96.528L538.416 89.808H542.16L541.056 96.528C541.024 96.848 540.976 97.168 540.912 97.488C540.88 97.776 540.832 98.08 540.768 98.4C540.736 98.688 540.704 98.992 540.672 99.312C540.64 99.6 540.608 99.904 540.576 100.224C540.576 100.512 540.56 100.816 540.528 101.136C540.528 101.424 540.528 101.728 540.528 102.048C540.528 102.336 540.544 102.624 540.576 102.912C540.608 103.2 540.656 103.488 540.72 103.776C540.784 104.064 540.88 104.352 541.008 104.64C541.136 104.896 541.36 105.024 541.68 105.024C542.032 105.024 542.336 104.88 542.592 104.592C542.88 104.272 543.104 103.952 543.264 103.632C543.456 103.312 543.616 102.976 543.744 102.624C543.904 102.272 544.048 101.936 544.176 101.616C544.304 101.264 544.416 100.912 544.512 100.56C544.608 100.208 544.704 99.872 544.8 99.552C544.896 99.2 544.976 98.848 545.04 98.496C545.136 98.144 545.216 97.792 545.28 97.44C545.376 97.088 545.456 96.736 545.52 96.384C545.584 96.032 545.632 95.68 545.664 95.328C546.016 93.28 546.192 91.248 546.192 89.232C546.192 87.184 545.984 85.2 545.568 83.28L549.216 82.656C549.632 84.768 549.856 86.944 549.888 89.184C549.92 91.392 549.76 93.616 549.408 95.856C549.28 96.496 549.152 97.136 549.024 97.776C548.896 98.384 548.736 99.008 548.544 99.648C548.384 100.256 548.192 100.864 547.968 101.472C547.776 102.08 547.536 102.688 547.248 103.296C546.992 103.904 546.688 104.496 546.336 105.072C546.016 105.648 545.616 106.192 545.136 106.704C544.688 107.184 544.144 107.584 543.504 107.904C542.896 108.224 542.272 108.384 541.632 108.384C541.056 108.384 540.528 108.256 540.048 108C539.6 107.712 539.232 107.36 538.944 106.944C538.656 106.496 538.432 106.016 538.272 105.504C538.112 104.96 538 104.416 537.936 103.872C537.616 104.448 537.264 105.008 536.88 105.552C536.496 106.096 536.048 106.592 535.536 107.04C535.056 107.488 534.496 107.824 533.856 108.048C533.248 108.272 532.64 108.384 532.032 108.384ZM552.384 108L552.576 106.752C552.672 106.112 552.88 105.488 553.2 104.88C553.52 104.24 553.872 103.632 554.256 103.056C554.672 102.48 555.088 101.92 555.504 101.376C555.952 100.8 556.416 100.256 556.896 99.744L561.072 95.328L558.432 91.008C558.144 90.528 557.856 90.032 557.568 89.52C557.28 88.976 557.024 88.432 556.8 87.888C556.608 87.312 556.448 86.736 556.32 86.16C556.192 85.552 556.176 84.928 556.272 84.288L556.512 83.04H560.304L560.064 84.288C560 84.768 560.016 85.232 560.112 85.68C560.208 86.096 560.32 86.512 560.448 86.928C560.608 87.344 560.784 87.744 560.976 88.128C561.168 88.512 561.376 88.88 561.6 89.232L563.712 92.592L567.12 88.992C567.216 88.896 567.296 88.816 567.36 88.752C567.456 88.656 567.536 88.576 567.6 88.512C567.92 88.192 568.208 87.872 568.464 87.552C568.752 87.232 569.024 86.896 569.28 86.544C569.568 86.192 569.808 85.824 570 85.44C570.192 85.056 570.304 84.672 570.336 84.288L570.576 83.04H574.368L574.128 84.288C574.032 84.928 573.824 85.568 573.504 86.208C573.216 86.816 572.864 87.408 572.448 87.984C572.064 88.56 571.648 89.136 571.2 89.712C570.784 90.256 570.32 90.784 569.808 91.296L565.632 95.712L568.272 100.032C568.592 100.512 568.88 101.024 569.136 101.568C569.424 102.08 569.664 102.624 569.856 103.2C570.08 103.744 570.256 104.32 570.384 104.928C570.512 105.504 570.528 106.112 570.432 106.752L570.24 108H566.448L566.64 106.752C566.736 106.272 566.736 105.824 566.64 105.408C566.544 104.96 566.416 104.528 566.256 104.112C566.096 103.696 565.92 103.296 565.728 102.912C565.536 102.528 565.328 102.16 565.104 101.808L563.04 98.448L559.584 102.048C559.52 102.144 559.44 102.24 559.344 102.336C559.28 102.4 559.216 102.464 559.152 102.528C558.832 102.848 558.528 103.168 558.24 103.488C557.984 103.808 557.712 104.144 557.424 104.496C557.168 104.848 556.944 105.216 556.752 105.6C556.56 105.984 556.432 106.368 556.368 106.752L556.176 108H552.384ZM583.968 118.704C583.232 118.704 582.496 118.656 581.76 118.56C581.056 118.464 580.368 118.288 579.696 118.032C579.024 117.808 578.416 117.488 577.872 117.072C577.328 116.656 576.864 116.16 576.48 115.584C576.128 115.008 575.888 114.368 575.76 113.664C575.632 112.96 575.616 112.224 575.712 111.456H579.456C579.36 112.064 579.424 112.64 579.648 113.184C579.872 113.728 580.208 114.16 580.656 114.48C581.104 114.832 581.6 115.056 582.144 115.152C582.72 115.28 583.312 115.344 583.92 115.344C584.688 115.344 585.472 115.184 586.272 114.864C587.072 114.576 587.76 114.112 588.336 113.472C588.912 112.864 589.344 112.176 589.632 111.408C589.92 110.64 590.128 109.872 590.256 109.104L591.072 104.064C590.72 104.704 590.272 105.312 589.728 105.888C589.216 106.432 588.64 106.896 588 107.28C587.36 107.664 586.672 107.936 585.936 108.096C585.232 108.288 584.528 108.384 583.824 108.384C582.992 108.384 582.192 108.256 581.424 108C580.688 107.712 580.064 107.28 579.552 106.704C579.04 106.128 578.656 105.472 578.4 104.736C578.144 104 577.968 103.232 577.872 102.432C577.776 101.632 577.76 100.816 577.824 99.984C577.888 99.152 577.984 98.32 578.112 97.488L580.512 83.04H584.304L581.808 98.016C581.712 98.56 581.648 99.104 581.616 99.648C581.584 100.192 581.6 100.736 581.664 101.28C581.728 101.792 581.856 102.288 582.048 102.768C582.272 103.248 582.56 103.664 582.912 104.016C583.296 104.368 583.744 104.624 584.256 104.784C584.768 104.944 585.296 105.024 585.84 105.024C586.576 105.024 587.312 104.896 588.048 104.64C588.816 104.352 589.472 103.92 590.016 103.344C590.56 102.768 590.976 102.128 591.264 101.424C591.552 100.688 591.76 99.952 591.888 99.216L594.576 83.04H598.368L593.952 109.632C593.824 110.432 593.632 111.216 593.376 111.984C593.12 112.784 592.768 113.536 592.32 114.24C591.904 114.944 591.376 115.6 590.736 116.208C590.096 116.816 589.392 117.312 588.624 117.696C587.888 118.08 587.12 118.336 586.32 118.464C585.52 118.624 584.736 118.704 583.968 118.704ZM600.384 108L600.624 106.416C600.752 105.68 600.928 104.96 601.152 104.256C601.408 103.52 601.744 102.816 602.16 102.144C602.576 101.44 603.04 100.784 603.552 100.176C604.064 99.536 604.624 98.96 605.232 98.448L615.072 90.048C615.648 89.536 616.176 88.976 616.656 88.368C617.168 87.76 617.552 87.104 617.808 86.4H603.936L604.512 83.04H622.368L622.128 84.576C622 85.344 621.808 86.096 621.552 86.832C621.296 87.536 620.96 88.24 620.544 88.944C620.16 89.616 619.712 90.272 619.2 90.912C618.688 91.52 618.128 92.08 617.52 92.592L607.68 100.992C607.072 101.504 606.528 102.064 606.048 102.672C605.568 103.28 605.184 103.936 604.896 104.64H618.768L618.24 108H600.384ZM200.88 168L205.968 137.28L198.864 141.84L196.896 139.056L206.688 132.72H210.432L204.624 168H200.88ZM216.384 168L216.912 164.64L229.632 150.912C229.632 150.88 229.632 150.864 229.632 150.864C229.664 150.832 229.696 150.816 229.728 150.816L229.776 150.72C230.384 150.08 230.96 149.456 231.504 148.848C232.048 148.208 232.56 147.552 233.04 146.88C233.52 146.176 233.904 145.456 234.192 144.72C234.512 143.952 234.736 143.168 234.864 142.368V142.32C234.96 141.808 235.024 141.28 235.056 140.736C235.088 140.192 235.056 139.68 234.96 139.2C234.864 138.688 234.688 138.208 234.432 137.76C234.208 137.28 233.904 136.896 233.52 136.608C233.168 136.288 232.736 136.064 232.224 135.936C231.744 135.776 231.232 135.696 230.688 135.696C229.952 135.696 229.2 135.84 228.432 136.128C227.664 136.384 226.992 136.8 226.416 137.376C225.872 137.92 225.424 138.56 225.072 139.296C224.752 140 224.528 140.72 224.4 141.456H220.656C220.784 140.688 220.992 139.92 221.28 139.152C221.568 138.352 221.936 137.6 222.384 136.896C222.832 136.192 223.36 135.536 223.968 134.928C224.576 134.32 225.248 133.824 225.984 133.44C226.72 133.024 227.488 132.736 228.288 132.576C229.12 132.416 229.92 132.336 230.688 132.336C231.584 132.336 232.464 132.432 233.328 132.624C234.192 132.784 234.976 133.104 235.68 133.584C236.384 134.032 236.976 134.608 237.456 135.312C237.936 135.984 238.288 136.736 238.512 137.568C238.736 138.4 238.832 139.264 238.8 140.16C238.8 141.056 238.72 141.968 238.56 142.896C238.4 143.856 238.128 144.8 237.744 145.728C237.392 146.656 236.928 147.552 236.352 148.416C235.776 149.28 235.136 150.096 234.432 150.864C233.76 151.632 233.072 152.4 232.368 153.168L221.76 164.64H234.768L234.24 168H216.384ZM249.984 168C249.184 168 248.384 167.952 247.584 167.856C246.784 167.728 246.032 167.504 245.328 167.184C244.656 166.864 244.032 166.448 243.456 165.936C242.912 165.424 242.48 164.832 242.16 164.16C241.872 163.456 241.68 162.72 241.584 161.952C241.52 161.152 241.552 160.352 241.68 159.552V159.504H245.424V159.552C245.296 160.224 245.296 160.912 245.424 161.616C245.584 162.288 245.872 162.864 246.288 163.344C246.704 163.792 247.232 164.128 247.872 164.352C248.544 164.544 249.232 164.64 249.936 164.64C250.48 164.64 251.04 164.576 251.616 164.448C252.192 164.288 252.72 164.048 253.2 163.728C253.712 163.408 254.16 163.024 254.544 162.576C254.928 162.096 255.248 161.6 255.504 161.088C255.76 160.576 255.968 160.048 256.128 159.504C256.288 158.928 256.416 158.368 256.512 157.824C256.608 157.248 256.672 156.672 256.704 156.096C256.768 155.488 256.752 154.896 256.656 154.32C256.592 153.744 256.448 153.2 256.224 152.688C256.032 152.176 255.744 151.728 255.36 151.344C254.976 150.928 254.512 150.64 253.968 150.48C253.424 150.288 252.848 150.192 252.24 150.192H247.776L248.352 146.832L258.528 136.08H245.664L246.192 132.72H263.616L263.088 136.08L252.864 146.832C253.792 146.864 254.672 147.024 255.504 147.312C256.368 147.568 257.12 147.968 257.76 148.512C258.432 149.056 258.976 149.712 259.392 150.48C259.808 151.248 260.096 152.064 260.256 152.928C260.416 153.792 260.48 154.688 260.448 155.616C260.448 156.544 260.368 157.472 260.208 158.4C260.08 159.2 259.888 160.016 259.632 160.848C259.376 161.648 259.024 162.432 258.576 163.2C258.128 163.936 257.584 164.624 256.944 165.264C256.336 165.904 255.648 166.432 254.88 166.848C254.112 167.264 253.296 167.568 252.432 167.76C251.6 167.92 250.784 168 249.984 168ZM276.912 168L278.448 158.688H265.536L266.064 155.328L280.848 132.72H286.464L280.656 168H276.912ZM278.976 155.328L281.904 137.712L270.384 155.328H278.976ZM297.888 168.384C297.12 168.384 296.368 168.32 295.632 168.192C294.896 168.096 294.192 167.904 293.52 167.616C292.88 167.328 292.272 166.96 291.696 166.512C291.152 166.032 290.704 165.488 290.352 164.88C290.032 164.24 289.792 163.552 289.632 162.816C289.504 162.08 289.472 161.328 289.536 160.56L289.584 160.224H293.328V160.464C293.296 161.104 293.36 161.728 293.52 162.336C293.712 162.912 294.016 163.424 294.432 163.872C294.88 164.288 295.408 164.592 296.016 164.784C296.624 164.944 297.248 165.024 297.888 165.024C298.464 165.024 299.04 164.944 299.616 164.784C300.192 164.624 300.72 164.384 301.2 164.064C301.712 163.712 302.16 163.296 302.544 162.816C302.928 162.304 303.248 161.792 303.504 161.28C303.76 160.736 303.952 160.192 304.08 159.648C304.24 159.072 304.368 158.496 304.464 157.92C304.56 157.344 304.624 156.768 304.656 156.192C304.72 155.616 304.704 155.056 304.608 154.512C304.544 153.936 304.4 153.392 304.176 152.88C303.984 152.368 303.68 151.936 303.264 151.584C302.88 151.2 302.416 150.928 301.872 150.768C301.36 150.576 300.8 150.48 300.192 150.48H292.704L295.632 132.72H311.136L310.608 136.08H298.896L297.072 147.12H300.24C301.2 147.12 302.128 147.232 303.024 147.456C303.92 147.648 304.72 148 305.424 148.512C306.128 149.024 306.704 149.664 307.152 150.432C307.632 151.2 307.968 152.032 308.16 152.928C308.384 153.792 308.48 154.704 308.448 155.664C308.416 156.592 308.32 157.536 308.16 158.496C308.032 159.328 307.84 160.16 307.584 160.992C307.36 161.824 307.024 162.624 306.576 163.392C306.128 164.16 305.584 164.88 304.944 165.552C304.336 166.192 303.632 166.736 302.832 167.184C302.064 167.632 301.248 167.936 300.384 168.096C299.552 168.288 298.72 168.384 297.888 168.384ZM321.744 168.384C320.72 168.384 319.728 168.24 318.768 167.952C317.84 167.664 317.024 167.216 316.32 166.608C315.648 165.968 315.104 165.216 314.688 164.352C314.304 163.456 314.032 162.528 313.872 161.568C313.712 160.576 313.648 159.584 313.68 158.592C313.744 157.568 313.872 156.544 314.064 155.52C314.288 154.176 314.64 152.864 315.12 151.584C315.6 150.272 316.192 149.008 316.896 147.792C317.6 146.544 318.352 145.328 319.152 144.144C319.984 142.96 320.8 141.776 321.6 140.592L327.024 132.72H331.392L324.72 142.512C324.208 143.248 323.68 143.984 323.136 144.72C322.592 145.424 322.048 146.144 321.504 146.88L321.408 146.928V146.976C321.888 146.816 322.384 146.704 322.896 146.64C323.44 146.576 323.952 146.544 324.432 146.544C325.392 146.544 326.32 146.672 327.216 146.928C328.144 147.152 328.944 147.552 329.616 148.128C330.32 148.672 330.896 149.344 331.344 150.144C331.792 150.944 332.096 151.792 332.256 152.688C332.448 153.584 332.528 154.528 332.496 155.52C332.464 156.48 332.368 157.44 332.208 158.4C332.08 159.232 331.888 160.064 331.632 160.896C331.376 161.728 331.024 162.544 330.576 163.344C330.128 164.112 329.584 164.832 328.944 165.504C328.304 166.176 327.584 166.736 326.784 167.184C325.984 167.632 325.152 167.936 324.288 168.096C323.424 168.288 322.576 168.384 321.744 168.384ZM321.792 165.024C322.336 165.024 322.896 164.944 323.472 164.784C324.08 164.624 324.624 164.384 325.104 164.064C325.616 163.712 326.064 163.296 326.448 162.816C326.864 162.304 327.2 161.792 327.456 161.28C327.744 160.736 327.968 160.176 328.128 159.6C328.288 159.024 328.416 158.448 328.512 157.872V157.824C328.608 157.216 328.672 156.608 328.704 156C328.768 155.392 328.768 154.8 328.704 154.224C328.64 153.648 328.496 153.088 328.272 152.544C328.08 152 327.792 151.52 327.408 151.104C327.056 150.688 326.592 150.384 326.016 150.192C325.472 150 324.896 149.904 324.288 149.904C323.712 149.904 323.136 149.984 322.56 150.144C322.016 150.272 321.488 150.512 320.976 150.864C320.464 151.184 320 151.584 319.584 152.064C319.2 152.544 318.88 153.056 318.624 153.6C318.368 154.112 318.16 154.656 318 155.232C317.84 155.776 317.712 156.336 317.616 156.912V156.96C317.52 157.568 317.44 158.176 317.376 158.784C317.312 159.392 317.312 160 317.376 160.608C317.44 161.184 317.568 161.744 317.76 162.288C317.984 162.832 318.272 163.328 318.624 163.776C319.008 164.192 319.472 164.512 320.016 164.736C320.56 164.928 321.152 165.024 321.792 165.024ZM341.664 168C342.112 165.216 342.736 162.448 343.536 159.696C344.368 156.944 345.344 154.224 346.464 151.536C347.584 148.848 348.864 146.208 350.304 143.616C351.744 141.024 353.328 138.512 355.056 136.08H341.664L342.192 132.72H360.048L359.52 136.08C357.664 138.48 355.968 140.976 354.432 143.568C352.928 146.128 351.584 148.752 350.4 151.44C349.216 154.128 348.192 156.864 347.328 159.648C346.496 162.432 345.856 165.216 345.408 168H341.664ZM369.744 168.384C368.848 168.384 367.968 168.288 367.104 168.096C366.272 167.904 365.504 167.584 364.8 167.136C364.096 166.656 363.488 166.08 362.976 165.408C362.496 164.736 362.128 164 361.872 163.2C361.648 162.368 361.52 161.52 361.488 160.656C361.456 159.76 361.504 158.864 361.632 157.968C361.792 157.072 362.032 156.192 362.352 155.328C362.704 154.432 363.168 153.616 363.744 152.88C364.352 152.112 365.056 151.456 365.856 150.912C366.656 150.336 367.488 149.888 368.352 149.568C367.68 149.152 367.104 148.608 366.624 147.936C366.144 147.264 365.776 146.544 365.52 145.776C365.296 144.976 365.152 144.144 365.088 143.28C365.056 142.416 365.12 141.536 365.28 140.64C365.472 139.552 365.824 138.48 366.336 137.424C366.848 136.368 367.536 135.44 368.4 134.64C369.264 133.84 370.256 133.264 371.376 132.912C372.496 132.528 373.6 132.336 374.688 132.336C375.52 132.336 376.336 132.432 377.136 132.624C377.936 132.816 378.656 133.136 379.296 133.584C379.936 134.032 380.464 134.592 380.88 135.264C381.328 135.904 381.664 136.608 381.888 137.376C382.112 138.144 382.24 138.944 382.272 139.776C382.304 140.608 382.24 141.44 382.08 142.272C381.952 143.072 381.744 143.872 381.456 144.672C381.168 145.44 380.768 146.176 380.256 146.88C379.776 147.552 379.184 148.16 378.48 148.704C377.808 149.248 377.088 149.68 376.32 150C377.088 150.448 377.76 151.024 378.336 151.728C378.912 152.4 379.36 153.168 379.68 154.032C380 154.864 380.176 155.76 380.208 156.72C380.24 157.648 380.176 158.592 380.016 159.552C379.888 160.352 379.68 161.136 379.392 161.904C379.136 162.672 378.768 163.408 378.288 164.112C377.808 164.784 377.232 165.408 376.56 165.984C375.92 166.56 375.216 167.024 374.448 167.376C373.712 167.728 372.944 167.984 372.144 168.144C371.344 168.304 370.544 168.384 369.744 168.384ZM372.672 148.176C373.408 148.176 374.128 147.984 374.832 147.6C375.568 147.184 376.176 146.672 376.656 146.064C377.136 145.456 377.504 144.784 377.76 144.048C378.048 143.312 378.256 142.592 378.384 141.888V141.84C378.512 141.104 378.544 140.384 378.48 139.68C378.448 138.944 378.272 138.272 377.952 137.664C377.664 137.056 377.216 136.576 376.608 136.224C376 135.872 375.344 135.696 374.64 135.696C373.936 135.696 373.232 135.84 372.528 136.128C371.856 136.416 371.264 136.832 370.752 137.376C370.24 137.92 369.84 138.544 369.552 139.248C369.264 139.92 369.072 140.592 368.976 141.264C368.848 142.064 368.8 142.848 368.832 143.616C368.864 144.384 369.008 145.12 369.264 145.824C369.552 146.496 370 147.056 370.608 147.504C371.216 147.952 371.904 148.176 372.672 148.176ZM369.792 165.024C370.592 165.024 371.376 164.88 372.144 164.592C372.944 164.304 373.632 163.872 374.208 163.296C374.816 162.688 375.28 162 375.6 161.232C375.952 160.464 376.192 159.696 376.32 158.928C376.448 158.064 376.48 157.2 376.416 156.336C376.384 155.472 376.192 154.688 375.84 153.984C375.488 153.248 374.96 152.656 374.256 152.208C373.552 151.76 372.768 151.536 371.904 151.536C371.072 151.536 370.24 151.744 369.408 152.16C368.608 152.544 367.92 153.072 367.344 153.744C366.8 154.384 366.368 155.12 366.048 155.952C365.728 156.752 365.504 157.552 365.376 158.352C365.248 159.184 365.2 160 365.232 160.8C365.296 161.6 365.52 162.336 365.904 163.008C366.288 163.648 366.832 164.144 367.536 164.496C368.24 164.848 368.992 165.024 369.792 165.024ZM393.408 168H389.04L395.712 158.208C396.224 157.472 396.752 156.752 397.296 156.048C397.84 155.312 398.4 154.576 398.976 153.84L399.024 153.792V153.744C398.544 153.904 398.032 154.016 397.488 154.08C396.976 154.144 396.48 154.176 396 154.176C395.04 154.176 394.096 154.064 393.168 153.84C392.272 153.584 391.472 153.184 390.768 152.64C390.096 152.064 389.536 151.376 389.088 150.576C388.64 149.776 388.32 148.928 388.128 148.032C387.968 147.136 387.904 146.208 387.936 145.248C387.968 144.256 388.064 143.28 388.224 142.32C388.384 141.488 388.576 140.656 388.8 139.824C389.056 138.992 389.408 138.192 389.856 137.424C390.304 136.624 390.848 135.888 391.488 135.216C392.128 134.544 392.848 133.984 393.648 133.536C394.448 133.088 395.28 132.784 396.144 132.624C397.008 132.432 397.856 132.336 398.688 132.336C399.712 132.336 400.688 132.48 401.616 132.768C402.576 133.056 403.392 133.52 404.064 134.16C404.768 134.768 405.312 135.52 405.696 136.416C406.112 137.28 406.4 138.208 406.56 139.2C406.72 140.16 406.768 141.152 406.704 142.176C406.672 143.168 406.56 144.176 406.368 145.2C406.144 146.544 405.792 147.872 405.312 149.184C404.832 150.464 404.24 151.728 403.536 152.976C402.832 154.192 402.064 155.392 401.232 156.576C400.432 157.76 399.632 158.944 398.832 160.128L393.408 168ZM396.144 150.816C396.72 150.816 397.28 150.752 397.824 150.624C398.4 150.464 398.944 150.224 399.456 149.904C399.968 149.552 400.416 149.136 400.8 148.656C401.216 148.176 401.552 147.68 401.808 147.168C402.064 146.624 402.272 146.08 402.432 145.536C402.592 144.96 402.72 144.384 402.816 143.808V143.76C402.912 143.152 402.992 142.544 403.056 141.936C403.12 141.328 403.12 140.736 403.056 140.16C402.992 139.552 402.864 138.976 402.672 138.432C402.48 137.888 402.192 137.408 401.808 136.992C401.424 136.544 400.96 136.224 400.416 136.032C399.872 135.808 399.28 135.696 398.64 135.696C398.096 135.696 397.52 135.776 396.912 135.936C396.336 136.096 395.792 136.352 395.28 136.704C394.8 137.024 394.352 137.44 393.936 137.952C393.552 138.432 393.216 138.944 392.928 139.488C392.672 140 392.464 140.544 392.304 141.12C392.144 141.696 392.016 142.272 391.92 142.848V142.896C391.824 143.504 391.744 144.112 391.68 144.72C391.648 145.328 391.664 145.92 391.728 146.496C391.792 147.072 391.92 147.632 392.112 148.176C392.336 148.72 392.624 149.2 392.976 149.616C393.36 150.032 393.824 150.336 394.368 150.528C394.944 150.72 395.536 150.816 396.144 150.816ZM417.744 168.384C416.816 168.384 415.904 168.288 415.008 168.096C414.144 167.904 413.344 167.568 412.608 167.088C411.904 166.608 411.312 166.016 410.832 165.312C410.352 164.576 410 163.776 409.776 162.912C409.584 162.048 409.488 161.168 409.488 160.272C409.488 159.344 409.568 158.416 409.728 157.488L412.368 141.408C412.528 140.608 412.736 139.808 412.992 139.008C413.248 138.208 413.6 137.456 414.048 136.752C414.528 136.016 415.088 135.36 415.728 134.784C416.368 134.208 417.072 133.728 417.84 133.344C418.608 132.96 419.408 132.704 420.24 132.576C421.072 132.416 421.888 132.336 422.688 132.336C423.616 132.336 424.512 132.432 425.376 132.624C426.272 132.816 427.072 133.152 427.776 133.632C428.512 134.112 429.12 134.72 429.6 135.456C430.08 136.16 430.416 136.944 430.608 137.808C430.832 138.672 430.944 139.568 430.944 140.496C430.944 141.392 430.864 142.304 430.704 143.232L428.064 159.312C427.936 160.112 427.728 160.912 427.44 161.712C427.184 162.512 426.816 163.28 426.336 164.016C425.888 164.72 425.344 165.36 424.704 165.936C424.064 166.512 423.36 166.992 422.592 167.376C421.824 167.76 421.024 168.016 420.192 168.144C419.36 168.304 418.544 168.384 417.744 168.384ZM414.336 152.544L426.816 143.76L427.008 142.704C427.104 142.128 427.168 141.568 427.2 141.024C427.232 140.448 427.2 139.904 427.104 139.392C427.008 138.848 426.832 138.336 426.576 137.856C426.352 137.376 426.048 136.976 425.664 136.656C425.28 136.304 424.816 136.064 424.272 135.936C423.728 135.776 423.184 135.696 422.64 135.696C422.096 135.696 421.552 135.76 421.008 135.888C420.496 135.984 419.984 136.176 419.472 136.464C418.992 136.752 418.544 137.104 418.128 137.52C417.744 137.936 417.408 138.384 417.12 138.864C416.832 139.344 416.608 139.856 416.448 140.4C416.288 140.912 416.176 141.424 416.112 141.936L414.336 152.544ZM417.792 165.024C418.336 165.024 418.864 164.976 419.376 164.88C419.92 164.752 420.432 164.544 420.912 164.256C421.424 163.968 421.872 163.616 422.256 163.2C422.672 162.784 423.024 162.336 423.312 161.856C423.6 161.376 423.824 160.88 423.984 160.368C424.144 159.824 424.256 159.296 424.32 158.784L426.096 148.176L413.616 156.96L413.424 158.016C413.328 158.592 413.264 159.168 413.232 159.744C413.2 160.288 413.232 160.832 413.328 161.376C413.424 161.888 413.584 162.384 413.808 162.864C414.064 163.344 414.384 163.76 414.768 164.112C415.152 164.432 415.616 164.672 416.16 164.832C416.704 164.96 417.248 165.024 417.792 165.024Z" fill="white"/>
</svg>
