<svg width="1309" height="680" viewBox="0 0 1309 680" fill="none" xmlns="http://www.w3.org/2000/svg">
<path d="M3.072 93.36V90H36.192V93.36H3.072ZM50.352 104.112L33.456 93.648V89.712L50.352 79.248L52.272 82.128L36.672 91.68L52.272 101.232L50.352 104.112ZM67.968 104.112L51.072 93.648V89.712L67.968 79.248L69.888 82.128L54.288 91.68L69.888 101.232L67.968 104.112ZM101.918 93.36V90H128.654V93.36H101.918ZM142.814 104.112L125.918 93.648V89.712L142.814 79.248L144.734 82.128L129.134 91.68L144.734 101.232L142.814 104.112ZM176.764 93.36V90H203.5V93.36H176.764ZM217.66 104.112L200.764 93.648V89.712L217.66 79.248L219.58 82.128L203.98 91.68L219.58 101.232L217.66 104.112ZM203.5 93.36V90H242.62V93.36H203.5ZM292.506 104.112L275.61 93.648V89.712L292.506 79.248L294.426 82.128L278.826 91.68L294.426 101.232L292.506 104.112ZM278.346 93.36V90H317.466V93.36H278.346ZM317.082 93.36V90H341.466V93.36H317.082ZM391.353 104.112L374.457 93.648V89.712L391.353 79.248L393.273 82.128L377.673 91.68L393.273 101.232L391.353 104.112ZM377.193 93.36V90H416.313V93.36H377.193ZM415.929 93.36V90H440.313V93.36H415.929ZM439.929 93.36V90H464.313V93.36H439.929ZM514.199 104.112L497.303 93.648V89.712L514.199 79.248L516.119 82.128L500.519 91.68L516.119 101.232L514.199 104.112ZM531.815 104.112L514.919 93.648V89.712L531.815 79.248L533.735 82.128L518.135 91.68L533.735 101.232L531.815 104.112ZM517.655 93.36V90H563.159V93.36H517.655ZM613.045 104.112L596.149 93.648V89.712L613.045 79.248L614.965 82.128L599.365 91.68L614.965 101.232L613.045 104.112ZM598.885 93.36V90H638.005V93.36H598.885ZM670.995 93.36V90H710.115V93.36H670.995ZM695.955 104.112L694.035 101.232L709.635 91.68L694.035 82.128L695.955 79.248L712.851 89.712V93.648L695.955 104.112ZM745.841 93.36V90H791.345V93.36H745.841ZM777.185 104.112L775.265 101.232L790.865 91.68L775.265 82.128L777.185 79.248L794.081 89.712V93.648L777.185 104.112ZM794.801 104.112L792.881 101.232L808.481 91.68L792.881 82.128L794.801 79.248L811.697 89.712V93.648L794.801 104.112ZM844.687 93.36V90H869.071V93.36H844.687ZM868.687 93.36V90H907.807V93.36H868.687ZM893.647 104.112L891.727 101.232L907.327 91.68L891.727 82.128L893.647 79.248L910.543 89.712V93.648L893.647 104.112ZM943.534 93.36V90H967.918V93.36H943.534ZM967.534 93.36V90H991.918V93.36H967.534ZM991.534 93.36V90H1030.65V93.36H991.534ZM1016.49 104.112L1014.57 101.232L1030.17 91.68L1014.57 82.128L1016.49 79.248L1033.39 89.712V93.648L1016.49 104.112ZM1066.38 93.36V90H1105.5V93.36H1066.38ZM1091.34 104.112L1089.42 101.232L1105.02 91.68L1089.42 82.128L1091.34 79.248L1108.24 89.712V93.648L1091.34 104.112ZM1105.5 93.36V90H1132.24V93.36H1105.5ZM1166.19 104.112L1164.27 101.232L1179.87 91.68L1164.27 82.128L1166.19 79.248L1183.08 89.712V93.648L1166.19 104.112ZM1180.35 93.36V90H1207.08V93.36H1180.35ZM1241.03 104.112L1239.11 101.232L1254.71 91.68L1239.11 82.128L1241.03 79.248L1257.93 89.712V93.648L1241.03 104.112ZM1258.65 104.112L1256.73 101.232L1272.33 91.68L1256.73 82.128L1258.65 79.248L1275.54 89.712V93.648L1258.65 104.112ZM1272.81 93.36V90H1305.93V93.36H1272.81ZM3.072 189.088V185.728H40.416V189.088H3.072ZM40.416 197.632H3.072V194.272H40.416V197.632ZM34.512 189.088L50.352 179.248L52.32 182.128L40.944 189.088H34.512ZM50.352 204.112L41.904 198.88L34.512 194.272H40.944L44.496 196.48L52.32 201.232L50.352 204.112ZM67.968 204.112L51.072 193.648V189.712L67.968 179.248L69.888 182.128L54.288 191.68L69.888 201.232L67.968 204.112ZM100.072 189.088V185.728H131.032V189.088H100.072ZM131.032 197.632H100.072V194.272H131.032V197.632ZM125.08 189.088L140.968 179.248L142.888 182.128L131.56 189.088H125.08ZM140.968 204.112L126.904 195.376L125.08 194.272H131.56L142.888 201.232L140.968 204.112ZM173.072 189.088V185.728H204.032V189.088H173.072ZM204.032 197.632H173.072V194.272H204.032V197.632ZM214.928 204.688L197.072 193.648V189.712L214.928 178.672V187.408H211.184V184.96L200.288 191.68L211.184 198.4V195.952H214.928V204.688ZM211.184 189.088V185.728H238.928V189.088H211.184ZM211.184 197.632V194.272H238.928V197.632H211.184ZM287.928 204.688L270.072 193.648V189.712L287.928 178.672V187.408H284.184V184.96L273.288 191.68L284.184 198.4V195.952H287.928V204.688ZM284.184 189.088V185.728H311.928V189.088H284.184ZM284.184 197.632V194.272H311.928V197.632H284.184ZM311.544 189.088V185.728H335.928V189.088H311.544ZM311.544 197.632V194.272H335.928V197.632H311.544ZM384.928 204.688L367.072 193.648V189.712L384.928 178.672V187.408H381.184V184.96L370.288 191.68L381.184 198.4V195.952H384.928V204.688ZM381.184 189.088V185.728H408.928V189.088H381.184ZM381.184 197.632V194.272H408.928V197.632H381.184ZM408.544 189.088V185.728H432.928V189.088H408.544ZM408.544 197.632V194.272H432.928V197.632H408.544ZM432.544 189.088V185.728H456.928V189.088H432.544ZM432.544 197.632V194.272H456.928V197.632H432.544ZM504.968 204.112L488.072 193.648V189.712L504.968 179.248L506.888 182.128L491.288 191.68L506.888 201.232L504.968 204.112ZM523.544 204.688L505.688 193.648V189.712L523.544 178.672V187.408H519.8V184.96L508.904 191.68L519.8 198.4V195.952H523.544V204.688ZM519.8 189.088V185.728H553.928V189.088H519.8ZM519.8 197.632V194.272H553.928V197.632H519.8ZM622.224 200.272L589.2 189.472V185.92L622.224 175.12L623.376 178.288L594.624 187.696L623.376 197.056L622.224 200.272ZM622.224 208.24L589.2 197.44V193.888L623.376 205.072L622.224 208.24ZM658.072 189.088V185.728H685.816V189.088H658.072ZM685.816 197.632H658.072V194.272H685.816V197.632ZM682.072 204.688V195.952H685.816V198.4L696.712 191.68L685.816 184.96V187.408H682.072V178.672L699.928 189.712V193.648L682.072 204.688ZM731.072 189.088V185.728H765.2V189.088H731.072ZM765.2 197.632H731.072V194.272H765.2V197.632ZM761.456 204.688V195.952H765.2V198.4L776.096 191.68L765.2 184.96V187.408H761.456V178.672L779.312 189.712V193.648L761.456 204.688ZM780.032 204.112L778.112 201.232L793.712 191.68L778.112 182.128L780.032 179.248L796.928 189.712V193.648L780.032 204.112ZM828.072 189.088V185.728H852.456V189.088H828.072ZM828.072 197.632V194.272H852.456V197.632H828.072ZM852.072 189.088V185.728H879.816V189.088H852.072ZM879.816 197.632H852.072V194.272H879.816V197.632ZM876.072 204.688V195.952H879.816V198.4L890.712 191.68L879.816 184.96V187.408H876.072V178.672L893.928 189.712V193.648L876.072 204.688ZM925.072 189.088V185.728H949.456V189.088H925.072ZM925.072 197.632V194.272H949.456V197.632H925.072ZM949.072 189.088V185.728H973.456V189.088H949.072ZM949.072 197.632V194.272H973.456V197.632H949.072ZM973.072 189.088V185.728H1000.82V189.088H973.072ZM1000.82 197.632H973.072V194.272H1000.82V197.632ZM997.072 204.688V195.952H1000.82V198.4L1011.71 191.68L1000.82 184.96V187.408H997.072V178.672L1014.93 189.712V193.648L997.072 204.688ZM1046.07 189.088V185.728H1073.82V189.088H1046.07ZM1073.82 197.632H1046.07V194.272H1073.82V197.632ZM1070.07 204.688V195.952H1073.82V198.4L1084.71 191.68L1073.82 184.96V187.408H1070.07V178.672L1087.93 189.712V193.648L1070.07 204.688ZM1080.97 189.088V185.728H1111.93V189.088H1080.97ZM1111.93 197.632H1080.97V194.272H1111.93V197.632ZM1147.78 200.272L1146.62 197.056L1175.38 187.696L1146.62 178.288L1147.78 175.12L1180.8 185.92V189.472L1147.78 200.272ZM1147.78 208.24L1146.62 205.072L1180.8 193.888V197.44L1147.78 208.24ZM1217.03 204.112L1215.11 201.232L1230.71 191.68L1215.11 182.128L1217.03 179.248L1233.93 189.712V193.648L1217.03 204.112ZM1244.06 189.088L1232.68 182.128L1234.65 179.248L1250.49 189.088H1244.06ZM1234.65 204.112L1232.68 201.232L1244.06 194.272H1250.49L1238.01 202L1234.65 204.112ZM1244.58 189.088V185.728H1295.03V189.088H1244.58ZM1244.58 197.632V194.272H1295.03V197.632H1244.58ZM1289.08 189.088L1304.97 179.248L1306.89 182.128L1295.56 189.088H1289.08ZM1304.97 204.112L1290.9 195.376L1289.08 194.272H1295.56L1306.89 201.232L1304.97 204.112ZM3.072 293.36V290H42.192V293.36H3.072ZM28.032 304.112L26.112 301.232L41.712 291.68L26.112 282.128L28.032 279.248L44.928 289.712V293.648L28.032 304.112ZM98.068 304.112L81.172 293.648V289.712L98.068 279.248L99.988 282.128L84.388 291.68L99.988 301.232L98.068 304.112ZM83.908 293.36V290H126.484V293.36H83.908ZM125.716 293.36V290H168.292V293.36H125.716ZM154.132 304.112L152.212 301.232L167.812 291.68L152.212 282.128L154.132 279.248L171.028 289.712V293.648L154.132 304.112ZM224.168 304.112L207.272 293.648V289.712L224.168 279.248L226.088 282.128L210.488 291.68L226.088 301.232L224.168 304.112ZM210.008 293.36V290H249.128V293.36H210.008ZM248.744 293.36V290H276.584V293.36H248.744ZM275.816 293.36V290H318.392V293.36H275.816ZM304.232 304.112L302.312 301.232L317.912 291.68L302.312 282.128L304.232 279.248L321.128 289.712V293.648L304.232 304.112ZM374.268 304.112L357.372 293.648V289.712L374.268 279.248L376.188 282.128L360.588 291.68L376.188 301.232L374.268 304.112ZM360.108 293.36V290H399.228V293.36H360.108ZM398.844 293.36V290H423.228V293.36H398.844ZM422.844 293.36V290H450.684V293.36H422.844ZM449.916 293.36V290H492.492V293.36H449.916ZM478.332 304.112L476.412 301.232L492.012 291.68L476.412 282.128L478.332 279.248L495.228 289.712V293.648L478.332 304.112ZM549.328 304.688L531.472 293.648V289.712L549.328 278.672V287.408H545.584V284.96L534.688 291.68L545.584 298.4V295.952H549.328V304.688ZM545.584 289.088V285.728H583.216V289.088H545.584ZM545.584 297.632V294.272H583.216V297.632H545.584ZM579.472 304.688V295.952H583.216V298.4L594.112 291.68L583.216 284.96V287.408H579.472V278.672L597.328 289.712V293.648L579.472 304.688ZM651.428 304.688L633.572 293.648V289.712L651.428 278.672V287.408H647.684V284.96L636.788 291.68L647.684 298.4V295.952H651.428V304.688ZM647.684 289.088V285.728H678.884V289.088H647.684ZM647.684 297.632V294.272H678.884V297.632H647.684ZM678.116 289.088V285.728H709.316V289.088H678.116ZM709.316 297.632H678.116V294.272H709.316V297.632ZM705.572 304.688V295.952H709.316V298.4L720.212 291.68L709.316 284.96V287.408H705.572V278.672L723.428 289.712V293.648L705.572 304.688ZM777.528 304.688L759.672 293.648V289.712L777.528 278.672V287.408H773.784V284.96L762.888 291.68L773.784 298.4V295.952H777.528V304.688ZM773.784 289.088V285.728H801.528V289.088H773.784ZM773.784 297.632V294.272H801.528V297.632H773.784ZM801.144 289.088V285.728H828.984V289.088H801.144ZM801.144 297.632V294.272H828.984V297.632H801.144ZM828.216 289.088V285.728H859.416V289.088H828.216ZM859.416 297.632H828.216V294.272H859.416V297.632ZM855.672 304.688V295.952H859.416V298.4L870.312 291.68L859.416 284.96V287.408H855.672V278.672L873.528 289.712V293.648L855.672 304.688ZM927.628 304.688L909.772 293.648V289.712L927.628 278.672V287.408H923.884V284.96L912.988 291.68L923.884 298.4V295.952H927.628V304.688ZM923.884 289.088V285.728H951.628V289.088H923.884ZM923.884 297.632V294.272H951.628V297.632H923.884ZM951.244 289.088V285.728H975.628V289.088H951.244ZM951.244 297.632V294.272H975.628V297.632H951.244ZM975.244 289.088V285.728H1003.08V289.088H975.244ZM975.244 297.632V294.272H1003.08V297.632H975.244ZM1002.32 289.088V285.728H1033.52V289.088H1002.32ZM1033.52 297.632H1002.32V294.272H1033.52V297.632ZM1029.77 304.688V295.952H1033.52V298.4L1044.41 291.68L1033.52 284.96V287.408H1029.77V278.672L1047.63 289.712V293.648L1029.77 304.688ZM1094.24 308.384C1093.73 308.384 1093.23 308.304 1092.75 308.144C1092.27 308.016 1091.84 307.776 1091.46 307.424C1091.1 307.04 1090.85 306.608 1090.69 306.128C1090.56 305.648 1090.5 305.152 1090.5 304.64C1090.5 304.128 1090.56 303.632 1090.69 303.152C1090.85 302.672 1091.1 302.256 1091.46 301.904C1091.84 301.52 1092.27 301.264 1092.75 301.136C1093.23 300.976 1093.73 300.896 1094.24 300.896C1094.75 300.896 1095.25 300.976 1095.73 301.136C1096.21 301.264 1096.62 301.52 1096.98 301.904C1097.36 302.256 1097.62 302.672 1097.74 303.152C1097.9 303.632 1097.98 304.128 1097.98 304.64C1097.98 305.152 1097.9 305.648 1097.74 306.128C1097.62 306.608 1097.36 307.04 1096.98 307.424C1096.62 307.776 1096.21 308.016 1095.73 308.144C1095.25 308.304 1094.75 308.384 1094.24 308.384ZM1094.24 290.144C1093.73 290.144 1093.23 290.08 1092.75 289.952C1092.27 289.792 1091.84 289.536 1091.46 289.184C1091.1 288.8 1090.85 288.368 1090.69 287.888C1090.56 287.408 1090.5 286.912 1090.5 286.4C1090.5 285.888 1090.56 285.392 1090.69 284.912C1090.85 284.432 1091.1 284.016 1091.46 283.664C1091.84 283.28 1092.27 283.024 1092.75 282.896C1093.23 282.736 1093.73 282.656 1094.24 282.656C1094.75 282.656 1095.25 282.736 1095.73 282.896C1096.21 283.024 1096.62 283.28 1096.98 283.664C1097.36 284.016 1097.62 284.432 1097.74 284.912C1097.9 285.392 1097.98 285.888 1097.98 286.4C1097.98 286.912 1097.9 287.408 1097.74 287.888C1097.62 288.368 1097.36 288.8 1096.98 289.184C1096.62 289.536 1096.21 289.792 1095.73 289.952C1095.25 290.08 1094.75 290.144 1094.24 290.144ZM1115.36 308.384C1114.85 308.384 1114.35 308.304 1113.87 308.144C1113.39 308.016 1112.96 307.776 1112.58 307.424C1112.22 307.04 1111.97 306.608 1111.81 306.128C1111.68 305.648 1111.62 305.152 1111.62 304.64C1111.62 304.128 1111.68 303.632 1111.81 303.152C1111.97 302.672 1112.22 302.256 1112.58 301.904C1112.96 301.52 1113.39 301.264 1113.87 301.136C1114.35 300.976 1114.85 300.896 1115.36 300.896C1115.87 300.896 1116.37 300.976 1116.85 301.136C1117.33 301.264 1117.74 301.52 1118.1 301.904C1118.48 302.256 1118.74 302.672 1118.86 303.152C1119.02 303.632 1119.1 304.128 1119.1 304.64C1119.1 305.152 1119.02 305.648 1118.86 306.128C1118.74 306.608 1118.48 307.04 1118.1 307.424C1117.74 307.776 1117.33 308.016 1116.85 308.144C1116.37 308.304 1115.87 308.384 1115.36 308.384ZM1115.36 290.144C1114.85 290.144 1114.35 290.08 1113.87 289.952C1113.39 289.792 1112.96 289.536 1112.58 289.184C1112.22 288.8 1111.97 288.368 1111.81 287.888C1111.68 287.408 1111.62 286.912 1111.62 286.4C1111.62 285.888 1111.68 285.392 1111.81 284.912C1111.97 284.432 1112.22 284.016 1112.58 283.664C1112.96 283.28 1113.39 283.024 1113.87 282.896C1114.35 282.736 1114.85 282.656 1115.36 282.656C1115.87 282.656 1116.37 282.736 1116.85 282.896C1117.33 283.024 1117.74 283.28 1118.1 283.664C1118.48 284.016 1118.74 284.432 1118.86 284.912C1119.02 285.392 1119.1 285.888 1119.1 286.4C1119.1 286.912 1119.02 287.408 1118.86 287.888C1118.74 288.368 1118.48 288.8 1118.1 289.184C1117.74 289.536 1117.33 289.792 1116.85 289.952C1116.37 290.08 1115.87 290.144 1115.36 290.144ZM1173.78 308.384C1173.27 308.384 1172.77 308.304 1172.29 308.144C1171.81 308.016 1171.38 307.776 1171 307.424C1170.64 307.04 1170.39 306.608 1170.23 306.128C1170.1 305.648 1170.04 305.152 1170.04 304.64C1170.04 304.128 1170.1 303.632 1170.23 303.152C1170.39 302.672 1170.64 302.256 1171 301.904C1171.38 301.52 1171.81 301.264 1172.29 301.136C1172.77 300.976 1173.27 300.896 1173.78 300.896C1174.29 300.896 1174.79 300.976 1175.27 301.136C1175.75 301.264 1176.16 301.52 1176.52 301.904C1176.9 302.256 1177.16 302.672 1177.28 303.152C1177.44 303.632 1177.52 304.128 1177.52 304.64C1177.52 305.152 1177.44 305.648 1177.28 306.128C1177.16 306.608 1176.9 307.04 1176.52 307.424C1176.16 307.776 1175.75 308.016 1175.27 308.144C1174.79 308.304 1174.29 308.384 1173.78 308.384ZM1173.78 290.144C1173.27 290.144 1172.77 290.08 1172.29 289.952C1171.81 289.792 1171.38 289.536 1171 289.184C1170.64 288.8 1170.39 288.368 1170.23 287.888C1170.1 287.408 1170.04 286.912 1170.04 286.4C1170.04 285.888 1170.1 285.392 1170.23 284.912C1170.39 284.432 1170.64 284.016 1171 283.664C1171.38 283.28 1171.81 283.024 1172.29 282.896C1172.77 282.736 1173.27 282.656 1173.78 282.656C1174.29 282.656 1174.79 282.736 1175.27 282.896C1175.75 283.024 1176.16 283.28 1176.52 283.664C1176.9 284.016 1177.16 284.432 1177.28 284.912C1177.44 285.392 1177.52 285.888 1177.52 286.4C1177.52 286.912 1177.44 287.408 1177.28 287.888C1177.16 288.368 1176.9 288.8 1176.52 289.184C1176.16 289.536 1175.75 289.792 1175.27 289.952C1174.79 290.08 1174.29 290.144 1173.78 290.144ZM1194.9 308.384C1194.39 308.384 1193.89 308.304 1193.41 308.144C1192.93 308.016 1192.5 307.776 1192.12 307.424C1191.76 307.04 1191.51 306.608 1191.35 306.128C1191.22 305.648 1191.16 305.152 1191.16 304.64C1191.16 304.128 1191.22 303.632 1191.35 303.152C1191.51 302.672 1191.76 302.256 1192.12 301.904C1192.5 301.52 1192.93 301.264 1193.41 301.136C1193.89 300.976 1194.39 300.896 1194.9 300.896C1195.41 300.896 1195.91 300.976 1196.39 301.136C1196.87 301.264 1197.28 301.52 1197.64 301.904C1198.02 302.256 1198.28 302.672 1198.4 303.152C1198.56 303.632 1198.64 304.128 1198.64 304.64C1198.64 305.152 1198.56 305.648 1198.4 306.128C1198.28 306.608 1198.02 307.04 1197.64 307.424C1197.28 307.776 1196.87 308.016 1196.39 308.144C1195.91 308.304 1195.41 308.384 1194.9 308.384ZM1194.9 290.144C1194.39 290.144 1193.89 290.08 1193.41 289.952C1192.93 289.792 1192.5 289.536 1192.12 289.184C1191.76 288.8 1191.51 288.368 1191.35 287.888C1191.22 287.408 1191.16 286.912 1191.16 286.4C1191.16 285.888 1191.22 285.392 1191.35 284.912C1191.51 284.432 1191.76 284.016 1192.12 283.664C1192.5 283.28 1192.93 283.024 1193.41 282.896C1193.89 282.736 1194.39 282.656 1194.9 282.656C1195.41 282.656 1195.91 282.736 1196.39 282.896C1196.87 283.024 1197.28 283.28 1197.64 283.664C1198.02 284.016 1198.28 284.432 1198.4 284.912C1198.56 285.392 1198.64 285.888 1198.64 286.4C1198.64 286.912 1198.56 287.408 1198.4 287.888C1198.28 288.368 1198.02 288.8 1197.64 289.184C1197.28 289.536 1196.87 289.792 1196.39 289.952C1195.91 290.08 1195.41 290.144 1194.9 290.144ZM1216.02 308.384C1215.51 308.384 1215.01 308.304 1214.53 308.144C1214.05 308.016 1213.62 307.776 1213.24 307.424C1212.88 307.04 1212.63 306.608 1212.47 306.128C1212.34 305.648 1212.28 305.152 1212.28 304.64C1212.28 304.128 1212.34 303.632 1212.47 303.152C1212.63 302.672 1212.88 302.256 1213.24 301.904C1213.62 301.52 1214.05 301.264 1214.53 301.136C1215.01 300.976 1215.51 300.896 1216.02 300.896C1216.53 300.896 1217.03 300.976 1217.51 301.136C1217.99 301.264 1218.4 301.52 1218.76 301.904C1219.14 302.256 1219.4 302.672 1219.52 303.152C1219.68 303.632 1219.76 304.128 1219.76 304.64C1219.76 305.152 1219.68 305.648 1219.52 306.128C1219.4 306.608 1219.14 307.04 1218.76 307.424C1218.4 307.776 1217.99 308.016 1217.51 308.144C1217.03 308.304 1216.53 308.384 1216.02 308.384ZM1216.02 290.144C1215.51 290.144 1215.01 290.08 1214.53 289.952C1214.05 289.792 1213.62 289.536 1213.24 289.184C1212.88 288.8 1212.63 288.368 1212.47 287.888C1212.34 287.408 1212.28 286.912 1212.28 286.4C1212.28 285.888 1212.34 285.392 1212.47 284.912C1212.63 284.432 1212.88 284.016 1213.24 283.664C1213.62 283.28 1214.05 283.024 1214.53 282.896C1215.01 282.736 1215.51 282.656 1216.02 282.656C1216.53 282.656 1217.03 282.736 1217.51 282.896C1217.99 283.024 1218.4 283.28 1218.76 283.664C1219.14 284.016 1219.4 284.432 1219.52 284.912C1219.68 285.392 1219.76 285.888 1219.76 286.4C1219.76 286.912 1219.68 287.408 1219.52 287.888C1219.4 288.368 1219.14 288.8 1218.76 289.184C1218.4 289.536 1217.99 289.792 1217.51 289.952C1217.03 290.08 1216.53 290.144 1216.02 290.144ZM1264.07 318.32V314.96H1281.93V318.32H1264.07ZM1281.54 318.32V314.96H1305.93V318.32H1281.54ZM19.968 404.112L3.072 393.648V389.712L19.968 379.248L21.888 382.128L6.288 391.68L21.888 401.232L19.968 404.112ZM24 395.952C22.976 395.952 21.968 395.856 20.976 395.664C19.952 395.44 18.944 395.216 17.952 394.992C16.96 394.736 15.968 394.496 14.976 394.272C13.952 394.016 12.944 393.824 11.952 393.696C10.928 393.568 9.904 393.488 8.88 393.456C7.856 393.392 6.832 393.36 5.808 393.36V390C6.832 390 7.856 390.016 8.88 390.048C9.904 390.08 10.928 390.176 11.952 390.336C12.944 390.464 13.952 390.64 14.976 390.864C15.968 391.056 16.96 391.28 17.952 391.536C18.944 391.792 19.952 392.032 20.976 392.256C21.968 392.48 22.976 392.592 24 392.592C24.448 392.592 24.88 392.56 25.296 392.496C25.744 392.432 26.16 392.304 26.544 392.112C26.96 391.92 27.328 391.68 27.648 391.392C28 391.104 28.336 390.816 28.656 390.528V390.48C29.168 390.032 29.696 389.6 30.24 389.184C30.784 388.768 31.36 388.416 31.968 388.128C32.608 387.84 33.264 387.648 33.936 387.552C34.64 387.456 35.328 387.408 36 387.408C36.672 387.408 37.344 387.456 38.016 387.552C38.688 387.648 39.328 387.84 39.936 388.128C40.576 388.384 41.152 388.72 41.664 389.136C42.208 389.552 42.736 389.984 43.248 390.432L40.752 392.928C40.432 392.64 40.096 392.352 39.744 392.064C39.392 391.744 39.008 391.488 38.592 391.296C38.208 391.072 37.792 390.928 37.344 390.864C36.896 390.8 36.448 390.768 36 390.768C35.552 390.768 35.104 390.8 34.656 390.864C34.24 390.928 33.824 391.056 33.408 391.248C33.024 391.44 32.656 391.68 32.304 391.968C31.984 392.256 31.664 392.544 31.344 392.832V392.88C30.832 393.328 30.304 393.76 29.76 394.176C29.216 394.592 28.624 394.944 27.984 395.232C27.376 395.52 26.72 395.712 26.016 395.808C25.344 395.904 24.672 395.952 24 395.952ZM48 395.952C47.328 395.952 46.656 395.904 45.984 395.808C45.312 395.712 44.672 395.536 44.064 395.28C43.424 394.992 42.848 394.64 42.336 394.224C41.792 393.808 41.264 393.376 40.752 392.928L43.248 390.432C43.568 390.72 43.904 391.024 44.256 391.344C44.608 391.632 44.992 391.888 45.408 392.112C45.792 392.304 46.208 392.432 46.656 392.496C47.104 392.56 47.552 392.592 48 392.592C48.448 392.592 48.88 392.56 49.296 392.496C49.744 392.432 50.16 392.304 50.544 392.112C50.96 391.92 51.328 391.68 51.648 391.392C52 391.104 52.336 390.816 52.656 390.528V390.48C53.168 390.032 53.696 389.6 54.24 389.184C54.784 388.768 55.36 388.416 55.968 388.128C56.608 387.84 57.264 387.648 57.936 387.552C58.64 387.456 59.328 387.408 60 387.408C60.672 387.408 61.344 387.456 62.016 387.552C62.688 387.648 63.328 387.84 63.936 388.128C64.576 388.384 65.152 388.72 65.664 389.136C66.208 389.552 66.736 389.984 67.248 390.432L64.752 392.928C64.432 392.64 64.096 392.352 63.744 392.064C63.392 391.744 63.008 391.488 62.592 391.296C62.208 391.072 61.792 390.928 61.344 390.864C60.896 390.8 60.448 390.768 60 390.768C59.552 390.768 59.104 390.8 58.656 390.864C58.24 390.928 57.824 391.056 57.408 391.248C57.024 391.44 56.656 391.68 56.304 391.968C55.984 392.256 55.664 392.544 55.344 392.832V392.88C54.832 393.328 54.304 393.76 53.76 394.176C53.216 394.592 52.624 394.944 51.984 395.232C51.376 395.52 50.72 395.712 50.016 395.808C49.344 395.904 48.672 395.952 48 395.952ZM128.787 410.352L101.715 393.648V389.712L118.611 379.248L120.531 382.128L104.931 391.68L129.843 406.992L128.787 410.352ZM125.475 414.864L139.971 368.496H143.811L129.315 414.864H125.475ZM203.43 410.352L176.358 393.648V389.712L193.254 379.248L195.174 382.128L179.574 391.68L204.486 406.992L203.43 410.352ZM200.118 414.864L214.614 368.496H218.454L203.958 414.864H200.118ZM225.318 404.112L223.398 401.232L238.998 391.68L214.086 376.368L215.142 373.008L242.214 389.712V393.648L225.318 404.112ZM274.761 414.864L289.257 368.496H293.097L278.601 414.864H274.761ZM299.961 404.112L298.041 401.232L313.641 391.68L288.729 376.368L289.785 373.008L316.857 389.712V393.648L299.961 404.112ZM370.571 395.952C369.899 395.952 369.211 395.904 368.507 395.808C367.835 395.712 367.179 395.52 366.539 395.232C365.931 394.944 365.355 394.592 364.811 394.176C364.267 393.76 363.739 393.328 363.227 392.88V392.832C362.907 392.544 362.571 392.256 362.219 391.968C361.899 391.68 361.531 391.44 361.115 391.248C360.731 391.056 360.315 390.928 359.867 390.864C359.451 390.8 359.019 390.768 358.571 390.768C358.123 390.768 357.675 390.8 357.227 390.864C356.779 390.928 356.347 391.072 355.931 391.296C355.547 391.488 355.179 391.744 354.827 392.064C354.475 392.352 354.139 392.64 353.819 392.928L351.323 390.432C351.835 389.984 352.347 389.552 352.859 389.136C353.403 388.72 353.979 388.384 354.587 388.128C355.227 387.84 355.883 387.648 356.555 387.552C357.227 387.456 357.899 387.408 358.571 387.408C359.243 387.408 359.915 387.456 360.587 387.552C361.291 387.648 361.947 387.84 362.555 388.128C363.195 388.416 363.787 388.768 364.331 389.184C364.875 389.6 365.403 390.032 365.915 390.48V390.528C366.235 390.816 366.555 391.104 366.875 391.392C367.227 391.68 367.595 391.92 367.979 392.112C368.395 392.304 368.811 392.432 369.227 392.496C369.675 392.56 370.123 392.592 370.571 392.592C371.019 392.592 371.467 392.56 371.915 392.496C372.363 392.432 372.779 392.304 373.163 392.112C373.579 391.888 373.963 391.632 374.315 391.344C374.667 391.024 375.003 390.72 375.323 390.432L377.819 392.928C377.307 393.376 376.779 393.808 376.235 394.224C375.723 394.64 375.147 394.992 374.507 395.28C373.899 395.536 373.259 395.712 372.587 395.808C371.915 395.904 371.243 395.952 370.571 395.952ZM394.571 395.952C393.899 395.952 393.211 395.904 392.507 395.808C391.835 395.712 391.179 395.52 390.539 395.232C389.931 394.944 389.355 394.592 388.811 394.176C388.267 393.76 387.739 393.328 387.227 392.88V392.832C386.907 392.544 386.571 392.256 386.219 391.968C385.899 391.68 385.531 391.44 385.115 391.248C384.731 391.056 384.315 390.928 383.867 390.864C383.451 390.8 383.019 390.768 382.571 390.768C382.123 390.768 381.675 390.8 381.227 390.864C380.779 390.928 380.347 391.072 379.931 391.296C379.547 391.488 379.179 391.744 378.827 392.064C378.475 392.352 378.139 392.64 377.819 392.928L375.323 390.432C375.835 389.984 376.347 389.552 376.859 389.136C377.403 388.72 377.979 388.384 378.587 388.128C379.227 387.84 379.883 387.648 380.555 387.552C381.227 387.456 381.899 387.408 382.571 387.408C383.243 387.408 383.915 387.456 384.587 387.552C385.291 387.648 385.947 387.84 386.555 388.128C387.195 388.416 387.787 388.768 388.331 389.184C388.875 389.6 389.403 390.032 389.915 390.48V390.528C390.235 390.816 390.555 391.104 390.875 391.392C391.227 391.68 391.595 391.92 391.979 392.112C392.395 392.304 392.811 392.432 393.227 392.496C393.675 392.56 394.123 392.592 394.571 392.592C395.595 392.592 396.603 392.48 397.595 392.256C398.619 392.032 399.627 391.792 400.619 391.536C401.611 391.28 402.603 391.056 403.595 390.864C404.619 390.64 405.627 390.464 406.619 390.336C407.643 390.176 408.667 390.08 409.691 390.048C410.715 390.016 411.739 390 412.763 390V393.36C411.739 393.36 410.715 393.392 409.691 393.456C408.667 393.488 407.643 393.568 406.619 393.696C405.627 393.824 404.619 394.016 403.595 394.272C402.603 394.496 401.611 394.736 400.619 394.992C399.627 395.216 398.619 395.44 397.595 395.664C396.603 395.856 395.595 395.952 394.571 395.952ZM398.603 404.112L396.683 401.232L412.283 391.68L396.683 382.128L398.603 379.248L415.499 389.712V393.648L398.603 404.112ZM448.286 389.088V385.728H469.598V389.088H448.286ZM469.598 397.632H448.286V394.272H469.598V397.632ZM468.83 389.088V385.728H490.142V389.088H468.83ZM490.142 397.632H468.83V394.272H490.142V397.632ZM538.241 411.888L534.737 410.736L549.473 371.472L552.977 372.624L538.241 411.888ZM522.929 389.088V385.728H564.785V389.088H522.929ZM522.929 397.632V394.272H564.785V397.632H522.929ZM597.332 414.864L611.828 368.496H615.668L601.172 414.864H597.332ZM621.572 389.088V385.728H639.428V389.088H621.572ZM639.428 397.632H621.572V394.272H639.428V397.632ZM684.647 399.12C684.391 399.12 684.151 399.104 683.927 399.072C683.703 399.008 683.479 398.944 683.255 398.88C683.063 398.816 682.871 398.72 682.679 398.592C682.487 398.464 682.311 398.336 682.151 398.208C681.991 398.048 681.831 397.904 681.671 397.776C681.543 397.616 681.399 397.456 681.239 397.296C681.111 397.104 680.983 396.912 680.855 396.72C680.727 396.528 680.599 396.352 680.471 396.192C680.343 396 680.215 395.808 680.087 395.616C679.991 395.424 679.879 395.232 679.751 395.04C679.655 394.848 679.543 394.64 679.415 394.416C679.287 394.192 679.159 393.984 679.031 393.792C678.935 393.568 678.823 393.36 678.695 393.168C678.567 392.976 678.439 392.8 678.311 392.64C678.215 392.48 678.055 392.32 677.831 392.16C677.639 391.968 677.543 391.824 677.543 391.728H677.783C677.783 391.76 677.703 391.84 677.543 391.968C677.415 392.096 677.287 392.24 677.159 392.4C677.031 392.528 676.919 392.672 676.823 392.832C676.727 392.96 676.647 393.072 676.583 393.168C676.519 393.264 676.455 393.376 676.391 393.504C676.359 393.6 676.311 393.712 676.247 393.84C676.183 393.936 676.103 394.048 676.007 394.176C675.943 394.304 675.879 394.448 675.815 394.608C675.751 394.736 675.687 394.88 675.623 395.04C675.559 395.168 675.479 395.312 675.383 395.472C675.319 395.632 675.239 395.808 675.143 396C675.079 396.16 674.999 396.336 674.903 396.528C674.839 396.688 674.759 396.864 674.663 397.056C674.599 397.248 674.519 397.456 674.423 397.68C674.359 397.872 674.279 398.08 674.183 398.304C674.119 398.528 674.039 398.752 673.943 398.976L670.487 397.824C670.615 397.44 670.743 397.088 670.871 396.768C670.999 396.416 671.127 396.08 671.255 395.76C671.415 395.44 671.559 395.136 671.687 394.848C671.815 394.528 671.927 394.24 672.023 393.984C672.151 393.696 672.279 393.44 672.407 393.216C672.535 392.96 672.663 392.72 672.791 392.496C672.919 392.272 673.031 392.064 673.127 391.872C673.255 391.648 673.383 391.44 673.511 391.248C673.639 391.056 673.799 390.832 673.991 390.576C674.183 390.32 674.375 390.096 674.567 389.904C674.791 389.68 674.999 389.488 675.191 389.328C675.415 389.136 675.655 388.976 675.911 388.848C676.199 388.688 676.487 388.576 676.775 388.512C677.063 388.416 677.351 388.368 677.639 388.368C677.895 388.368 678.135 388.4 678.359 388.464C678.583 388.496 678.791 388.56 678.983 388.656C679.207 388.72 679.415 388.816 679.607 388.944C679.799 389.04 679.975 389.168 680.135 389.328C680.295 389.456 680.439 389.6 680.567 389.76C680.727 389.92 680.871 390.096 680.999 390.288C681.159 390.448 681.303 390.624 681.431 390.816C681.559 390.976 681.687 391.152 681.815 391.344C681.943 391.536 682.055 391.728 682.151 391.92C682.279 392.112 682.391 392.304 682.487 392.496C682.615 392.688 682.743 392.896 682.871 393.12C682.999 393.312 683.111 393.52 683.207 393.744C683.335 393.936 683.463 394.128 683.591 394.32C683.719 394.512 683.831 394.688 683.927 394.848C684.055 395.008 684.215 395.184 684.407 395.376C684.631 395.568 684.743 395.696 684.743 395.76C684.743 395.792 684.743 395.808 684.743 395.808L684.695 395.76C684.663 395.76 684.631 395.76 684.599 395.76H684.503L684.743 395.568C684.871 395.44 684.999 395.312 685.127 395.184C685.255 395.024 685.367 394.864 685.463 394.704C685.559 394.544 685.639 394.416 685.703 394.32C685.767 394.224 685.815 394.128 685.847 394.032C685.911 393.936 685.975 393.824 686.039 393.696C686.103 393.568 686.167 393.44 686.231 393.312C686.327 393.184 686.407 393.056 686.471 392.928C686.535 392.8 686.599 392.656 686.663 392.496C686.727 392.336 686.791 392.176 686.855 392.016C686.951 391.856 687.031 391.696 687.095 391.536C687.191 391.376 687.271 391.2 687.335 391.008C687.431 390.816 687.511 390.624 687.575 390.432C687.671 390.24 687.751 390.048 687.815 389.856C687.911 389.632 687.991 389.424 688.055 389.232C688.151 389.008 688.247 388.768 688.343 388.512L691.799 389.712C691.671 390.064 691.543 390.416 691.415 390.768C691.287 391.12 691.143 391.456 690.983 391.776C690.855 392.096 690.727 392.4 690.599 392.688C690.471 392.976 690.343 393.264 690.215 393.552C690.119 393.808 690.007 394.064 689.879 394.32C689.751 394.576 689.623 394.816 689.495 395.04C689.367 395.264 689.239 395.472 689.111 395.664C689.015 395.856 688.903 396.048 688.775 396.24C688.647 396.432 688.487 396.656 688.295 396.912C688.103 397.168 687.895 397.408 687.671 397.632C687.479 397.856 687.271 398.064 687.047 398.256C686.855 398.416 686.615 398.56 686.327 398.688C686.071 398.816 685.799 398.928 685.511 399.024C685.223 399.088 684.935 399.12 684.647 399.12ZM696.215 389.088V385.728H714.071V389.088H696.215ZM714.071 397.632H696.215V394.272H714.071V397.632ZM767.786 406.56L746.858 393.648V389.712L767.786 376.8L771.05 378.816L750.074 391.68L771.05 404.544L767.786 406.56ZM767.786 406.56L764.522 404.544L767.786 402.576L785.498 391.68L764.522 378.816L767.786 376.8L788.714 389.712V393.648L767.786 406.56ZM821.501 389.088V385.728H842.813V389.088H821.501ZM842.813 397.632H821.501V394.272H842.813V397.632ZM842.045 389.088V385.728H866.813V389.088H842.045ZM866.813 397.632H842.045V394.272H866.813V397.632ZM866.045 389.088V385.728H887.357V389.088H866.045ZM887.357 397.632H866.045V394.272H887.357V397.632ZM947.455 411.888L943.951 410.736L958.687 371.472L962.191 372.624L947.455 411.888ZM920.143 389.088V385.728H965.455V389.088H920.143ZM920.143 397.632V394.272H965.455V397.632H920.143ZM964.687 389.088V385.728H985.999V389.088H964.687ZM985.999 397.632H964.687V394.272H985.999V397.632ZM1058.1 411.888L1054.59 410.736L1069.33 371.472L1072.83 372.624L1058.1 411.888ZM1018.79 389.088V385.728H1064.1V389.088H1018.79ZM1018.79 397.632V394.272H1064.1V397.632H1018.79ZM1063.33 389.088V385.728H1088.1V389.088H1063.33ZM1088.1 397.632H1063.33V394.272H1088.1V397.632ZM1087.33 389.088V385.728H1108.64V389.088H1087.33ZM1108.64 397.632H1087.33V394.272H1108.64V397.632ZM1141.43 389.088V385.728H1159.29V389.088H1141.43ZM1159.29 397.632H1141.43V394.272H1159.29V397.632ZM1165.19 414.864L1179.69 368.496H1183.53L1169.03 414.864H1165.19ZM1189.43 389.088V385.728H1207.29V389.088H1189.43ZM1207.29 397.632H1189.43V394.272H1207.29V397.632ZM1240.07 389.088V385.728H1257.93V389.088H1240.07ZM1257.93 397.632H1240.07V394.272H1257.93V397.632ZM1271.13 395.52V372.72H1274.87V395.52H1271.13ZM1273 408.384C1272.55 408.384 1272.1 408.32 1271.66 408.192C1271.21 408.064 1270.82 407.84 1270.5 407.52C1270.18 407.168 1269.96 406.784 1269.83 406.368C1269.7 405.92 1269.64 405.456 1269.64 404.976C1269.64 404.528 1269.7 404.096 1269.83 403.68C1269.96 403.232 1270.18 402.848 1270.5 402.528C1270.82 402.176 1271.21 401.936 1271.66 401.808C1272.1 401.68 1272.55 401.616 1273 401.616C1273.45 401.616 1273.9 401.68 1274.34 401.808C1274.79 401.936 1275.18 402.176 1275.5 402.528C1275.82 402.848 1276.04 403.232 1276.17 403.68C1276.33 404.096 1276.41 404.528 1276.41 404.976C1276.41 405.456 1276.33 405.92 1276.17 406.368C1276.04 406.784 1275.82 407.168 1275.5 407.52C1275.18 407.84 1274.79 408.064 1274.34 408.192C1273.9 408.32 1273.45 408.384 1273 408.384ZM1288.07 389.088V385.728H1305.93V389.088H1288.07ZM1305.93 397.632H1288.07V394.272H1305.93V397.632ZM19.968 504.112L3.072 493.648V489.712L19.968 479.248L21.888 482.128L6.288 491.68L21.888 501.232L19.968 504.112ZM36 504.544C35.488 504.544 34.992 504.48 34.512 504.352C34.032 504.192 33.6 503.936 33.216 503.584C32.864 503.2 32.608 502.768 32.448 502.288C32.32 501.808 32.256 501.312 32.256 500.8C32.256 500.288 32.32 499.792 32.448 499.312C32.608 498.832 32.864 498.416 33.216 498.064C33.6 497.68 34.032 497.424 34.512 497.296C34.992 497.136 35.488 497.056 36 497.056C36.512 497.056 37.008 497.136 37.488 497.296C37.968 497.424 38.384 497.68 38.736 498.064C39.12 498.416 39.376 498.832 39.504 499.312C39.664 499.792 39.744 500.288 39.744 500.8C39.744 501.312 39.664 501.808 39.504 502.288C39.376 502.768 39.12 503.2 38.736 503.584C38.384 503.936 37.968 504.192 37.488 504.352C37.008 504.48 36.512 504.544 36 504.544ZM36 486.304C35.488 486.304 34.992 486.24 34.512 486.112C34.032 485.952 33.6 485.696 33.216 485.344C32.864 484.96 32.608 484.528 32.448 484.048C32.32 483.568 32.256 483.072 32.256 482.56C32.256 482.048 32.32 481.552 32.448 481.072C32.608 480.592 32.864 480.176 33.216 479.824C33.6 479.44 34.032 479.184 34.512 479.056C34.992 478.896 35.488 478.816 36 478.816C36.512 478.816 37.008 478.896 37.488 479.056C37.968 479.184 38.384 479.44 38.736 479.824C39.12 480.176 39.376 480.592 39.504 481.072C39.664 481.552 39.744 482.048 39.744 482.56C39.744 483.072 39.664 483.568 39.504 484.048C39.376 484.528 39.12 484.96 38.736 485.344C38.384 485.696 37.968 485.952 37.488 486.112C37.008 486.24 36.512 486.304 36 486.304ZM86.3125 504.544C85.8005 504.544 85.3045 504.48 84.8245 504.352C84.3445 504.192 83.9125 503.936 83.5285 503.584C83.1765 503.2 82.9205 502.768 82.7605 502.288C82.6325 501.808 82.5685 501.312 82.5685 500.8C82.5685 500.288 82.6325 499.792 82.7605 499.312C82.9205 498.832 83.1765 498.416 83.5285 498.064C83.9125 497.68 84.3445 497.424 84.8245 497.296C85.3045 497.136 85.8005 497.056 86.3125 497.056C86.8245 497.056 87.3205 497.136 87.8005 497.296C88.2805 497.424 88.6965 497.68 89.0485 498.064C89.4325 498.416 89.6885 498.832 89.8165 499.312C89.9765 499.792 90.0565 500.288 90.0565 500.8C90.0565 501.312 89.9765 501.808 89.8165 502.288C89.6885 502.768 89.4325 503.2 89.0485 503.584C88.6965 503.936 88.2805 504.192 87.8005 504.352C87.3205 504.48 86.8245 504.544 86.3125 504.544ZM86.3125 486.304C85.8005 486.304 85.3045 486.24 84.8245 486.112C84.3445 485.952 83.9125 485.696 83.5285 485.344C83.1765 484.96 82.9205 484.528 82.7605 484.048C82.6325 483.568 82.5685 483.072 82.5685 482.56C82.5685 482.048 82.6325 481.552 82.7605 481.072C82.9205 480.592 83.1765 480.176 83.5285 479.824C83.9125 479.44 84.3445 479.184 84.8245 479.056C85.3045 478.896 85.8005 478.816 86.3125 478.816C86.8245 478.816 87.3205 478.896 87.8005 479.056C88.2805 479.184 88.6965 479.44 89.0485 479.824C89.4325 480.176 89.6885 480.592 89.8165 481.072C89.9765 481.552 90.0565 482.048 90.0565 482.56C90.0565 483.072 89.9765 483.568 89.8165 484.048C89.6885 484.528 89.4325 484.96 89.0485 485.344C88.6965 485.696 88.2805 485.952 87.8005 486.112C87.3205 486.24 86.8245 486.304 86.3125 486.304ZM101.385 489.088V485.728H119.241V489.088H101.385ZM119.241 497.632H101.385V494.272H119.241V497.632ZM156.209 500.8L153.185 498.832L158.225 492.4L150.449 490.144L151.601 486.976L159.041 489.664L158.753 481.6H162.497L162.209 489.664L169.649 486.976L170.801 490.144L163.025 492.4L168.065 498.832L165.041 500.8L160.625 494.272L156.209 500.8ZM175.697 489.088V485.728H193.553V489.088H175.697ZM193.553 497.632H175.697V494.272H193.553V497.632ZM230.522 500.8L227.498 498.832L232.538 492.4L224.762 490.144L225.914 486.976L233.354 489.664L233.066 481.6H236.81L236.522 489.664L243.962 486.976L245.114 490.144L237.338 492.4L242.378 498.832L239.354 500.8L234.938 494.272L230.522 500.8ZM260.81 500.944H257.066V493.36H250.01V490H257.066V482.416H260.81V490H267.866V493.36H260.81V500.944ZM317.218 504.112L300.322 493.648V489.712L317.218 479.248L319.138 482.128L303.538 491.68L319.138 501.232L317.218 504.112ZM328.834 500.8L325.81 498.832L330.85 492.4L323.074 490.144L324.226 486.976L331.666 489.664L331.378 481.6H335.122L334.834 489.664L342.274 486.976L343.426 490.144L335.65 492.4L340.69 498.832L337.666 500.8L333.25 494.272L328.834 500.8ZM391.531 504.112L374.635 493.648V489.712L391.531 479.248L393.451 482.128L377.851 491.68L393.451 501.232L391.531 504.112ZM403.147 500.8L400.123 498.832L405.163 492.4L397.387 490.144L398.539 486.976L405.979 489.664L405.691 481.6H409.435L409.147 489.664L416.587 486.976L417.739 490.144L409.963 492.4L415.003 498.832L411.979 500.8L407.562 494.272L403.147 500.8ZM423.595 504.112L421.675 501.232L437.275 491.68L421.675 482.128L423.595 479.248L440.491 489.712V493.648L423.595 504.112ZM477.459 500.8L474.435 498.832L479.475 492.4L471.699 490.144L472.851 486.976L480.291 489.664L480.003 481.6H483.747L483.459 489.664L490.899 486.976L492.051 490.144L484.275 492.4L489.315 498.832L486.291 500.8L481.875 494.272L477.459 500.8ZM497.907 504.112L495.987 501.232L511.587 491.68L495.987 482.128L497.907 479.248L514.803 489.712V493.648L497.907 504.112ZM573.612 508.096L550.236 493.648V489.712L573.612 475.264L575.58 478.144L553.452 491.68L575.58 505.216L573.612 508.096ZM582.06 510.016H578.316V473.344H582.06V510.016ZM647.924 508.096L624.548 493.648V489.712L647.924 475.264L649.892 478.144L627.764 491.68L649.892 505.216L647.924 508.096ZM656.372 510.016H652.628V473.344H656.372V510.016ZM661.076 508.096L659.108 505.216L681.236 491.68L659.108 478.144L661.076 475.264L684.452 489.712V493.648L661.076 508.096ZM730.685 510.016H726.941V473.344H730.685V510.016ZM735.388 508.096L733.42 505.216L755.549 491.68L733.42 478.144L735.388 475.264L758.765 489.712V493.648L735.388 508.096ZM811.093 504.112L794.197 493.648V489.712L811.093 479.248L813.013 482.128L797.413 491.68L813.013 501.232L811.093 504.112ZM827.125 495.424C826.613 495.424 826.117 495.36 825.637 495.232C825.157 495.072 824.725 494.816 824.341 494.464C823.989 494.08 823.733 493.648 823.573 493.168C823.445 492.688 823.381 492.192 823.381 491.68C823.381 491.168 823.445 490.672 823.573 490.192C823.733 489.712 823.989 489.296 824.341 488.944C824.725 488.56 825.157 488.304 825.637 488.176C826.117 488.016 826.613 487.936 827.125 487.936C827.637 487.936 828.133 488.016 828.613 488.176C829.093 488.304 829.509 488.56 829.861 488.944C830.245 489.296 830.501 489.712 830.629 490.192C830.789 490.672 830.869 491.168 830.869 491.68C830.869 492.192 830.789 492.688 830.629 493.168C830.501 493.648 830.245 494.08 829.861 494.464C829.509 494.816 829.093 495.072 828.613 495.232C828.133 495.36 827.637 495.424 827.125 495.424ZM885.406 504.112L868.51 493.648V489.712L885.406 479.248L887.326 482.128L871.726 491.68L887.326 501.232L885.406 504.112ZM901.438 495.424C900.926 495.424 900.43 495.36 899.95 495.232C899.47 495.072 899.038 494.816 898.654 494.464C898.302 494.08 898.046 493.648 897.886 493.168C897.758 492.688 897.694 492.192 897.694 491.68C897.694 491.168 897.758 490.672 897.886 490.192C898.046 489.712 898.302 489.296 898.654 488.944C899.038 488.56 899.47 488.304 899.95 488.176C900.43 488.016 900.926 487.936 901.438 487.936C901.95 487.936 902.446 488.016 902.926 488.176C903.406 488.304 903.822 488.56 904.174 488.944C904.558 489.296 904.814 489.712 904.942 490.192C905.102 490.672 905.182 491.168 905.182 491.68C905.182 492.192 905.102 492.688 904.942 493.168C904.814 493.648 904.558 494.08 904.174 494.464C903.822 494.816 903.406 495.072 902.926 495.232C902.446 495.36 901.95 495.424 901.438 495.424ZM917.47 504.112L915.55 501.232L931.15 491.68L915.55 482.128L917.47 479.248L934.366 489.712V493.648L917.47 504.112ZM975.75 495.424C975.238 495.424 974.742 495.36 974.262 495.232C973.782 495.072 973.35 494.816 972.966 494.464C972.614 494.08 972.358 493.648 972.198 493.168C972.07 492.688 972.006 492.192 972.006 491.68C972.006 491.168 972.07 490.672 972.198 490.192C972.358 489.712 972.614 489.296 972.966 488.944C973.35 488.56 973.782 488.304 974.262 488.176C974.742 488.016 975.238 487.936 975.75 487.936C976.262 487.936 976.758 488.016 977.238 488.176C977.718 488.304 978.134 488.56 978.486 488.944C978.87 489.296 979.126 489.712 979.254 490.192C979.414 490.672 979.494 491.168 979.494 491.68C979.494 492.192 979.414 492.688 979.254 493.168C979.126 493.648 978.87 494.08 978.486 494.464C978.134 494.816 977.718 495.072 977.238 495.232C976.758 495.36 976.262 495.424 975.75 495.424ZM991.782 504.112L989.862 501.232L1005.46 491.68L989.862 482.128L991.782 479.248L1008.68 489.712V493.648L991.782 504.112ZM1051.93 500.944H1048.19V493.36H1041.13V490H1048.19V482.416H1051.93V490H1058.99V493.36H1051.93V500.944ZM1069.65 500.8L1066.62 498.832L1071.66 492.4L1063.89 490.144L1065.04 486.976L1072.48 489.664L1072.19 481.6H1075.93L1075.65 489.664L1083.09 486.976L1084.24 490.144L1076.46 492.4L1081.5 498.832L1078.48 500.8L1074.06 494.272L1069.65 500.8ZM1115.45 489.088V485.728H1133.3V489.088H1115.45ZM1133.3 497.632H1115.45V494.272H1133.3V497.632ZM1143.96 500.8L1140.94 498.832L1145.98 492.4L1138.2 490.144L1139.35 486.976L1146.79 489.664L1146.5 481.6H1150.25L1149.96 489.664L1157.4 486.976L1158.55 490.144L1150.78 492.4L1155.82 498.832L1152.79 500.8L1148.38 494.272L1143.96 500.8ZM1189.76 489.088V485.728H1207.62V489.088H1189.76ZM1207.62 497.632H1189.76V494.272H1207.62V497.632ZM1222.69 504.544C1222.18 504.544 1221.68 504.48 1221.2 504.352C1220.72 504.192 1220.29 503.936 1219.9 503.584C1219.55 503.2 1219.3 502.768 1219.14 502.288C1219.01 501.808 1218.94 501.312 1218.94 500.8C1218.94 500.288 1219.01 499.792 1219.14 499.312C1219.3 498.832 1219.55 498.416 1219.9 498.064C1220.29 497.68 1220.72 497.424 1221.2 497.296C1221.68 497.136 1222.18 497.056 1222.69 497.056C1223.2 497.056 1223.7 497.136 1224.18 497.296C1224.66 497.424 1225.07 497.68 1225.42 498.064C1225.81 498.416 1226.06 498.832 1226.19 499.312C1226.35 499.792 1226.43 500.288 1226.43 500.8C1226.43 501.312 1226.35 501.808 1226.19 502.288C1226.06 502.768 1225.81 503.2 1225.42 503.584C1225.07 503.936 1224.66 504.192 1224.18 504.352C1223.7 504.48 1223.2 504.544 1222.69 504.544ZM1222.69 486.304C1222.18 486.304 1221.68 486.24 1221.2 486.112C1220.72 485.952 1220.29 485.696 1219.9 485.344C1219.55 484.96 1219.3 484.528 1219.14 484.048C1219.01 483.568 1218.94 483.072 1218.94 482.56C1218.94 482.048 1219.01 481.552 1219.14 481.072C1219.3 480.592 1219.55 480.176 1219.9 479.824C1220.29 479.44 1220.72 479.184 1221.2 479.056C1221.68 478.896 1222.18 478.816 1222.69 478.816C1223.2 478.816 1223.7 478.896 1224.18 479.056C1224.66 479.184 1225.07 479.44 1225.42 479.824C1225.81 480.176 1226.06 480.592 1226.19 481.072C1226.35 481.552 1226.43 482.048 1226.43 482.56C1226.43 483.072 1226.35 483.568 1226.19 484.048C1226.06 484.528 1225.81 484.96 1225.42 485.344C1225.07 485.696 1224.66 485.952 1224.18 486.112C1223.7 486.24 1223.2 486.304 1222.69 486.304ZM1273 504.544C1272.49 504.544 1271.99 504.48 1271.51 504.352C1271.03 504.192 1270.6 503.936 1270.22 503.584C1269.86 503.2 1269.61 502.768 1269.45 502.288C1269.32 501.808 1269.26 501.312 1269.26 500.8C1269.26 500.288 1269.32 499.792 1269.45 499.312C1269.61 498.832 1269.86 498.416 1270.22 498.064C1270.6 497.68 1271.03 497.424 1271.51 497.296C1271.99 497.136 1272.49 497.056 1273 497.056C1273.51 497.056 1274.01 497.136 1274.49 497.296C1274.97 497.424 1275.38 497.68 1275.74 498.064C1276.12 498.416 1276.38 498.832 1276.5 499.312C1276.66 499.792 1276.74 500.288 1276.74 500.8C1276.74 501.312 1276.66 501.808 1276.5 502.288C1276.38 502.768 1276.12 503.2 1275.74 503.584C1275.38 503.936 1274.97 504.192 1274.49 504.352C1274.01 504.48 1273.51 504.544 1273 504.544ZM1273 486.304C1272.49 486.304 1271.99 486.24 1271.51 486.112C1271.03 485.952 1270.6 485.696 1270.22 485.344C1269.86 484.96 1269.61 484.528 1269.45 484.048C1269.32 483.568 1269.26 483.072 1269.26 482.56C1269.26 482.048 1269.32 481.552 1269.45 481.072C1269.61 480.592 1269.86 480.176 1270.22 479.824C1270.6 479.44 1271.03 479.184 1271.51 479.056C1271.99 478.896 1272.49 478.816 1273 478.816C1273.51 478.816 1274.01 478.896 1274.49 479.056C1274.97 479.184 1275.38 479.44 1275.74 479.824C1276.12 480.176 1276.38 480.592 1276.5 481.072C1276.66 481.552 1276.74 482.048 1276.74 482.56C1276.74 483.072 1276.66 483.568 1276.5 484.048C1276.38 484.528 1276.12 484.96 1275.74 485.344C1275.38 485.696 1274.97 485.952 1274.49 486.112C1274.01 486.24 1273.51 486.304 1273 486.304ZM1289.03 504.112L1287.11 501.232L1302.71 491.68L1287.11 482.128L1289.03 479.248L1305.93 489.712V493.648L1289.03 504.112ZM17.856 615.728C16.16 615.408 14.544 614.832 13.008 614C11.472 613.168 10.096 612.128 8.88 610.88C7.696 609.632 6.704 608.24 5.904 606.704C5.104 605.168 4.48 603.568 4.032 601.904C3.584 600.24 3.264 598.56 3.072 596.864C2.912 595.136 2.832 593.408 2.832 591.68C2.832 589.952 2.912 588.24 3.072 586.544C3.264 584.816 3.584 583.12 4.032 581.456C4.48 579.792 5.104 578.192 5.904 576.656C6.704 575.12 7.696 573.728 8.88 572.48C10.096 571.232 11.472 570.192 13.008 569.36C14.544 568.528 16.16 567.952 17.856 567.632L18.576 570.896C17.168 571.216 15.824 571.76 14.544 572.528C13.296 573.296 12.192 574.224 11.232 575.312C10.304 576.4 9.536 577.616 8.928 578.96C8.32 580.272 7.84 581.632 7.488 583.04C7.136 584.448 6.896 585.888 6.768 587.36C6.64 588.8 6.576 590.24 6.576 591.68C6.576 593.12 6.64 594.576 6.768 596.048C6.896 597.488 7.136 598.912 7.488 600.32C7.84 601.728 8.32 603.104 8.928 604.448C9.536 605.76 10.304 606.96 11.232 608.048C12.192 609.136 13.296 610.064 14.544 610.832C15.824 611.6 17.168 612.144 18.576 612.464L17.856 615.728ZM31.584 600.8L28.56 598.832L33.6 592.4L25.824 590.144L26.976 586.976L34.416 589.664L34.128 581.6H37.872L37.584 589.664L45.024 586.976L46.176 590.144L38.4 592.4L43.44 598.832L40.416 600.8L36 594.272L31.584 600.8ZM79.584 600.8L76.56 598.832L81.6 592.4L73.824 590.144L74.976 586.976L82.416 589.664L82.128 581.6H85.872L85.584 589.664L93.024 586.976L94.176 590.144L86.4 592.4L91.44 598.832L88.416 600.8L84 594.272L79.584 600.8ZM102.144 615.728L101.424 612.464C102.832 612.144 104.16 611.6 105.408 610.832C106.688 610.064 107.792 609.136 108.72 608.048C109.68 606.96 110.464 605.76 111.072 604.448C111.68 603.104 112.16 601.728 112.512 600.32C112.864 598.912 113.104 597.488 113.232 596.048C113.36 594.576 113.424 593.12 113.424 591.68C113.424 590.24 113.36 588.8 113.232 587.36C113.104 585.888 112.864 584.448 112.512 583.04C112.16 581.632 111.68 580.272 111.072 578.96C110.464 577.616 109.68 576.4 108.72 575.312C107.792 574.224 106.688 573.296 105.408 572.528C104.16 571.76 102.832 571.216 101.424 570.896L102.144 567.632C103.84 567.952 105.456 568.528 106.992 569.36C108.528 570.192 109.888 571.232 111.072 572.48C112.288 573.728 113.296 575.12 114.096 576.656C114.896 578.192 115.52 579.792 115.968 581.456C116.416 583.12 116.72 584.816 116.88 586.544C117.072 588.24 117.168 589.952 117.168 591.68C117.168 593.408 117.072 595.136 116.88 596.864C116.72 598.56 116.416 600.24 115.968 601.904C115.52 603.568 114.896 605.168 114.096 606.704C113.296 608.24 112.288 609.632 111.072 610.88C109.888 612.128 108.528 613.168 106.992 614C105.456 614.832 103.84 615.408 102.144 615.728ZM146.832 614.864L161.328 568.496H165.168L150.672 614.864H146.832ZM175.584 594.416L172.56 592.448L177.6 586.016L169.824 583.76L170.976 580.592L178.416 583.28L178.128 575.216H181.872L181.584 583.28L189.024 580.592L190.176 583.76L182.4 586.016L187.44 592.448L184.416 594.416L180 587.888L175.584 594.416ZM223.584 607.184L220.56 605.216L225.6 598.784L217.824 596.528L218.976 593.36L226.416 596.048L226.128 587.984H229.872L229.584 596.048L237.024 593.36L238.176 596.528L230.4 598.784L235.44 605.216L232.416 607.184L228 600.656L223.584 607.184ZM242.832 614.864L257.328 568.496H261.168L246.672 614.864H242.832ZM298.128 614.864V568.496H326.304V571.856H301.872V611.504H326.304V614.864H298.128ZM318.624 609.152V574.208H322.368V609.152H318.624ZM373.632 609.152V574.208H377.376V609.152H373.632ZM369.696 614.864V611.504H394.128V571.856H369.696V568.496H397.872V614.864H369.696ZM451.152 615.344C450.288 615.344 449.424 615.28 448.56 615.152C447.696 615.056 446.848 614.864 446.016 614.576C445.184 614.288 444.4 613.904 443.664 613.424C442.928 612.944 442.288 612.368 441.744 611.696C441.2 611.024 440.8 610.256 440.544 609.392C440.288 608.56 440.16 607.712 440.16 606.848C440.16 606.112 440.24 605.392 440.4 604.688C440.592 603.952 440.832 603.264 441.12 602.624C441.408 601.952 441.696 601.28 441.984 600.608C442.304 599.936 442.464 599.232 442.464 598.496C442.464 597.984 442.384 597.472 442.224 596.96C442.096 596.448 441.872 595.984 441.552 595.568C441.264 595.152 440.896 594.8 440.448 594.512C440 594.192 439.52 593.952 439.008 593.792C438.528 593.632 438.032 593.52 437.52 593.456C437.008 593.392 436.496 593.36 435.984 593.36V590C436.496 590 437.008 589.968 437.52 589.904C438.032 589.84 438.528 589.728 439.008 589.568C439.52 589.408 440 589.184 440.448 588.896C440.896 588.576 441.264 588.208 441.552 587.792C441.872 587.376 442.096 586.912 442.224 586.4C442.384 585.888 442.464 585.376 442.464 584.864C442.464 584.128 442.304 583.424 441.984 582.752C441.696 582.08 441.408 581.424 441.12 580.784C440.832 580.112 440.592 579.424 440.4 578.72C440.24 577.984 440.16 577.248 440.16 576.512C440.16 575.648 440.288 574.8 440.544 573.968C440.8 573.104 441.2 572.336 441.744 571.664C442.288 570.992 442.928 570.416 443.664 569.936C444.4 569.456 445.184 569.072 446.016 568.784C446.848 568.496 447.696 568.304 448.56 568.208C449.424 568.08 450.288 568.016 451.152 568.016H470.304V571.376H451.152C450.576 571.376 450.016 571.408 449.472 571.472C448.928 571.536 448.384 571.648 447.84 571.808C447.328 571.968 446.816 572.192 446.304 572.48C445.824 572.736 445.392 573.072 445.008 573.488C444.656 573.904 444.384 574.384 444.192 574.928C444 575.44 443.904 575.968 443.904 576.512C443.904 577.12 444 577.696 444.192 578.24C444.384 578.784 444.608 579.312 444.864 579.824L444.912 579.92C445.264 580.688 445.552 581.488 445.776 582.32C446.032 583.152 446.16 584 446.16 584.864C446.16 585.6 446.064 586.336 445.872 587.072C445.68 587.808 445.36 588.48 444.912 589.088C444.464 589.696 443.92 590.224 443.28 590.672C442.672 591.088 442.032 591.424 441.36 591.68C442.032 591.936 442.672 592.288 443.28 592.736C443.92 593.152 444.464 593.664 444.912 594.272C445.36 594.88 445.68 595.552 445.872 596.288C446.064 597.024 446.16 597.76 446.16 598.496C446.16 599.36 446.032 600.208 445.776 601.04C445.552 601.872 445.264 602.672 444.912 603.44L444.864 603.536C444.608 604.048 444.384 604.576 444.192 605.12C444 605.664 443.904 606.24 443.904 606.848C443.904 607.392 444 607.92 444.192 608.432C444.384 608.976 444.656 609.456 445.008 609.872C445.392 610.288 445.824 610.624 446.304 610.88C446.816 611.168 447.328 611.392 447.84 611.552C448.384 611.712 448.928 611.824 449.472 611.888C450.016 611.952 450.576 611.984 451.152 611.984H470.304V615.344H451.152ZM462.624 609.152V574.208H466.368V609.152H462.624ZM517.632 609.152V574.208H521.376V609.152H517.632ZM513.696 615.344V611.984H532.848C533.424 611.984 533.984 611.952 534.528 611.888C535.072 611.824 535.6 611.712 536.112 611.552C536.656 611.392 537.168 611.168 537.648 610.88C538.16 610.624 538.592 610.288 538.944 609.872C539.328 609.456 539.616 608.976 539.808 608.432C540 607.92 540.096 607.392 540.096 606.848C540.096 606.24 540 605.664 539.808 605.12C539.616 604.576 539.392 604.048 539.136 603.536L539.088 603.44C538.736 602.672 538.432 601.872 538.176 601.04C537.952 600.208 537.84 599.36 537.84 598.496C537.84 597.76 537.936 597.024 538.128 596.288C538.32 595.552 538.64 594.88 539.088 594.272C539.536 593.664 540.064 593.152 540.672 592.736C541.312 592.288 541.968 591.936 542.64 591.68C541.968 591.424 541.312 591.088 540.672 590.672C540.064 590.224 539.536 589.696 539.088 589.088C538.64 588.48 538.32 587.808 538.128 587.072C537.936 586.336 537.84 585.6 537.84 584.864C537.84 584 537.952 583.152 538.176 582.32C538.432 581.488 538.736 580.688 539.088 579.92L539.136 579.824C539.392 579.312 539.616 578.784 539.808 578.24C540 577.696 540.096 577.12 540.096 576.512C540.096 575.968 540 575.44 539.808 574.928C539.616 574.384 539.328 573.904 538.944 573.488C538.592 573.072 538.16 572.736 537.648 572.48C537.168 572.192 536.656 571.968 536.112 571.808C535.6 571.648 535.072 571.536 534.528 571.472C533.984 571.408 533.424 571.376 532.848 571.376H513.696V568.016H532.848C533.712 568.016 534.576 568.08 535.44 568.208C536.304 568.304 537.152 568.496 537.984 568.784C538.816 569.072 539.6 569.456 540.336 569.936C541.072 570.416 541.712 570.992 542.256 571.664C542.8 572.336 543.2 573.104 543.456 573.968C543.712 574.8 543.84 575.648 543.84 576.512C543.84 577.248 543.744 577.984 543.552 578.72C543.392 579.424 543.168 580.112 542.88 580.784C542.592 581.424 542.288 582.08 541.968 582.752C541.68 583.424 541.536 584.128 541.536 584.864C541.536 585.376 541.6 585.888 541.728 586.4C541.888 586.912 542.112 587.376 542.4 587.792C542.72 588.208 543.104 588.576 543.552 588.896C544 589.184 544.464 589.408 544.944 589.568C545.456 589.728 545.968 589.84 546.48 589.904C546.992 589.968 547.504 590 548.016 590V593.36C547.504 593.36 546.992 593.392 546.48 593.456C545.968 593.52 545.456 593.632 544.944 593.792C544.464 593.952 544 594.192 543.552 594.512C543.104 594.8 542.72 595.152 542.4 595.568C542.112 595.984 541.888 596.448 541.728 596.96C541.6 597.472 541.536 597.984 541.536 598.496C541.536 599.232 541.68 599.936 541.968 600.608C542.288 601.28 542.592 601.952 542.88 602.624C543.168 603.264 543.392 603.952 543.552 604.688C543.744 605.392 543.84 606.112 543.84 606.848C543.84 607.712 543.712 608.56 543.456 609.392C543.2 610.256 542.8 611.024 542.256 611.696C541.712 612.368 541.072 612.944 540.336 613.424C539.6 613.904 538.816 614.288 537.984 614.576C537.152 614.864 536.304 615.056 535.44 615.152C534.576 615.28 533.712 615.344 532.848 615.344H513.696ZM589.2 600.944V593.36H579.072V590H589.2V582.416H592.944V590H600.384V593.36H592.944V600.944H589.2ZM607.056 600.944V593.36H599.616V590H607.056V582.416H610.8V590H620.928V593.36H610.8V600.944H607.056ZM661.2 600.944V593.36H651.072V590H661.2V582.416H664.944V590H672.384V593.36H664.944V600.944H661.2ZM685.872 600.944H682.128V593.36H671.616V590H682.128V582.416H685.872V590H696.384V593.36H685.872V600.944ZM703.056 600.944V593.36H695.616V590H703.056V582.416H706.8V590H716.928V593.36H706.8V600.944H703.056ZM766.032 614.864L746.784 568.496H750.72L769.968 614.864H766.032ZM766.032 614.864L785.28 568.496H789.216L769.968 614.864H766.032ZM818.784 614.864L838.032 568.496H841.968L822.72 614.864H818.784ZM857.28 614.864L838.032 568.496H841.968L861.216 614.864H857.28ZM898.128 614.864V568.496H901.872V614.864H898.128ZM904.848 593.36V590H932.928V593.36H904.848ZM963.072 593.36V590H991.152V593.36H963.072ZM994.128 614.864V568.496H997.872V614.864H994.128ZM1051.97 604.112L1035.07 593.648V589.712L1051.97 579.248L1053.89 582.128L1038.29 591.68L1053.89 601.232L1051.97 604.112ZM1060.03 595.52V572.72H1063.78V595.52H1060.03ZM1037.81 593.36V590H1052.93V593.36H1037.81ZM1061.9 608.384C1061.46 608.384 1061.01 608.32 1060.56 608.192C1060.11 608.064 1059.73 607.84 1059.41 607.52C1059.09 607.168 1058.86 606.784 1058.74 606.368C1058.61 605.92 1058.54 605.456 1058.54 604.976C1058.54 604.528 1058.61 604.096 1058.74 603.68C1058.86 603.232 1059.09 602.848 1059.41 602.528C1059.73 602.176 1060.11 601.936 1060.56 601.808C1061.01 601.68 1061.46 601.616 1061.9 601.616C1062.35 601.616 1062.8 601.68 1063.25 601.808C1063.7 601.936 1064.08 602.176 1064.4 602.528C1064.72 602.848 1064.94 603.232 1065.07 603.68C1065.23 604.096 1065.31 604.528 1065.31 604.976C1065.31 605.456 1065.23 605.92 1065.07 606.368C1064.94 606.784 1064.72 607.168 1064.4 607.52C1064.08 607.84 1063.7 608.064 1063.25 608.192C1062.8 608.32 1062.35 608.384 1061.9 608.384ZM1070.88 593.36V590H1104.38V593.36H1070.88ZM1103.62 593.36V590H1124.93V593.36H1103.62ZM1171.97 604.112L1155.07 593.648V589.712L1171.97 579.248L1173.89 582.128L1158.29 591.68L1173.89 601.232L1171.97 604.112ZM1180.03 595.52V572.72H1183.78V595.52H1180.03ZM1157.81 593.36V590H1172.93V593.36H1157.81ZM1181.9 608.384C1181.46 608.384 1181.01 608.32 1180.56 608.192C1180.11 608.064 1179.73 607.84 1179.41 607.52C1179.09 607.168 1178.86 606.784 1178.74 606.368C1178.61 605.92 1178.54 605.456 1178.54 604.976C1178.54 604.528 1178.61 604.096 1178.74 603.68C1178.86 603.232 1179.09 602.848 1179.41 602.528C1179.73 602.176 1180.11 601.936 1180.56 601.808C1181.01 601.68 1181.46 601.616 1181.9 601.616C1182.35 601.616 1182.8 601.68 1183.25 601.808C1183.7 601.936 1184.08 602.176 1184.4 602.528C1184.72 602.848 1184.94 603.232 1185.07 603.68C1185.23 604.096 1185.31 604.528 1185.31 604.976C1185.31 605.456 1185.23 605.92 1185.07 606.368C1184.94 606.784 1184.72 607.168 1184.4 607.52C1184.08 607.84 1183.7 608.064 1183.25 608.192C1182.8 608.32 1182.35 608.384 1181.9 608.384ZM1190.88 593.36V590H1224.38V593.36H1190.88ZM1223.62 593.36V590H1248.38V593.36H1223.62ZM1247.62 593.36V590H1268.93V593.36H1247.62Z" fill="black"/>
</svg>
