<svg width="624" height="180" viewBox="0 0 624 180" fill="none" xmlns="http://www.w3.org/2000/svg">
<path d="M2.112 48L9.84 12.72H14.16L16.752 24.48L21.888 48H18.048L16.176 38.88H7.824L5.952 48H2.112ZM15.504 35.52L13.248 24.48C13.024 23.456 12.8 22.432 12.576 21.408C12.384 20.384 12.192 19.36 12 18.336C11.808 19.36 11.6 20.384 11.376 21.408C11.184 22.432 10.976 23.456 10.752 24.48L8.496 35.52H15.504ZM27.072 48V12.72H35.184C36.016 12.72 36.832 12.8 37.632 12.96C38.464 13.088 39.248 13.344 39.984 13.728C40.72 14.08 41.376 14.56 41.952 15.168C42.56 15.744 43.056 16.416 43.44 17.184C43.824 17.92 44.08 18.704 44.208 19.536C44.368 20.336 44.448 21.152 44.448 21.984C44.448 22.752 44.368 23.536 44.208 24.336C44.08 25.104 43.824 25.824 43.44 26.496C43.056 27.168 42.576 27.776 42 28.32C41.424 28.864 40.784 29.296 40.08 29.616C40.912 29.936 41.696 30.368 42.432 30.912C43.2 31.456 43.824 32.112 44.304 32.88C44.816 33.648 45.168 34.48 45.36 35.376C45.584 36.272 45.696 37.184 45.696 38.112C45.696 39.008 45.6 39.92 45.408 40.848C45.248 41.744 44.944 42.592 44.496 43.392C44.048 44.192 43.472 44.896 42.768 45.504C42.096 46.112 41.344 46.608 40.512 46.992C39.68 47.376 38.8 47.648 37.872 47.808C36.976 47.936 36.08 48 35.184 48H27.072ZM30.816 28.032H35.184C35.696 28.032 36.208 27.984 36.72 27.888C37.232 27.792 37.712 27.616 38.16 27.36C38.608 27.104 38.992 26.784 39.312 26.4C39.664 25.984 39.936 25.552 40.128 25.104C40.352 24.624 40.496 24.128 40.56 23.616C40.656 23.104 40.704 22.576 40.704 22.032C40.704 21.52 40.656 21.008 40.56 20.496C40.496 19.984 40.352 19.504 40.128 19.056C39.936 18.576 39.664 18.144 39.312 17.76C38.992 17.344 38.608 17.008 38.16 16.752C37.712 16.496 37.232 16.32 36.72 16.224C36.208 16.128 35.696 16.08 35.184 16.08H30.816V28.032ZM30.816 44.64H35.184C35.76 44.64 36.352 44.592 36.96 44.496C37.568 44.4 38.128 44.224 38.64 43.968C39.184 43.712 39.68 43.376 40.128 42.96C40.576 42.512 40.944 42.032 41.232 41.52C41.52 40.976 41.712 40.416 41.808 39.84C41.904 39.232 41.952 38.624 41.952 38.016C41.952 37.44 41.904 36.848 41.808 36.24C41.712 35.632 41.52 35.072 41.232 34.56C40.944 34.016 40.576 33.536 40.128 33.12C39.712 32.704 39.232 32.368 38.688 32.112C38.144 31.824 37.568 31.632 36.96 31.536C36.384 31.44 35.792 31.392 35.184 31.392H30.816V44.64ZM59.856 48.384C59.024 48.384 58.176 48.304 57.312 48.144C56.48 47.984 55.696 47.696 54.96 47.28C54.224 46.864 53.568 46.336 52.992 45.696C52.416 45.056 51.952 44.352 51.6 43.584C51.248 42.816 51.008 42.016 50.88 41.184C50.752 40.32 50.688 39.472 50.688 38.64V22.08C50.688 21.248 50.752 20.416 50.88 19.584C51.008 18.72 51.248 17.904 51.6 17.136C51.952 16.368 52.416 15.664 52.992 15.024C53.568 14.384 54.224 13.856 54.96 13.44C55.696 13.024 56.48 12.736 57.312 12.576C58.176 12.416 59.024 12.336 59.856 12.336C60.656 12.336 61.44 12.4 62.208 12.528C63.008 12.656 63.76 12.896 64.464 13.248C65.2 13.6 65.856 14.048 66.432 14.592C67.04 15.136 67.52 15.76 67.872 16.464C68.256 17.168 68.544 17.904 68.736 18.672C68.928 19.44 69.024 20.224 69.024 21.024V21.168H65.28V21.072C65.28 20.368 65.152 19.664 64.896 18.96C64.672 18.256 64.304 17.648 63.792 17.136C63.312 16.624 62.72 16.256 62.016 16.032C61.312 15.808 60.592 15.696 59.856 15.696C59.056 15.696 58.272 15.856 57.504 16.176C56.768 16.464 56.16 16.928 55.68 17.568C55.2 18.208 54.864 18.928 54.672 19.728C54.512 20.496 54.432 21.28 54.432 22.08V38.64C54.432 39.44 54.512 40.24 54.672 41.04C54.864 41.808 55.2 42.512 55.68 43.152C56.16 43.792 56.768 44.272 57.504 44.592C58.272 44.88 59.056 45.024 59.856 45.024C60.592 45.024 61.312 44.912 62.016 44.688C62.72 44.464 63.312 44.096 63.792 43.584C64.304 43.072 64.672 42.464 64.896 41.76C65.152 41.056 65.28 40.352 65.28 39.648V39.552H69.024V39.696C69.024 40.496 68.928 41.28 68.736 42.048C68.544 42.816 68.256 43.552 67.872 44.256C67.52 44.96 67.04 45.584 66.432 46.128C65.856 46.672 65.2 47.12 64.464 47.472C63.76 47.824 63.008 48.064 62.208 48.192C61.44 48.32 60.656 48.384 59.856 48.384ZM75.072 48V12.72H81.216C82.016 12.72 82.816 12.784 83.616 12.912C84.416 13.04 85.168 13.28 85.872 13.632C86.608 13.984 87.296 14.416 87.936 14.928C88.576 15.44 89.136 16.016 89.616 16.656C90.128 17.296 90.56 17.968 90.912 18.672C91.296 19.376 91.616 20.112 91.872 20.88C92.16 21.616 92.4 22.384 92.592 23.184C92.784 23.952 92.928 24.736 93.024 25.536C93.12 26.336 93.184 27.136 93.216 27.936C93.28 28.736 93.312 29.536 93.312 30.336C93.312 31.168 93.28 31.984 93.216 32.784C93.184 33.584 93.12 34.384 93.024 35.184C92.928 35.984 92.784 36.784 92.592 37.584C92.4 38.352 92.16 39.12 91.872 39.888C91.616 40.624 91.296 41.344 90.912 42.048C90.56 42.752 90.128 43.424 89.616 44.064C89.136 44.704 88.576 45.28 87.936 45.792C87.296 46.304 86.608 46.736 85.872 47.088C85.168 47.44 84.416 47.68 83.616 47.808C82.816 47.936 82.016 48 81.216 48H75.072ZM78.816 44.64H81.216C81.856 44.64 82.464 44.576 83.04 44.448C83.648 44.288 84.208 44.048 84.72 43.728C85.264 43.408 85.744 43.024 86.16 42.576C86.576 42.096 86.944 41.6 87.264 41.088C87.584 40.544 87.856 40 88.08 39.456C88.336 38.88 88.544 38.304 88.704 37.728C88.896 37.12 89.04 36.512 89.136 35.904C89.264 35.296 89.36 34.688 89.424 34.08C89.488 33.44 89.52 32.816 89.52 32.208C89.552 31.6 89.568 30.976 89.568 30.336C89.568 29.728 89.552 29.12 89.52 28.512C89.52 27.904 89.488 27.296 89.424 26.688C89.36 26.048 89.264 25.424 89.136 24.816C89.04 24.208 88.896 23.616 88.704 23.04C88.544 22.432 88.336 21.856 88.08 21.312C87.856 20.736 87.584 20.192 87.264 19.68C86.944 19.136 86.576 18.64 86.16 18.192C85.744 17.712 85.264 17.312 84.72 16.992C84.208 16.672 83.648 16.448 83.04 16.32C82.464 16.16 81.856 16.08 81.216 16.08H78.816V44.64ZM99.456 48V12.72H116.928V16.08H103.2V27.984H114.24V31.344H103.2V44.64H116.928V48H99.456ZM124.608 48V12.72H140.928V16.08H128.352V27.984H138.24V31.344H128.352V48H124.608ZM155.712 48.384C154.88 48.384 154.048 48.288 153.216 48.096C152.384 47.904 151.6 47.6 150.864 47.184C150.16 46.768 149.52 46.256 148.944 45.648C148.4 45.008 147.952 44.304 147.6 43.536C147.248 42.768 147.008 41.968 146.88 41.136C146.752 40.304 146.688 39.472 146.688 38.64V22.08C146.688 21.248 146.752 20.416 146.88 19.584C147.008 18.72 147.248 17.904 147.6 17.136C147.952 16.368 148.416 15.664 148.992 15.024C149.568 14.384 150.224 13.856 150.96 13.44C151.696 13.024 152.48 12.736 153.312 12.576C154.176 12.416 155.024 12.336 155.856 12.336C156.656 12.336 157.44 12.4 158.208 12.528C159.008 12.656 159.76 12.896 160.464 13.248C161.2 13.6 161.856 14.048 162.432 14.592C163.04 15.136 163.52 15.76 163.872 16.464C164.256 17.168 164.544 17.904 164.736 18.672C164.928 19.44 165.024 20.224 165.024 21.024V21.168H161.28V21.072C161.28 20.368 161.152 19.664 160.896 18.96C160.672 18.256 160.304 17.648 159.792 17.136C159.312 16.624 158.72 16.256 158.016 16.032C157.312 15.808 156.592 15.696 155.856 15.696C155.056 15.696 154.272 15.856 153.504 16.176C152.768 16.464 152.16 16.928 151.68 17.568C151.2 18.208 150.864 18.928 150.672 19.728C150.512 20.496 150.432 21.28 150.432 22.08V38.64C150.432 39.152 150.464 39.68 150.528 40.224C150.592 40.736 150.704 41.232 150.864 41.712C151.056 42.192 151.312 42.656 151.632 43.104C151.952 43.52 152.32 43.872 152.736 44.16C153.184 44.448 153.648 44.672 154.128 44.832C154.64 44.96 155.168 45.024 155.712 45.024C156.224 45.024 156.736 44.96 157.248 44.832C157.792 44.672 158.288 44.464 158.736 44.208C159.184 43.92 159.584 43.568 159.936 43.152C160.288 42.736 160.56 42.288 160.752 41.808C160.944 41.296 161.056 40.784 161.088 40.272C161.152 39.728 161.184 39.184 161.184 38.64V32.16H156V28.8H164.928V38.64C164.928 39.504 164.88 40.368 164.784 41.232C164.688 42.064 164.464 42.864 164.112 43.632C163.76 44.4 163.28 45.104 162.672 45.744C162.064 46.352 161.376 46.864 160.608 47.28C159.872 47.664 159.072 47.936 158.208 48.096C157.376 48.288 156.544 48.384 155.712 48.384ZM171.072 48V12.72H174.816V28.08H185.184V12.72H188.928V48H185.184V31.44H174.816V48H171.072ZM195.6 48V44.64H202.128V16.08H195.6V12.72H212.4V16.08H205.872V44.64H212.4V48H195.6ZM226.944 48.384C226.176 48.384 225.408 48.304 224.64 48.144C223.872 48.016 223.136 47.776 222.432 47.424C221.76 47.072 221.152 46.608 220.608 46.032C220.064 45.456 219.616 44.832 219.264 44.16C218.912 43.456 218.64 42.72 218.448 41.952C218.288 41.184 218.208 40.416 218.208 39.648V39.552H221.952V39.6C221.952 40.304 222.048 41.008 222.24 41.712C222.464 42.384 222.8 42.976 223.248 43.488C223.696 44 224.256 44.384 224.928 44.64C225.6 44.896 226.272 45.024 226.944 45.024C227.488 45.024 228 44.96 228.48 44.832C228.992 44.704 229.456 44.48 229.872 44.16C230.288 43.84 230.64 43.472 230.928 43.056C231.216 42.608 231.44 42.144 231.6 41.664C231.76 41.184 231.872 40.688 231.936 40.176C232 39.664 232.032 39.152 232.032 38.64V16.08H225.504V12.72H235.776V38.64C235.776 39.472 235.712 40.304 235.584 41.136C235.456 41.936 235.232 42.72 234.912 43.488C234.592 44.256 234.16 44.976 233.616 45.648C233.072 46.288 232.448 46.816 231.744 47.232C231.04 47.648 230.272 47.936 229.44 48.096C228.608 48.288 227.776 48.384 226.944 48.384ZM243.84 48V12.72H247.536V28.896L257.136 12.72H261.36L250.944 30.336L261.36 48H257.136L247.536 31.824V48H243.84ZM268.608 48V12.72H272.352V44.64H285.216V48H268.608ZM290.304 48L290.592 40.944C290.784 36.24 291.024 31.536 291.312 26.832C291.6 22.128 291.744 17.424 291.744 12.72H296.208L300 30.624L303.792 12.72H308.256C308.256 17.424 308.4 22.128 308.688 26.832C308.976 31.536 309.216 36.24 309.408 40.944L309.696 48H305.952L305.664 40.944C305.536 37.488 305.408 34.032 305.28 30.576C305.184 27.088 305.12 23.616 305.088 20.16L301.44 37.392H298.56L294.912 20.16C294.88 23.616 294.8 27.088 294.672 30.576C294.576 34.032 294.464 37.488 294.336 40.944L294.048 48H290.304ZM315.072 48V12.72H319.68C321.344 17.584 322.992 22.448 324.624 27.312C326.288 32.144 327.952 36.992 329.616 41.856C329.552 39.328 329.456 36.816 329.328 34.32C329.232 31.824 329.184 29.328 329.184 26.832V12.72H332.928V48H328.32L318.384 18.864C318.448 21.392 318.528 23.904 318.624 26.4C318.752 28.896 318.816 31.392 318.816 33.888V48H315.072ZM348 48.384C347.136 48.384 346.272 48.304 345.408 48.144C344.576 47.984 343.792 47.712 343.056 47.328C342.32 46.912 341.648 46.384 341.04 45.744C340.464 45.104 340 44.4 339.648 43.632C339.296 42.832 339.04 42.016 338.88 41.184C338.752 40.352 338.688 39.504 338.688 38.64V22.08C338.688 21.216 338.752 20.368 338.88 19.536C339.04 18.704 339.296 17.904 339.648 17.136C340 16.336 340.464 15.616 341.04 14.976C341.648 14.336 342.32 13.824 343.056 13.44C343.792 13.024 344.576 12.736 345.408 12.576C346.272 12.416 347.136 12.336 348 12.336C348.864 12.336 349.712 12.416 350.544 12.576C351.408 12.736 352.208 13.024 352.944 13.44C353.68 13.824 354.336 14.336 354.912 14.976C355.52 15.616 356 16.336 356.352 17.136C356.704 17.904 356.944 18.704 357.072 19.536C357.232 20.368 357.312 21.216 357.312 22.08V38.64C357.312 39.504 357.232 40.352 357.072 41.184C356.944 42.016 356.704 42.832 356.352 43.632C356 44.4 355.52 45.104 354.912 45.744C354.336 46.384 353.68 46.912 352.944 47.328C352.208 47.712 351.408 47.984 350.544 48.144C349.712 48.304 348.864 48.384 348 48.384ZM348 45.024C348.544 45.024 349.072 44.976 349.584 44.88C350.128 44.752 350.624 44.544 351.072 44.256C351.52 43.968 351.904 43.616 352.224 43.2C352.576 42.752 352.848 42.288 353.04 41.808C353.264 41.296 353.408 40.784 353.472 40.272C353.536 39.728 353.568 39.184 353.568 38.64V22.08C353.568 21.536 353.536 21.008 353.472 20.496C353.408 19.952 353.264 19.44 353.04 18.96C352.848 18.448 352.576 17.984 352.224 17.568C351.904 17.12 351.52 16.752 351.072 16.464C350.624 16.176 350.128 15.984 349.584 15.888C349.072 15.76 348.544 15.696 348 15.696C347.456 15.696 346.912 15.76 346.368 15.888C345.856 15.984 345.376 16.176 344.928 16.464C344.48 16.752 344.08 17.12 343.728 17.568C343.408 17.984 343.136 18.448 342.912 18.96C342.72 19.44 342.592 19.952 342.528 20.496C342.464 21.008 342.432 21.536 342.432 22.08V38.64C342.432 39.184 342.464 39.728 342.528 40.272C342.592 40.784 342.72 41.296 342.912 41.808C343.136 42.288 343.408 42.752 343.728 43.2C344.08 43.616 344.48 43.968 344.928 44.256C345.376 44.544 345.856 44.752 346.368 44.88C346.912 44.976 347.456 45.024 348 45.024ZM363.84 48V12.72H372.288C373.152 12.72 374.016 12.816 374.88 13.008C375.776 13.168 376.608 13.472 377.376 13.92C378.144 14.368 378.816 14.944 379.392 15.648C379.968 16.32 380.432 17.072 380.784 17.904C381.136 18.704 381.376 19.552 381.504 20.448C381.632 21.312 381.696 22.176 381.696 23.04C381.696 23.936 381.632 24.832 381.504 25.728C381.376 26.592 381.136 27.44 380.784 28.272C380.432 29.072 379.968 29.824 379.392 30.528C378.816 31.2 378.144 31.76 377.376 32.208C376.608 32.656 375.776 32.976 374.88 33.168C374.016 33.328 373.152 33.408 372.288 33.408H367.584V48H363.84ZM367.584 30.048H372.288C372.864 30.048 373.424 29.984 373.968 29.856C374.512 29.696 375.008 29.456 375.456 29.136C375.936 28.816 376.336 28.416 376.656 27.936C377.008 27.456 377.28 26.96 377.472 26.448C377.664 25.904 377.792 25.344 377.856 24.768C377.92 24.192 377.952 23.616 377.952 23.04C377.952 22.496 377.92 21.936 377.856 21.36C377.792 20.784 377.664 20.24 377.472 19.728C377.28 19.184 377.008 18.672 376.656 18.192C376.336 17.712 375.936 17.312 375.456 16.992C375.008 16.672 374.512 16.448 373.968 16.32C373.424 16.16 372.864 16.08 372.288 16.08H367.584V30.048ZM402.96 50.496L400.8 47.376C400.064 47.76 399.28 48.016 398.448 48.144C397.648 48.304 396.832 48.384 396 48.384C395.136 48.384 394.272 48.304 393.408 48.144C392.576 47.984 391.792 47.712 391.056 47.328C390.32 46.912 389.648 46.384 389.04 45.744C388.464 45.104 388 44.4 387.648 43.632C387.296 42.832 387.04 42.016 386.88 41.184C386.752 40.352 386.688 39.504 386.688 38.64V22.08C386.688 21.216 386.752 20.368 386.88 19.536C387.04 18.704 387.296 17.904 387.648 17.136C388 16.336 388.464 15.616 389.04 14.976C389.648 14.336 390.32 13.824 391.056 13.44C391.792 13.024 392.576 12.736 393.408 12.576C394.272 12.416 395.136 12.336 396 12.336C396.864 12.336 397.712 12.416 398.544 12.576C399.408 12.736 400.208 13.024 400.944 13.44C401.68 13.824 402.336 14.336 402.912 14.976C403.52 15.616 404 16.336 404.352 17.136C404.704 17.904 404.944 18.704 405.072 19.536C405.232 20.368 405.312 21.216 405.312 22.08V38.64C405.312 39.248 405.28 39.856 405.216 40.464C405.184 41.04 405.072 41.616 404.88 42.192C404.72 42.736 404.512 43.28 404.256 43.824C404 44.368 403.68 44.864 403.296 45.312L406.896 50.496H402.96ZM396 45.024C396.48 45.024 396.944 44.992 397.392 44.928C397.872 44.832 398.32 44.672 398.736 44.448L393.648 37.104H397.584L400.992 42C401.216 41.456 401.36 40.912 401.424 40.368C401.52 39.792 401.568 39.216 401.568 38.64V22.08C401.568 21.536 401.536 21.008 401.472 20.496C401.408 19.952 401.264 19.44 401.04 18.96C400.848 18.448 400.576 17.984 400.224 17.568C399.904 17.12 399.52 16.752 399.072 16.464C398.624 16.176 398.128 15.984 397.584 15.888C397.072 15.76 396.544 15.696 396 15.696C395.456 15.696 394.912 15.76 394.368 15.888C393.856 15.984 393.376 16.176 392.928 16.464C392.48 16.752 392.08 17.12 391.728 17.568C391.408 17.984 391.136 18.448 390.912 18.96C390.72 19.44 390.592 19.952 390.528 20.496C390.464 21.008 390.432 21.536 390.432 22.08V38.64C390.432 39.184 390.464 39.728 390.528 40.272C390.592 40.784 390.72 41.296 390.912 41.808C391.136 42.288 391.408 42.752 391.728 43.2C392.08 43.616 392.48 43.968 392.928 44.256C393.376 44.544 393.856 44.752 394.368 44.88C394.912 44.976 395.456 45.024 396 45.024ZM411.072 48V12.72H420.288C421.152 12.72 422 12.816 422.832 13.008C423.696 13.2 424.496 13.536 425.232 14.016C425.968 14.464 426.608 15.04 427.152 15.744C427.696 16.416 428.128 17.152 428.448 17.952C428.8 18.752 429.024 19.584 429.12 20.448C429.248 21.312 429.312 22.176 429.312 23.04C429.312 23.968 429.248 24.896 429.12 25.824C428.992 26.72 428.736 27.584 428.352 28.416C428 29.248 427.52 30.016 426.912 30.72C426.304 31.392 425.6 31.952 424.8 32.4C425.504 32.72 426.128 33.152 426.672 33.696C427.216 34.208 427.664 34.8 428.016 35.472C428.368 36.144 428.608 36.864 428.736 37.632C428.864 38.368 428.928 39.12 428.928 39.888V44.736C428.928 45.312 428.976 45.888 429.072 46.464C429.168 47.008 429.376 47.52 429.696 48H425.952C425.664 47.52 425.456 47.008 425.328 46.464C425.232 45.888 425.184 45.312 425.184 44.736V39.888C425.184 39.408 425.168 38.928 425.136 38.448C425.104 37.968 425.024 37.504 424.896 37.056C424.8 36.576 424.656 36.128 424.464 35.712C424.272 35.264 424.016 34.864 423.696 34.512C423.376 34.16 422.992 33.888 422.544 33.696C422.096 33.504 421.632 33.408 421.152 33.408H414.816V48H411.072ZM414.816 30.048H420.288C420.832 30.048 421.376 29.968 421.92 29.808C422.464 29.648 422.944 29.408 423.36 29.088C423.808 28.736 424.176 28.32 424.464 27.84C424.752 27.36 424.976 26.864 425.136 26.352C425.296 25.808 425.408 25.264 425.472 24.72C425.536 24.176 425.568 23.616 425.568 23.04C425.568 22.496 425.536 21.952 425.472 21.408C425.408 20.864 425.296 20.336 425.136 19.824C424.976 19.28 424.752 18.768 424.464 18.288C424.176 17.808 423.808 17.408 423.36 17.088C422.944 16.736 422.464 16.48 421.92 16.32C421.376 16.16 420.832 16.08 420.288 16.08H414.816V30.048ZM443.952 48.384C443.152 48.384 442.352 48.32 441.552 48.192C440.784 48.064 440.032 47.84 439.296 47.52C438.56 47.2 437.888 46.784 437.28 46.272C436.704 45.728 436.208 45.12 435.792 44.448C435.376 43.744 435.072 43.008 434.88 42.24C434.688 41.44 434.592 40.64 434.592 39.84V39.648H438.336V39.792C438.336 40.528 438.464 41.248 438.72 41.952C438.976 42.624 439.376 43.2 439.92 43.68C440.464 44.16 441.088 44.512 441.792 44.736C442.496 44.928 443.216 45.024 443.952 45.024C444.688 45.024 445.424 44.912 446.16 44.688C446.896 44.464 447.52 44.096 448.032 43.584C448.576 43.04 448.976 42.4 449.232 41.664C449.488 40.928 449.616 40.192 449.616 39.456C449.616 38.624 449.44 37.824 449.088 37.056C448.768 36.288 448.32 35.616 447.744 35.04C447.168 34.432 446.528 33.92 445.824 33.504C445.12 33.056 444.4 32.64 443.664 32.256C442.928 31.872 442.208 31.472 441.504 31.056C440.8 30.64 440.128 30.176 439.488 29.664C438.848 29.152 438.24 28.592 437.664 27.984C437.12 27.376 436.656 26.704 436.272 25.968C435.888 25.232 435.584 24.464 435.36 23.664C435.168 22.864 435.072 22.048 435.072 21.216C435.072 20.448 435.152 19.68 435.312 18.912C435.504 18.112 435.776 17.36 436.128 16.656C436.512 15.952 436.976 15.312 437.52 14.736C438.096 14.16 438.736 13.696 439.44 13.344C440.144 12.96 440.88 12.704 441.648 12.576C442.448 12.416 443.248 12.336 444.048 12.336C444.816 12.336 445.584 12.4 446.352 12.528C447.152 12.656 447.904 12.896 448.608 13.248C449.312 13.568 449.936 14 450.48 14.544C451.056 15.088 451.536 15.712 451.92 16.416C452.304 17.088 452.576 17.808 452.736 18.576C452.928 19.344 453.024 20.112 453.024 20.88V21.072H449.28V20.928C449.28 20.256 449.168 19.584 448.944 18.912C448.72 18.208 448.368 17.616 447.888 17.136C447.408 16.624 446.816 16.256 446.112 16.032C445.44 15.808 444.752 15.696 444.048 15.696C443.344 15.696 442.64 15.824 441.936 16.08C441.232 16.336 440.64 16.736 440.16 17.28C439.68 17.792 439.328 18.4 439.104 19.104C438.88 19.808 438.768 20.528 438.768 21.264C438.768 22.064 438.928 22.864 439.248 23.664C439.6 24.432 440.048 25.12 440.592 25.728C441.168 26.304 441.808 26.816 442.512 27.264C443.248 27.68 443.968 28.08 444.672 28.464C445.408 28.816 446.128 29.216 446.832 29.664C447.568 30.08 448.256 30.544 448.896 31.056C449.536 31.568 450.128 32.128 450.672 32.736C451.216 33.344 451.68 34.016 452.064 34.752C452.48 35.456 452.784 36.224 452.976 37.056C453.2 37.856 453.312 38.656 453.312 39.456C453.312 40.288 453.216 41.104 453.024 41.904C452.832 42.672 452.544 43.424 452.16 44.16C451.776 44.864 451.28 45.504 450.672 46.08C450.064 46.624 449.392 47.072 448.656 47.424C447.952 47.776 447.184 48.016 446.352 48.144C445.552 48.304 444.752 48.384 443.952 48.384ZM466.128 48V16.08H458.784V12.72H477.216V16.08H469.872V48H466.128ZM492 48.384C491.168 48.384 490.336 48.288 489.504 48.096C488.672 47.936 487.888 47.648 487.152 47.232C486.448 46.816 485.824 46.288 485.28 45.648C484.736 45.008 484.288 44.304 483.936 43.536C483.616 42.768 483.392 41.968 483.264 41.136C483.136 40.304 483.072 39.472 483.072 38.64V12.72H486.816V38.64C486.816 39.152 486.848 39.68 486.912 40.224C486.976 40.736 487.088 41.232 487.248 41.712C487.44 42.192 487.68 42.656 487.968 43.104C488.256 43.52 488.608 43.888 489.024 44.208C489.472 44.496 489.952 44.704 490.464 44.832C490.976 44.96 491.488 45.024 492 45.024C492.512 45.024 493.024 44.96 493.536 44.832C494.048 44.704 494.512 44.496 494.928 44.208C495.376 43.888 495.744 43.52 496.032 43.104C496.32 42.656 496.544 42.192 496.704 41.712C496.896 41.232 497.024 40.736 497.088 40.224C497.152 39.68 497.184 39.152 497.184 38.64V12.72H500.928V38.64C500.928 39.472 500.864 40.304 500.736 41.136C500.608 41.968 500.368 42.768 500.016 43.536C499.696 44.304 499.264 45.008 498.72 45.648C498.176 46.288 497.536 46.816 496.8 47.232C496.096 47.648 495.328 47.936 494.496 48.096C493.664 48.288 492.832 48.384 492 48.384ZM513.84 48L506.112 12.72H509.952L514.752 36.24C514.976 37.264 515.184 38.288 515.376 39.312C515.6 40.336 515.808 41.36 516 42.384C516.192 41.36 516.384 40.336 516.576 39.312C516.8 38.288 517.024 37.264 517.248 36.24L522.048 12.72H525.888L518.16 48H513.84ZM533.616 48L529.536 12.72H533.28L535.584 42.912L538.128 22.608H541.872L544.416 42.912L546.72 12.72H550.464L546.384 48H542.688L540 29.088L537.312 48H533.616ZM554.304 48L562.08 30.336L554.304 12.72H558.384L564 25.824L569.616 12.72H573.696L565.92 30.384L573.696 48H569.616L564 34.896L558.384 48H554.304ZM586.128 48V33.984L578.16 12.72H582.144L588 28.704L593.856 12.72H597.84L589.872 33.984V48H586.128ZM603.072 48V44.64L616.656 16.08H603.072V12.72H620.928V16.08L607.344 44.64H620.928V48H603.072ZM10.512 108.384C9.712 108.384 8.912 108.272 8.112 108.048C7.344 107.824 6.64 107.472 6 106.992C5.36 106.512 4.816 105.936 4.368 105.264C3.952 104.592 3.616 103.888 3.36 103.152C3.104 102.384 2.928 101.6 2.832 100.8C2.736 100 2.688 99.2 2.688 98.4V92.64C2.688 91.776 2.752 90.928 2.88 90.096C3.008 89.232 3.248 88.4 3.6 87.6C3.952 86.8 4.416 86.08 4.992 85.44C5.568 84.768 6.224 84.224 6.96 83.808C7.728 83.392 8.528 83.104 9.36 82.944C10.224 82.752 11.088 82.656 11.952 82.656C12.816 82.656 13.664 82.752 14.496 82.944C15.328 83.104 16.112 83.408 16.848 83.856C17.584 84.272 18.224 84.816 18.768 85.488C19.312 86.16 19.744 86.896 20.064 87.696C20.384 88.464 20.608 89.264 20.736 90.096C20.864 90.928 20.928 91.776 20.928 92.64V108H17.184V103.632C16.928 104.304 16.592 104.96 16.176 105.6C15.76 106.208 15.248 106.736 14.64 107.184C14.064 107.6 13.408 107.904 12.672 108.096C11.968 108.288 11.248 108.384 10.512 108.384ZM11.952 105.024C12.496 105.024 13.024 104.96 13.536 104.832C14.08 104.704 14.56 104.48 14.976 104.16C15.392 103.84 15.744 103.456 16.032 103.008C16.352 102.528 16.592 102.048 16.752 101.568C16.912 101.056 17.024 100.544 17.088 100.032C17.152 99.488 17.184 98.944 17.184 98.4V92.64C17.184 92.096 17.152 91.568 17.088 91.056C17.024 90.512 16.912 90 16.752 89.52C16.592 89.008 16.352 88.528 16.032 88.08C15.744 87.6 15.376 87.2 14.928 86.88C14.512 86.56 14.048 86.336 13.536 86.208C13.024 86.08 12.496 86.016 11.952 86.016C11.408 86.016 10.864 86.08 10.32 86.208C9.776 86.336 9.28 86.56 8.832 86.88C8.384 87.168 8 87.536 7.68 87.984C7.36 88.432 7.104 88.912 6.912 89.424C6.72 89.936 6.592 90.464 6.528 91.008C6.464 91.552 6.432 92.096 6.432 92.64V98.4C6.432 98.944 6.464 99.488 6.528 100.032C6.592 100.576 6.72 101.104 6.912 101.616C7.104 102.128 7.36 102.608 7.68 103.056C8.032 103.504 8.432 103.888 8.88 104.208C9.328 104.496 9.808 104.704 10.32 104.832C10.864 104.96 11.408 105.024 11.952 105.024ZM36.048 108.384C35.184 108.384 34.336 108.288 33.504 108.096C32.672 107.936 31.888 107.648 31.152 107.232C30.416 106.784 29.776 106.224 29.232 105.552C28.688 104.88 28.256 104.16 27.936 103.392C27.616 102.592 27.392 101.776 27.264 100.944C27.136 100.112 27.072 99.264 27.072 98.4V72.72H30.816V87.408C31.072 86.736 31.408 86.096 31.824 85.488C32.24 84.848 32.736 84.32 33.312 83.904C33.92 83.456 34.576 83.136 35.28 82.944C36.016 82.752 36.752 82.656 37.488 82.656C38.288 82.656 39.072 82.768 39.84 82.992C40.64 83.216 41.36 83.568 42 84.048C42.64 84.528 43.168 85.104 43.584 85.776C44.032 86.448 44.384 87.168 44.64 87.936C44.896 88.672 45.072 89.44 45.168 90.24C45.264 91.04 45.312 91.84 45.312 92.64V98.4C45.312 99.264 45.248 100.128 45.12 100.992C44.992 101.824 44.752 102.64 44.4 103.44C44.048 104.24 43.584 104.976 43.008 105.648C42.432 106.288 41.76 106.816 40.992 107.232C40.256 107.648 39.456 107.936 38.592 108.096C37.76 108.288 36.912 108.384 36.048 108.384ZM36.048 105.024C36.592 105.024 37.136 104.96 37.68 104.832C38.224 104.704 38.72 104.496 39.168 104.208C39.616 103.888 40 103.504 40.32 103.056C40.64 102.608 40.896 102.128 41.088 101.616C41.28 101.104 41.408 100.576 41.472 100.032C41.536 99.488 41.568 98.944 41.568 98.4V92.64C41.568 92.096 41.536 91.552 41.472 91.008C41.408 90.464 41.28 89.936 41.088 89.424C40.896 88.912 40.624 88.432 40.272 87.984C39.952 87.536 39.568 87.168 39.12 86.88C38.672 86.56 38.176 86.336 37.632 86.208C37.12 86.08 36.592 86.016 36.048 86.016C35.504 86.016 34.96 86.08 34.416 86.208C33.904 86.336 33.44 86.56 33.024 86.88C32.608 87.2 32.24 87.6 31.92 88.08C31.632 88.528 31.408 89.008 31.248 89.52C31.088 90 30.976 90.512 30.912 91.056C30.848 91.568 30.816 92.096 30.816 92.64V98.4C30.816 98.944 30.848 99.488 30.912 100.032C30.976 100.544 31.088 101.056 31.248 101.568C31.408 102.048 31.632 102.528 31.92 103.008C32.24 103.456 32.608 103.84 33.024 104.16C33.472 104.48 33.952 104.704 34.464 104.832C34.976 104.96 35.504 105.024 36.048 105.024ZM59.856 108.384C59.024 108.384 58.176 108.288 57.312 108.096C56.448 107.936 55.648 107.648 54.912 107.232C54.176 106.784 53.52 106.24 52.944 105.6C52.4 104.928 51.952 104.208 51.6 103.44C51.248 102.64 51.008 101.824 50.88 100.992C50.752 100.128 50.688 99.264 50.688 98.4V92.64C50.688 91.776 50.752 90.928 50.88 90.096C51.008 89.232 51.248 88.416 51.6 87.648C51.952 86.848 52.4 86.128 52.944 85.488C53.52 84.816 54.176 84.272 54.912 83.856C55.648 83.408 56.448 83.104 57.312 82.944C58.176 82.752 59.024 82.656 59.856 82.656C60.656 82.656 61.456 82.736 62.256 82.896C63.056 83.024 63.808 83.264 64.512 83.616C65.248 83.968 65.904 84.432 66.48 85.008C67.056 85.552 67.536 86.176 67.92 86.88C68.304 87.584 68.576 88.336 68.736 89.136C68.928 89.904 69.024 90.688 69.024 91.488V91.584H65.28V91.536C65.28 90.8 65.168 90.08 64.944 89.376C64.72 88.672 64.352 88.064 63.84 87.552C63.328 87.008 62.72 86.624 62.016 86.4C61.312 86.144 60.592 86.016 59.856 86.016C59.312 86.016 58.768 86.08 58.224 86.208C57.712 86.336 57.232 86.56 56.784 86.88C56.336 87.2 55.952 87.584 55.632 88.032C55.344 88.48 55.104 88.96 54.912 89.472C54.72 89.952 54.592 90.464 54.528 91.008C54.464 91.552 54.432 92.096 54.432 92.64V98.4C54.432 98.944 54.464 99.488 54.528 100.032C54.592 100.576 54.72 101.104 54.912 101.616C55.104 102.096 55.344 102.56 55.632 103.008C55.952 103.456 56.336 103.84 56.784 104.16C57.232 104.48 57.712 104.704 58.224 104.832C58.768 104.96 59.312 105.024 59.856 105.024C60.592 105.024 61.312 104.912 62.016 104.688C62.72 104.432 63.328 104.048 63.84 103.536C64.352 102.992 64.72 102.368 64.944 101.664C65.168 100.96 65.28 100.24 65.28 99.504V99.456H69.024V99.552C69.024 100.352 68.928 101.152 68.736 101.952C68.576 102.72 68.304 103.456 67.92 104.16C67.536 104.864 67.056 105.504 66.48 106.08C65.904 106.624 65.248 107.072 64.512 107.424C63.808 107.776 63.056 108.016 62.256 108.144C61.456 108.304 60.656 108.384 59.856 108.384ZM83.952 108.384C83.088 108.384 82.224 108.288 81.36 108.096C80.528 107.936 79.728 107.648 78.96 107.232C78.224 106.816 77.568 106.288 76.992 105.648C76.416 104.976 75.952 104.24 75.6 103.44C75.248 102.64 75.008 101.824 74.88 100.992C74.752 100.128 74.688 99.264 74.688 98.4V92.64C74.688 91.84 74.736 91.04 74.832 90.24C74.928 89.44 75.104 88.672 75.36 87.936C75.616 87.168 75.952 86.448 76.368 85.776C76.816 85.104 77.36 84.528 78 84.048C78.64 83.568 79.344 83.216 80.112 82.992C80.912 82.768 81.712 82.656 82.512 82.656C83.248 82.656 83.968 82.752 84.672 82.944C85.408 83.136 86.064 83.456 86.64 83.904C87.248 84.32 87.76 84.848 88.176 85.488C88.592 86.096 88.928 86.736 89.184 87.408V72.72H92.928V98.4C92.928 99.264 92.864 100.112 92.736 100.944C92.608 101.776 92.384 102.592 92.064 103.392C91.744 104.16 91.312 104.88 90.768 105.552C90.224 106.224 89.584 106.784 88.848 107.232C88.112 107.648 87.328 107.936 86.496 108.096C85.664 108.288 84.816 108.384 83.952 108.384ZM83.952 105.024C84.496 105.024 85.024 104.96 85.536 104.832C86.048 104.704 86.512 104.48 86.928 104.16C87.376 103.84 87.744 103.456 88.032 103.008C88.352 102.528 88.592 102.048 88.752 101.568C88.912 101.056 89.024 100.544 89.088 100.032C89.152 99.488 89.184 98.944 89.184 98.4V92.64C89.184 92.096 89.152 91.568 89.088 91.056C89.024 90.512 88.912 90 88.752 89.52C88.592 89.008 88.352 88.528 88.032 88.08C87.744 87.6 87.392 87.2 86.976 86.88C86.56 86.56 86.08 86.336 85.536 86.208C85.024 86.08 84.496 86.016 83.952 86.016C83.408 86.016 82.864 86.08 82.32 86.208C81.808 86.336 81.328 86.56 80.88 86.88C80.432 87.168 80.032 87.536 79.68 87.984C79.36 88.432 79.104 88.912 78.912 89.424C78.72 89.936 78.592 90.464 78.528 91.008C78.464 91.552 78.432 92.096 78.432 92.64V98.4C78.432 98.944 78.464 99.488 78.528 100.032C78.592 100.576 78.72 101.104 78.912 101.616C79.104 102.128 79.36 102.608 79.68 103.056C80 103.504 80.384 103.888 80.832 104.208C81.28 104.496 81.776 104.704 82.32 104.832C82.864 104.96 83.408 105.024 83.952 105.024ZM108.096 108.384C107.232 108.384 106.368 108.304 105.504 108.144C104.64 107.984 103.824 107.696 103.056 107.28C102.32 106.832 101.648 106.288 101.04 105.648C100.464 104.976 99.984 104.256 99.6 103.488C99.248 102.688 99.008 101.856 98.88 100.992C98.752 100.128 98.688 99.264 98.688 98.4V92.64C98.688 91.776 98.752 90.912 98.88 90.048C99.008 89.184 99.248 88.368 99.6 87.6C99.952 86.8 100.416 86.08 100.992 85.44C101.6 84.768 102.272 84.224 103.008 83.808C103.744 83.392 104.544 83.104 105.408 82.944C106.272 82.752 107.136 82.656 108 82.656C108.864 82.656 109.728 82.752 110.592 82.944C111.456 83.104 112.256 83.392 112.992 83.808C113.728 84.224 114.384 84.768 114.96 85.44C115.568 86.08 116.048 86.8 116.4 87.6C116.752 88.368 116.992 89.184 117.12 90.048C117.248 90.912 117.312 91.776 117.312 92.64V97.2H102.432V98.4C102.432 98.944 102.464 99.488 102.528 100.032C102.592 100.576 102.72 101.104 102.912 101.616C103.136 102.128 103.408 102.608 103.728 103.056C104.08 103.504 104.48 103.888 104.928 104.208C105.408 104.496 105.92 104.704 106.464 104.832C107.008 104.96 107.552 105.024 108.096 105.024C108.704 105.024 109.312 104.96 109.92 104.832C110.56 104.704 111.136 104.48 111.648 104.16C112.16 103.84 112.576 103.408 112.896 102.864C113.248 102.32 113.44 101.728 113.472 101.088H117.216C117.184 101.824 117.04 102.544 116.784 103.248C116.56 103.92 116.224 104.56 115.776 105.168C115.36 105.744 114.848 106.256 114.24 106.704C113.664 107.12 113.04 107.456 112.368 107.712C111.696 107.968 110.992 108.144 110.256 108.24C109.52 108.336 108.8 108.384 108.096 108.384ZM113.568 93.84V92.64C113.568 92.096 113.536 91.552 113.472 91.008C113.408 90.464 113.28 89.936 113.088 89.424C112.896 88.912 112.624 88.432 112.272 87.984C111.952 87.536 111.568 87.168 111.12 86.88C110.672 86.56 110.176 86.336 109.632 86.208C109.088 86.08 108.544 86.016 108 86.016C107.456 86.016 106.912 86.08 106.368 86.208C105.824 86.336 105.328 86.56 104.88 86.88C104.432 87.168 104.032 87.536 103.68 87.984C103.36 88.432 103.104 88.912 102.912 89.424C102.72 89.936 102.592 90.464 102.528 91.008C102.464 91.552 102.432 92.096 102.432 92.64V93.84H113.568ZM128.4 108V88.704H123.072V85.296H128.4V80.208C128.4 79.568 128.432 78.928 128.496 78.288C128.592 77.616 128.752 76.976 128.976 76.368C129.232 75.76 129.552 75.184 129.936 74.64C130.32 74.096 130.784 73.648 131.328 73.296C131.904 72.944 132.512 72.704 133.152 72.576C133.792 72.416 134.432 72.336 135.072 72.336C135.968 72.336 136.848 72.48 137.712 72.768C138.608 73.024 139.36 73.488 139.968 74.16C140.576 74.8 141.024 75.552 141.312 76.416C141.6 77.28 141.744 78.16 141.744 79.056V79.44H138V79.248C138 78.8 137.952 78.368 137.856 77.952C137.76 77.536 137.584 77.152 137.328 76.8C137.072 76.416 136.736 76.144 136.32 75.984C135.936 75.792 135.52 75.696 135.072 75.696C134.56 75.696 134.08 75.84 133.632 76.128C133.216 76.416 132.896 76.784 132.672 77.232C132.448 77.68 132.288 78.16 132.192 78.672C132.128 79.184 132.096 79.696 132.096 80.208V85.296H140.016V88.656H132.096V108H128.4ZM155.856 118.704C155.12 118.704 154.384 118.64 153.648 118.512C152.944 118.416 152.256 118.224 151.584 117.936C150.912 117.68 150.288 117.312 149.712 116.832C149.136 116.384 148.64 115.856 148.224 115.248C147.84 114.64 147.536 113.984 147.312 113.28C147.12 112.576 147.008 111.856 146.976 111.12H150.72C150.752 111.76 150.896 112.352 151.152 112.896C151.44 113.472 151.824 113.952 152.304 114.336C152.816 114.72 153.376 114.976 153.984 115.104C154.592 115.264 155.216 115.344 155.856 115.344C156.4 115.344 156.928 115.28 157.44 115.152C157.984 115.024 158.464 114.8 158.88 114.48C159.328 114.16 159.696 113.776 159.984 113.328C160.304 112.88 160.544 112.4 160.704 111.888C160.896 111.376 161.024 110.848 161.088 110.304C161.152 109.792 161.184 109.264 161.184 108.72V103.632C160.928 104.304 160.592 104.96 160.176 105.6C159.76 106.208 159.248 106.736 158.64 107.184C158.064 107.6 157.408 107.904 156.672 108.096C155.968 108.288 155.248 108.384 154.512 108.384C153.712 108.384 152.912 108.272 152.112 108.048C151.344 107.824 150.64 107.472 150 106.992C149.36 106.512 148.816 105.936 148.368 105.264C147.952 104.592 147.616 103.888 147.36 103.152C147.104 102.384 146.928 101.6 146.832 100.8C146.736 100 146.688 99.2 146.688 98.4V92.64C146.688 91.776 146.752 90.928 146.88 90.096C147.008 89.232 147.248 88.4 147.6 87.6C147.952 86.8 148.416 86.08 148.992 85.44C149.568 84.768 150.224 84.224 150.96 83.808C151.728 83.392 152.528 83.104 153.36 82.944C154.224 82.752 155.088 82.656 155.952 82.656C156.816 82.656 157.664 82.752 158.496 82.944C159.328 83.104 160.112 83.408 160.848 83.856C161.584 84.272 162.224 84.816 162.768 85.488C163.312 86.16 163.744 86.896 164.064 87.696C164.384 88.464 164.608 89.264 164.736 90.096C164.864 90.928 164.928 91.776 164.928 92.64V108.72C164.928 109.584 164.864 110.432 164.736 111.264C164.608 112.128 164.368 112.944 164.016 113.712C163.696 114.512 163.248 115.232 162.672 115.872C162.128 116.544 161.488 117.088 160.752 117.504C160.016 117.952 159.216 118.256 158.352 118.416C157.52 118.608 156.688 118.704 155.856 118.704ZM155.952 105.024C156.496 105.024 157.024 104.96 157.536 104.832C158.08 104.704 158.56 104.48 158.976 104.16C159.392 103.84 159.744 103.456 160.032 103.008C160.352 102.528 160.592 102.048 160.752 101.568C160.912 101.056 161.024 100.544 161.088 100.032C161.152 99.488 161.184 98.944 161.184 98.4V92.64C161.184 92.096 161.152 91.568 161.088 91.056C161.024 90.512 160.912 90 160.752 89.52C160.592 89.008 160.352 88.528 160.032 88.08C159.744 87.6 159.376 87.2 158.928 86.88C158.512 86.56 158.048 86.336 157.536 86.208C157.024 86.08 156.496 86.016 155.952 86.016C155.408 86.016 154.864 86.08 154.32 86.208C153.776 86.336 153.28 86.56 152.832 86.88C152.384 87.168 152 87.536 151.68 87.984C151.36 88.432 151.104 88.912 150.912 89.424C150.72 89.936 150.592 90.464 150.528 91.008C150.464 91.552 150.432 92.096 150.432 92.64V98.4C150.432 98.944 150.464 99.488 150.528 100.032C150.592 100.576 150.72 101.104 150.912 101.616C151.104 102.128 151.36 102.608 151.68 103.056C152.032 103.504 152.432 103.888 152.88 104.208C153.328 104.496 153.808 104.704 154.32 104.832C154.864 104.96 155.408 105.024 155.952 105.024ZM171.072 108V72.72H174.816V87.408C175.072 86.736 175.408 86.096 175.824 85.488C176.24 84.88 176.736 84.352 177.312 83.904C177.92 83.456 178.576 83.136 179.28 82.944C180.016 82.752 180.736 82.656 181.44 82.656C182.24 82.656 183.024 82.768 183.792 82.992C184.56 83.216 185.232 83.584 185.808 84.096C186.416 84.576 186.928 85.168 187.344 85.872C187.76 86.544 188.08 87.264 188.304 88.032C188.56 88.768 188.72 89.536 188.784 90.336C188.88 91.104 188.928 91.872 188.928 92.64V108H185.184V92.64C185.184 92.096 185.152 91.568 185.088 91.056C185.024 90.512 184.912 90 184.752 89.52C184.592 89.008 184.352 88.528 184.032 88.08C183.744 87.632 183.392 87.248 182.976 86.928C182.56 86.608 182.096 86.384 181.584 86.256C181.072 86.096 180.544 86.016 180 86.016C179.456 86.016 178.928 86.096 178.416 86.256C177.904 86.384 177.44 86.608 177.024 86.928C176.608 87.248 176.24 87.632 175.92 88.08C175.632 88.528 175.408 89.008 175.248 89.52C175.088 90 174.976 90.512 174.912 91.056C174.848 91.568 174.816 92.096 174.816 92.64V108H171.072ZM209.568 108C208.896 108 208.224 107.952 207.552 107.856C206.912 107.728 206.288 107.52 205.68 107.232C205.072 106.944 204.528 106.56 204.048 106.08C203.6 105.6 203.216 105.056 202.896 104.448C202.608 103.84 202.4 103.216 202.272 102.576C202.176 101.904 202.128 101.232 202.128 100.56V86.4H195.6V83.04H205.872V100.56C205.872 101.104 205.936 101.632 206.064 102.144C206.192 102.656 206.416 103.12 206.736 103.536C207.088 103.92 207.52 104.208 208.032 104.4C208.544 104.56 209.056 104.64 209.568 104.64H212.832V108H209.568ZM204 78.816C203.584 78.816 203.184 78.768 202.8 78.672C202.416 78.544 202.08 78.336 201.792 78.048C201.504 77.76 201.296 77.424 201.168 77.04C201.072 76.656 201.024 76.256 201.024 75.84C201.024 75.424 201.072 75.024 201.168 74.64C201.296 74.256 201.504 73.92 201.792 73.632C202.08 73.344 202.416 73.136 202.8 73.008C203.184 72.88 203.584 72.816 204 72.816C204.416 72.816 204.816 72.88 205.2 73.008C205.584 73.136 205.92 73.344 206.208 73.632C206.496 73.92 206.704 74.256 206.832 74.64C206.96 75.024 207.024 75.424 207.024 75.84C207.024 76.256 206.96 76.656 206.832 77.04C206.704 77.424 206.496 77.76 206.208 78.048C205.92 78.336 205.584 78.544 205.2 78.672C204.816 78.768 204.416 78.816 204 78.816ZM219.84 118.32V114.96H225.456C225.968 114.96 226.48 114.864 226.992 114.672C227.504 114.512 227.92 114.224 228.24 113.808C228.592 113.424 228.832 112.976 228.96 112.464C229.088 111.952 229.152 111.424 229.152 110.88V86.4H222.624V83.04H232.896V110.88C232.896 111.552 232.832 112.208 232.704 112.848C232.608 113.52 232.4 114.16 232.08 114.768C231.792 115.376 231.408 115.92 230.928 116.4C230.48 116.88 229.952 117.264 229.344 117.552C228.736 117.84 228.096 118.032 227.424 118.128C226.784 118.256 226.128 118.32 225.456 118.32H219.84ZM230.4 78.816C229.984 78.816 229.584 78.768 229.2 78.672C228.816 78.544 228.48 78.336 228.192 78.048C227.904 77.76 227.696 77.424 227.568 77.04C227.472 76.656 227.424 76.256 227.424 75.84C227.424 75.424 227.472 75.024 227.568 74.64C227.696 74.256 227.904 73.92 228.192 73.632C228.48 73.344 228.816 73.136 229.2 73.008C229.584 72.88 229.984 72.816 230.4 72.816C230.816 72.816 231.216 72.88 231.6 73.008C231.984 73.136 232.32 73.344 232.608 73.632C232.896 73.92 233.104 74.256 233.232 74.64C233.36 75.024 233.424 75.424 233.424 75.84C233.424 76.256 233.36 76.656 233.232 77.04C233.104 77.424 232.896 77.76 232.608 78.048C232.32 78.336 231.984 78.544 231.6 78.672C231.216 78.768 230.816 78.816 230.4 78.816ZM243.84 108V72.72H247.536V93.888L249.504 91.488L256.608 83.04H261.264L250.848 95.52L261.264 108H256.608L247.536 97.152V108H243.84ZM281.568 108C280.896 108 280.224 107.952 279.552 107.856C278.912 107.728 278.288 107.52 277.68 107.232C277.072 106.944 276.528 106.56 276.048 106.08C275.6 105.6 275.216 105.056 274.896 104.448C274.608 103.84 274.4 103.216 274.272 102.576C274.176 101.904 274.128 101.232 274.128 100.56V76.08H267.6V72.72H277.872V100.56C277.872 101.104 277.936 101.632 278.064 102.144C278.192 102.656 278.416 103.12 278.736 103.536C279.088 103.92 279.52 104.208 280.032 104.4C280.544 104.56 281.056 104.64 281.568 104.64H284.832V108H281.568ZM290.304 108V89.088C290.304 88.32 290.384 87.552 290.544 86.784C290.736 85.984 291.056 85.264 291.504 84.624C291.952 83.984 292.544 83.504 293.28 83.184C294.048 82.832 294.816 82.656 295.584 82.656C296.064 82.656 296.528 82.72 296.976 82.848C297.424 82.944 297.84 83.12 298.224 83.376C298.64 83.6 298.992 83.904 299.28 84.288C299.568 84.64 299.808 85.024 300 85.44C300.192 85.024 300.432 84.64 300.72 84.288C301.008 83.904 301.344 83.6 301.728 83.376C302.144 83.12 302.576 82.944 303.024 82.848C303.472 82.72 303.936 82.656 304.416 82.656C305.184 82.656 305.936 82.832 306.672 83.184C307.44 83.504 308.048 83.984 308.496 84.624C308.944 85.264 309.248 85.984 309.408 86.784C309.6 87.552 309.696 88.32 309.696 89.088V108H305.952V89.088C305.952 88.736 305.92 88.4 305.856 88.08C305.824 87.728 305.728 87.392 305.568 87.072C305.408 86.752 305.168 86.496 304.848 86.304C304.56 86.112 304.24 86.016 303.888 86.016C303.568 86.016 303.248 86.112 302.928 86.304C302.64 86.496 302.416 86.752 302.256 87.072C302.096 87.392 301.984 87.728 301.92 88.08C301.888 88.4 301.872 88.736 301.872 89.088V98.256H298.128V89.088C298.128 88.736 298.096 88.4 298.032 88.08C298 87.728 297.904 87.392 297.744 87.072C297.584 86.752 297.344 86.496 297.024 86.304C296.736 86.112 296.432 86.016 296.112 86.016C295.76 86.016 295.424 86.112 295.104 86.304C294.816 86.496 294.592 86.752 294.432 87.072C294.272 87.392 294.16 87.728 294.096 88.08C294.064 88.4 294.048 88.736 294.048 89.088V108H290.304ZM315.072 108V92.64C315.072 91.808 315.136 90.976 315.264 90.144C315.392 89.28 315.616 88.464 315.936 87.696C316.256 86.896 316.688 86.176 317.232 85.536C317.776 84.864 318.4 84.304 319.104 83.856C319.84 83.408 320.624 83.104 321.456 82.944C322.32 82.752 323.168 82.656 324 82.656C324.832 82.656 325.664 82.752 326.496 82.944C327.36 83.104 328.144 83.408 328.848 83.856C329.584 84.304 330.224 84.864 330.768 85.536C331.312 86.176 331.744 86.896 332.064 87.696C332.384 88.464 332.608 89.28 332.736 90.144C332.864 90.976 332.928 91.808 332.928 92.64V108H329.184V92.64C329.184 92.096 329.152 91.568 329.088 91.056C329.024 90.512 328.912 90 328.752 89.52C328.592 89.008 328.352 88.528 328.032 88.08C327.744 87.632 327.392 87.248 326.976 86.928C326.56 86.608 326.096 86.384 325.584 86.256C325.072 86.096 324.544 86.016 324 86.016C323.456 86.016 322.928 86.096 322.416 86.256C321.904 86.384 321.44 86.608 321.024 86.928C320.608 87.248 320.24 87.632 319.92 88.08C319.632 88.528 319.408 89.008 319.248 89.52C319.088 90 318.976 90.512 318.912 91.056C318.848 91.568 318.816 92.096 318.816 92.64V108H315.072ZM348 108.384C347.136 108.384 346.272 108.288 345.408 108.096C344.544 107.936 343.744 107.648 343.008 107.232C342.272 106.816 341.6 106.288 340.992 105.648C340.416 104.976 339.952 104.256 339.6 103.488C339.248 102.688 339.008 101.856 338.88 100.992C338.752 100.128 338.688 99.264 338.688 98.4V92.64C338.688 91.776 338.752 90.912 338.88 90.048C339.008 89.184 339.248 88.368 339.6 87.6C339.952 86.8 340.416 86.08 340.992 85.44C341.6 84.768 342.272 84.224 343.008 83.808C343.744 83.392 344.544 83.104 345.408 82.944C346.272 82.752 347.136 82.656 348 82.656C348.864 82.656 349.728 82.752 350.592 82.944C351.456 83.104 352.256 83.392 352.992 83.808C353.728 84.224 354.384 84.768 354.96 85.44C355.568 86.08 356.048 86.8 356.4 87.6C356.752 88.368 356.992 89.184 357.12 90.048C357.248 90.912 357.312 91.776 357.312 92.64V98.4C357.312 99.264 357.248 100.128 357.12 100.992C356.992 101.856 356.752 102.688 356.4 103.488C356.048 104.256 355.568 104.976 354.96 105.648C354.384 106.288 353.728 106.816 352.992 107.232C352.256 107.648 351.456 107.936 350.592 108.096C349.728 108.288 348.864 108.384 348 108.384ZM348 105.024C348.544 105.024 349.088 104.96 349.632 104.832C350.176 104.704 350.672 104.496 351.12 104.208C351.568 103.888 351.952 103.504 352.272 103.056C352.624 102.608 352.896 102.128 353.088 101.616C353.28 101.104 353.408 100.576 353.472 100.032C353.536 99.488 353.568 98.944 353.568 98.4V92.64C353.568 92.096 353.536 91.552 353.472 91.008C353.408 90.464 353.28 89.936 353.088 89.424C352.896 88.912 352.624 88.432 352.272 87.984C351.952 87.536 351.568 87.168 351.12 86.88C350.672 86.56 350.176 86.336 349.632 86.208C349.088 86.08 348.544 86.016 348 86.016C347.456 86.016 346.912 86.08 346.368 86.208C345.824 86.336 345.328 86.56 344.88 86.88C344.432 87.168 344.032 87.536 343.68 87.984C343.36 88.432 343.104 88.912 342.912 89.424C342.72 89.936 342.592 90.464 342.528 91.008C342.464 91.552 342.432 92.096 342.432 92.64V98.4C342.432 98.944 342.464 99.488 342.528 100.032C342.592 100.576 342.72 101.104 342.912 101.616C343.104 102.128 343.36 102.608 343.68 103.056C344.032 103.504 344.432 103.888 344.88 104.208C345.328 104.496 345.824 104.704 346.368 104.832C346.912 104.96 347.456 105.024 348 105.024ZM363.072 118.32V92.64C363.072 91.776 363.136 90.928 363.264 90.096C363.392 89.264 363.616 88.464 363.936 87.696C364.256 86.896 364.688 86.16 365.232 85.488C365.776 84.816 366.416 84.272 367.152 83.856C367.888 83.408 368.672 83.104 369.504 82.944C370.336 82.752 371.184 82.656 372.048 82.656C372.912 82.656 373.76 82.752 374.592 82.944C375.456 83.104 376.256 83.392 376.992 83.808C377.76 84.224 378.432 84.768 379.008 85.44C379.584 86.08 380.048 86.8 380.4 87.6C380.752 88.4 380.992 89.232 381.12 90.096C381.248 90.928 381.312 91.776 381.312 92.64V98.4C381.312 99.2 381.264 100 381.168 100.8C381.072 101.6 380.896 102.384 380.64 103.152C380.384 103.888 380.032 104.592 379.584 105.264C379.168 105.936 378.64 106.512 378 106.992C377.36 107.472 376.64 107.824 375.84 108.048C375.072 108.272 374.288 108.384 373.488 108.384C372.752 108.384 372.016 108.288 371.28 108.096C370.576 107.904 369.92 107.6 369.312 107.184C368.736 106.736 368.24 106.208 367.824 105.6C367.408 104.96 367.072 104.304 366.816 103.632V118.32H363.072ZM372.048 105.024C372.592 105.024 373.12 104.96 373.632 104.832C374.176 104.704 374.672 104.496 375.12 104.208C375.568 103.888 375.952 103.504 376.272 103.056C376.624 102.608 376.896 102.128 377.088 101.616C377.28 101.104 377.408 100.576 377.472 100.032C377.536 99.488 377.568 98.944 377.568 98.4V92.64C377.568 92.096 377.536 91.552 377.472 91.008C377.408 90.464 377.28 89.936 377.088 89.424C376.896 88.912 376.64 88.432 376.32 87.984C376 87.536 375.616 87.168 375.168 86.88C374.72 86.56 374.224 86.336 373.68 86.208C373.136 86.08 372.592 86.016 372.048 86.016C371.504 86.016 370.976 86.08 370.464 86.208C369.952 86.336 369.472 86.56 369.024 86.88C368.608 87.2 368.24 87.6 367.92 88.08C367.632 88.528 367.408 89.008 367.248 89.52C367.088 90 366.976 90.512 366.912 91.056C366.848 91.568 366.816 92.096 366.816 92.64V98.4C366.816 98.944 366.848 99.488 366.912 100.032C366.976 100.544 367.088 101.056 367.248 101.568C367.408 102.048 367.632 102.528 367.92 103.008C368.24 103.456 368.608 103.84 369.024 104.16C369.44 104.48 369.904 104.704 370.416 104.832C370.96 104.96 371.504 105.024 372.048 105.024ZM401.184 118.32V103.632C400.928 104.304 400.592 104.96 400.176 105.6C399.76 106.208 399.248 106.736 398.64 107.184C398.064 107.6 397.408 107.904 396.672 108.096C395.968 108.288 395.248 108.384 394.512 108.384C393.712 108.384 392.912 108.272 392.112 108.048C391.344 107.824 390.64 107.472 390 106.992C389.36 106.512 388.816 105.936 388.368 105.264C387.952 104.592 387.616 103.888 387.36 103.152C387.104 102.384 386.928 101.6 386.832 100.8C386.736 100 386.688 99.2 386.688 98.4V92.64C386.688 91.776 386.752 90.928 386.88 90.096C387.008 89.232 387.248 88.4 387.6 87.6C387.952 86.8 388.416 86.08 388.992 85.44C389.568 84.768 390.224 84.224 390.96 83.808C391.728 83.392 392.528 83.104 393.36 82.944C394.224 82.752 395.088 82.656 395.952 82.656C396.816 82.656 397.664 82.752 398.496 82.944C399.328 83.104 400.112 83.408 400.848 83.856C401.584 84.272 402.224 84.816 402.768 85.488C403.312 86.16 403.744 86.896 404.064 87.696C404.384 88.464 404.608 89.264 404.736 90.096C404.864 90.928 404.928 91.776 404.928 92.64V118.32H401.184ZM395.952 105.024C396.496 105.024 397.024 104.96 397.536 104.832C398.08 104.704 398.56 104.48 398.976 104.16C399.392 103.84 399.744 103.456 400.032 103.008C400.352 102.528 400.592 102.048 400.752 101.568C400.912 101.056 401.024 100.544 401.088 100.032C401.152 99.488 401.184 98.944 401.184 98.4V92.64C401.184 92.096 401.152 91.568 401.088 91.056C401.024 90.512 400.912 90 400.752 89.52C400.592 89.008 400.352 88.528 400.032 88.08C399.744 87.6 399.376 87.2 398.928 86.88C398.512 86.56 398.048 86.336 397.536 86.208C397.024 86.08 396.496 86.016 395.952 86.016C395.408 86.016 394.864 86.08 394.32 86.208C393.776 86.336 393.28 86.56 392.832 86.88C392.384 87.168 392 87.536 391.68 87.984C391.36 88.432 391.104 88.912 390.912 89.424C390.72 89.936 390.592 90.464 390.528 91.008C390.464 91.552 390.432 92.096 390.432 92.64V98.4C390.432 98.944 390.464 99.488 390.528 100.032C390.592 100.576 390.72 101.104 390.912 101.616C391.104 102.128 391.36 102.608 391.68 103.056C392.032 103.504 392.432 103.888 392.88 104.208C393.328 104.496 393.808 104.704 394.32 104.832C394.864 104.96 395.408 105.024 395.952 105.024ZM413.952 108V92.64C413.952 91.84 414 91.04 414.096 90.24C414.192 89.408 414.368 88.624 414.624 87.888C414.912 87.12 415.28 86.4 415.728 85.728C416.208 85.024 416.768 84.448 417.408 84C418.08 83.52 418.8 83.184 419.568 82.992C420.368 82.768 421.168 82.656 421.968 82.656C422.992 82.656 423.984 82.816 424.944 83.136C425.904 83.424 426.736 83.92 427.44 84.624C428.176 85.296 428.72 86.112 429.072 87.072C429.456 88.032 429.68 89.008 429.744 90H426C425.968 89.456 425.856 88.944 425.664 88.464C425.504 87.952 425.232 87.504 424.848 87.12C424.496 86.736 424.064 86.464 423.552 86.304C423.04 86.112 422.512 86.016 421.968 86.016C421.488 86.016 421.008 86.112 420.528 86.304C420.08 86.464 419.68 86.736 419.328 87.12C418.976 87.472 418.688 87.872 418.464 88.32C418.272 88.768 418.112 89.232 417.984 89.712C417.856 90.192 417.776 90.688 417.744 91.2C417.712 91.68 417.696 92.16 417.696 92.64V108H413.952ZM443.952 108.384C443.248 108.384 442.544 108.336 441.84 108.24C441.136 108.176 440.448 108.032 439.776 107.808C439.104 107.552 438.464 107.232 437.856 106.848C437.248 106.464 436.72 106 436.272 105.456C435.856 104.88 435.536 104.256 435.312 103.584C435.088 102.88 434.976 102.176 434.976 101.472V101.328H438.72V101.376C438.72 101.984 438.88 102.544 439.2 103.056C439.552 103.568 439.984 103.984 440.496 104.304C441.008 104.592 441.552 104.784 442.128 104.88C442.736 104.976 443.344 105.024 443.952 105.024C444.528 105.024 445.104 104.976 445.68 104.88C446.288 104.784 446.848 104.608 447.36 104.352C447.872 104.064 448.304 103.68 448.656 103.2C449.04 102.688 449.232 102.144 449.232 101.568C449.232 100.992 449.072 100.464 448.752 99.984C448.464 99.472 448.096 99.056 447.648 98.736C447.2 98.416 446.704 98.176 446.16 98.016C445.648 97.824 445.12 97.664 444.576 97.536C444.032 97.408 443.488 97.28 442.944 97.152C442.432 97.024 441.904 96.864 441.36 96.672C440.848 96.48 440.336 96.272 439.824 96.048C439.344 95.792 438.88 95.504 438.432 95.184C437.984 94.832 437.568 94.448 437.184 94.032C436.832 93.616 436.528 93.168 436.272 92.688C436.016 92.176 435.808 91.648 435.648 91.104C435.52 90.56 435.456 90.016 435.456 89.472C435.456 88.768 435.552 88.096 435.744 87.456C435.968 86.784 436.288 86.176 436.704 85.632C437.12 85.056 437.616 84.576 438.192 84.192C438.768 83.808 439.376 83.504 440.016 83.28C440.656 83.024 441.312 82.864 441.984 82.8C442.688 82.704 443.376 82.656 444.048 82.656C444.752 82.656 445.44 82.704 446.112 82.8C446.784 82.864 447.44 83.024 448.08 83.28C448.752 83.504 449.36 83.824 449.904 84.24C450.48 84.624 450.976 85.088 451.392 85.632C451.808 86.176 452.112 86.784 452.304 87.456C452.528 88.128 452.64 88.8 452.64 89.472V89.616H448.896V89.568C448.896 88.992 448.752 88.464 448.464 87.984C448.176 87.472 447.792 87.072 447.312 86.784C446.832 86.464 446.304 86.256 445.728 86.16C445.184 86.064 444.624 86.016 444.048 86.016C443.504 86.016 442.944 86.064 442.368 86.16C441.824 86.256 441.312 86.448 440.832 86.736C440.352 87.024 439.952 87.408 439.632 87.888C439.312 88.368 439.152 88.896 439.152 89.472C439.152 90.144 439.36 90.768 439.776 91.344C440.192 91.888 440.688 92.32 441.264 92.64C441.84 92.96 442.448 93.2 443.088 93.36C443.76 93.488 444.416 93.632 445.056 93.792C445.728 93.952 446.368 94.144 446.976 94.368C447.616 94.56 448.224 94.832 448.8 95.184C449.376 95.504 449.92 95.888 450.432 96.336C450.944 96.752 451.376 97.248 451.728 97.824C452.112 98.368 452.4 98.96 452.592 99.6C452.816 100.24 452.928 100.896 452.928 101.568C452.928 102.272 452.816 102.96 452.592 103.632C452.368 104.304 452.032 104.928 451.584 105.504C451.136 106.048 450.608 106.512 450 106.896C449.424 107.28 448.8 107.584 448.128 107.808C447.456 108.032 446.768 108.176 446.064 108.24C445.36 108.336 444.656 108.384 443.952 108.384ZM472.608 108C471.936 108 471.264 107.952 470.592 107.856C469.952 107.728 469.328 107.52 468.72 107.232C468.112 106.944 467.568 106.56 467.088 106.08C466.64 105.6 466.256 105.056 465.936 104.448C465.648 103.84 465.44 103.216 465.312 102.576C465.216 101.904 465.168 101.232 465.168 100.56V86.4H459.072V83.04H465.168V72.72H468.912V83.04H476.928V86.4H468.912V100.56C468.912 101.104 468.976 101.632 469.104 102.144C469.232 102.656 469.456 103.12 469.776 103.536C470.128 103.92 470.544 104.208 471.024 104.4C471.536 104.56 472.064 104.64 472.608 104.64H476.928V108H472.608ZM492 108.384C491.168 108.384 490.32 108.288 489.456 108.096C488.624 107.936 487.84 107.632 487.104 107.184C486.4 106.736 485.776 106.192 485.232 105.552C484.688 104.88 484.256 104.16 483.936 103.392C483.616 102.592 483.392 101.776 483.264 100.944C483.136 100.08 483.072 99.232 483.072 98.4V83.04H486.816V98.4C486.816 98.944 486.848 99.488 486.912 100.032C486.976 100.544 487.088 101.056 487.248 101.568C487.408 102.048 487.632 102.512 487.92 102.96C488.24 103.408 488.608 103.792 489.024 104.112C489.44 104.432 489.904 104.672 490.416 104.832C490.928 104.96 491.456 105.024 492 105.024C492.544 105.024 493.072 104.96 493.584 104.832C494.096 104.672 494.56 104.432 494.976 104.112C495.392 103.792 495.744 103.408 496.032 102.96C496.352 102.512 496.592 102.048 496.752 101.568C496.912 101.056 497.024 100.544 497.088 100.032C497.152 99.488 497.184 98.944 497.184 98.4V83.04H500.928V98.4C500.928 99.232 500.864 100.08 500.736 100.944C500.608 101.776 500.384 102.592 500.064 103.392C499.744 104.16 499.312 104.88 498.768 105.552C498.224 106.192 497.584 106.736 496.848 107.184C496.144 107.632 495.36 107.936 494.496 108.096C493.664 108.288 492.832 108.384 492 108.384ZM513.84 108L506.112 83.04H510.048L514.848 99.696C515.04 100.368 515.232 101.04 515.424 101.712C515.616 102.384 515.808 103.072 516 103.776C516.192 103.072 516.384 102.384 516.576 101.712C516.768 101.04 516.96 100.368 517.152 99.696L521.952 83.04H525.888L518.16 108H513.84ZM533.616 108L529.536 83.04H533.328L535.584 104.352L538.128 90.048H541.872L544.416 104.352L546.672 83.04H550.464L546.384 108H542.688L540 94.656L537.312 108H533.616ZM554.544 108L561.936 95.52L554.544 83.04H558.912L564 91.968L569.088 83.04H573.456L566.064 95.52L573.456 108H569.088L564 99.072L558.912 108H554.544ZM583.248 118.32C583.536 117.36 583.824 116.384 584.112 115.392C584.4 114.432 584.688 113.472 584.976 112.512L586.08 108.72L578.448 83.04H582.336L588.048 102.96L590.064 95.712L593.664 83.04H597.552L587.136 118.32H583.248ZM603.072 108V104.64L616.464 86.4H603.072V83.04H620.928V86.4L607.536 104.64H620.928V108H603.072ZM203.568 168V136.992L196.944 141.792L194.784 139.056L203.568 132.72H207.312V168H203.568ZM219.072 168V164.64L229.632 150.384C230.08 149.776 230.528 149.152 230.976 148.512C231.456 147.872 231.872 147.2 232.224 146.496C232.608 145.792 232.896 145.072 233.088 144.336C233.28 143.568 233.376 142.784 233.376 141.984C233.376 141.216 233.28 140.448 233.088 139.68C232.928 138.88 232.608 138.176 232.128 137.568C231.68 136.928 231.072 136.464 230.304 136.176C229.568 135.856 228.816 135.696 228.048 135.696C227.344 135.696 226.64 135.808 225.936 136.032C225.232 136.256 224.624 136.624 224.112 137.136C223.632 137.648 223.28 138.256 223.056 138.96C222.832 139.632 222.72 140.336 222.72 141.072V141.12H218.976V140.976C218.976 140.208 219.056 139.44 219.216 138.672C219.408 137.872 219.696 137.136 220.08 136.464C220.464 135.76 220.944 135.136 221.52 134.592C222.096 134.048 222.736 133.6 223.44 133.248C224.144 132.896 224.88 132.656 225.648 132.528C226.448 132.4 227.248 132.336 228.048 132.336C228.88 132.336 229.712 132.416 230.544 132.576C231.376 132.736 232.16 133.024 232.896 133.44C233.632 133.856 234.272 134.384 234.816 135.024C235.392 135.632 235.856 136.32 236.208 137.088C236.56 137.856 236.8 138.656 236.928 139.488C237.056 140.32 237.12 141.152 237.12 141.984C237.12 142.944 237.008 143.904 236.784 144.864C236.56 145.792 236.224 146.688 235.776 147.552C235.36 148.384 234.88 149.2 234.336 150C233.792 150.8 233.232 151.584 232.656 152.352L223.536 164.64H236.928V168H219.072ZM252.096 168C251.296 168 250.496 167.936 249.696 167.808C248.928 167.648 248.176 167.392 247.44 167.04C246.736 166.688 246.096 166.224 245.52 165.648C244.944 165.072 244.464 164.432 244.08 163.728C243.728 163.024 243.456 162.288 243.264 161.52C243.072 160.72 242.976 159.92 242.976 159.12H246.72C246.72 159.824 246.832 160.544 247.056 161.28C247.312 161.984 247.68 162.608 248.16 163.152C248.64 163.664 249.232 164.048 249.936 164.304C250.64 164.528 251.36 164.64 252.096 164.64C252.672 164.64 253.232 164.56 253.776 164.4C254.352 164.24 254.848 163.984 255.264 163.632C255.712 163.28 256.08 162.864 256.368 162.384C256.688 161.872 256.928 161.344 257.088 160.8C257.28 160.256 257.408 159.712 257.472 159.168C257.536 158.592 257.568 158.016 257.568 157.44C257.568 156.864 257.536 156.288 257.472 155.712C257.408 155.136 257.28 154.576 257.088 154.032C256.928 153.488 256.688 152.976 256.368 152.496C256.08 151.984 255.696 151.552 255.216 151.2C254.768 150.848 254.256 150.592 253.68 150.432C253.136 150.272 252.576 150.192 252 150.192H247.536V146.832L255.984 136.08H243.072V132.72H260.496V136.08L252 146.832C252.896 146.832 253.776 146.928 254.64 147.12C255.536 147.312 256.352 147.648 257.088 148.128C257.856 148.608 258.528 149.2 259.104 149.904C259.68 150.608 260.128 151.376 260.448 152.208C260.768 153.04 260.992 153.904 261.12 154.8C261.248 155.664 261.312 156.544 261.312 157.44C261.312 158.336 261.248 159.232 261.12 160.128C260.992 160.992 260.768 161.84 260.448 162.672C260.128 163.472 259.68 164.224 259.104 164.928C258.56 165.632 257.904 166.224 257.136 166.704C256.4 167.184 255.6 167.52 254.736 167.712C253.872 167.904 252.992 168 252.096 168ZM279.648 168V158.688H266.688V155.328L277.776 132.72H283.344V168H279.648ZM270.768 155.328H279.648V137.232L276.048 144.528L270.768 155.328ZM300.096 168.384C299.008 168.384 297.92 168.24 296.832 167.952C295.776 167.632 294.832 167.12 294 166.416C293.168 165.68 292.512 164.816 292.032 163.824C291.552 162.8 291.232 161.76 291.072 160.704L291.024 160.224H294.768L294.816 160.464C294.944 161.072 295.136 161.68 295.392 162.288C295.68 162.864 296.064 163.376 296.544 163.824C297.024 164.24 297.568 164.544 298.176 164.736C298.816 164.928 299.456 165.024 300.096 165.024C300.672 165.024 301.232 164.944 301.776 164.784C302.352 164.592 302.864 164.32 303.312 163.968C303.76 163.584 304.128 163.136 304.416 162.624C304.736 162.112 304.976 161.584 305.136 161.04C305.296 160.496 305.408 159.936 305.472 159.36C305.536 158.784 305.568 158.208 305.568 157.632C305.568 157.056 305.536 156.48 305.472 155.904C305.408 155.328 305.28 154.768 305.088 154.224C304.928 153.68 304.688 153.168 304.368 152.688C304.048 152.208 303.664 151.808 303.216 151.488C302.768 151.136 302.256 150.88 301.68 150.72C301.136 150.56 300.576 150.48 300 150.48H291.984V132.72H308.016V136.08H295.68V147.12H300C300.896 147.12 301.776 147.216 302.64 147.408C303.504 147.6 304.32 147.936 305.088 148.416C305.856 148.864 306.512 149.44 307.056 150.144C307.632 150.848 308.08 151.616 308.4 152.448C308.752 153.248 308.992 154.096 309.12 154.992C309.248 155.856 309.312 156.736 309.312 157.632C309.312 158.528 309.248 159.424 309.12 160.32C308.992 161.216 308.768 162.08 308.448 162.912C308.128 163.744 307.696 164.528 307.152 165.264C306.608 165.968 305.952 166.56 305.184 167.04C304.448 167.52 303.632 167.856 302.736 168.048C301.872 168.272 300.992 168.384 300.096 168.384ZM324 168.384C323.04 168.384 322.096 168.256 321.168 168C320.24 167.744 319.392 167.328 318.624 166.752C317.888 166.176 317.248 165.488 316.704 164.688C316.192 163.856 315.776 162.992 315.456 162.096C315.168 161.2 314.96 160.272 314.832 159.312C314.736 158.352 314.688 157.392 314.688 156.432C314.688 155.056 314.832 153.696 315.12 152.352C315.408 151.008 315.792 149.696 316.272 148.416C316.784 147.104 317.344 145.84 317.952 144.624C318.56 143.376 319.184 142.144 319.824 140.928L323.904 132.72H328.032L323.136 142.416C322.752 143.184 322.352 143.952 321.936 144.72C321.552 145.456 321.136 146.192 320.688 146.928V146.976C320.688 147.008 320.672 147.024 320.64 147.024C320.64 147.024 320.64 147.04 320.64 147.072L320.592 147.168C320.56 147.168 320.544 147.184 320.544 147.216C321.12 146.96 321.696 146.784 322.272 146.688C322.88 146.592 323.488 146.544 324.096 146.544C324.992 146.544 325.888 146.656 326.784 146.88C327.68 147.072 328.496 147.424 329.232 147.936C329.968 148.448 330.608 149.072 331.152 149.808C331.696 150.544 332.128 151.328 332.448 152.16C332.8 152.992 333.024 153.856 333.12 154.752C333.248 155.648 333.312 156.544 333.312 157.44C333.312 158.368 333.248 159.28 333.12 160.176C332.992 161.072 332.768 161.952 332.448 162.816C332.128 163.648 331.68 164.432 331.104 165.168C330.56 165.904 329.904 166.528 329.136 167.04C328.4 167.52 327.584 167.856 326.688 168.048C325.792 168.272 324.896 168.384 324 168.384ZM324 165.024C324.576 165.024 325.152 164.944 325.728 164.784C326.304 164.592 326.816 164.304 327.264 163.92C327.744 163.536 328.128 163.088 328.416 162.576C328.736 162.064 328.976 161.536 329.136 160.992C329.296 160.416 329.408 159.84 329.472 159.264C329.536 158.656 329.568 158.048 329.568 157.44C329.568 156.864 329.536 156.288 329.472 155.712C329.408 155.104 329.296 154.528 329.136 153.984C328.976 153.408 328.736 152.864 328.416 152.352C328.128 151.84 327.76 151.392 327.312 151.008C326.864 150.624 326.352 150.352 325.776 150.192C325.2 150 324.608 149.904 324 149.904C323.424 149.904 322.848 150 322.272 150.192C321.696 150.352 321.184 150.624 320.736 151.008C320.288 151.36 319.904 151.808 319.584 152.352C319.296 152.864 319.056 153.408 318.864 153.984C318.704 154.528 318.592 155.104 318.528 155.712C318.464 156.288 318.432 156.864 318.432 157.44C318.432 158.048 318.464 158.656 318.528 159.264C318.592 159.84 318.704 160.416 318.864 160.992C319.024 161.536 319.248 162.064 319.536 162.576C319.856 163.088 320.24 163.536 320.688 163.92C321.168 164.304 321.696 164.592 322.272 164.784C322.848 164.944 323.424 165.024 324 165.024ZM344.352 168C344.352 165.216 344.528 162.448 344.88 159.696C345.264 156.912 345.808 154.176 346.512 151.488C347.216 148.8 348.08 146.176 349.104 143.616C350.16 141.024 351.36 138.512 352.704 136.08H339.072V132.72H356.928V136.08C355.488 138.48 354.208 140.976 353.088 143.568C352 146.128 351.088 148.752 350.352 151.44C349.616 154.128 349.056 156.864 348.672 159.648C348.288 162.432 348.096 165.216 348.096 168H344.352ZM372 168.384C371.168 168.384 370.336 168.288 369.504 168.096C368.672 167.936 367.888 167.648 367.152 167.232C366.416 166.816 365.744 166.304 365.136 165.696C364.56 165.088 364.08 164.416 363.696 163.68C363.344 162.912 363.088 162.112 362.928 161.28C362.768 160.448 362.688 159.6 362.688 158.736C362.688 157.84 362.784 156.944 362.976 156.048C363.168 155.12 363.488 154.256 363.936 153.456C364.416 152.656 364.992 151.936 365.664 151.296C366.368 150.656 367.136 150.16 367.968 149.808C367.232 149.424 366.56 148.928 365.952 148.32C365.376 147.712 364.896 147.04 364.512 146.304C364.128 145.568 363.856 144.784 363.696 143.952C363.536 143.12 363.456 142.288 363.456 141.456C363.456 140.688 363.52 139.92 363.648 139.152C363.808 138.352 364.048 137.6 364.368 136.896C364.72 136.192 365.152 135.552 365.664 134.976C366.208 134.368 366.816 133.872 367.488 133.488C368.16 133.072 368.88 132.784 369.648 132.624C370.448 132.432 371.232 132.336 372 132.336C372.768 132.336 373.536 132.432 374.304 132.624C375.104 132.784 375.84 133.072 376.512 133.488C377.184 133.872 377.776 134.368 378.288 134.976C378.832 135.552 379.264 136.192 379.584 136.896C379.936 137.6 380.176 138.352 380.304 139.152C380.464 139.92 380.544 140.688 380.544 141.456C380.544 142.288 380.464 143.12 380.304 143.952C380.144 144.784 379.872 145.568 379.488 146.304C379.104 147.04 378.608 147.712 378 148.32C377.424 148.928 376.768 149.424 376.032 149.808C376.864 150.16 377.616 150.656 378.288 151.296C378.992 151.936 379.568 152.656 380.016 153.456C380.496 154.256 380.832 155.12 381.024 156.048C381.216 156.944 381.312 157.84 381.312 158.736C381.312 159.6 381.232 160.448 381.072 161.28C380.912 162.112 380.64 162.912 380.256 163.68C379.904 164.416 379.424 165.088 378.816 165.696C378.24 166.304 377.584 166.816 376.848 167.232C376.112 167.648 375.328 167.936 374.496 168.096C373.664 168.288 372.832 168.384 372 168.384ZM372 148.176C372.768 148.176 373.488 147.968 374.16 147.552C374.832 147.136 375.36 146.608 375.744 145.968C376.128 145.296 376.4 144.592 376.56 143.856C376.72 143.088 376.8 142.32 376.8 141.552C376.8 140.848 376.72 140.144 376.56 139.44C376.4 138.736 376.112 138.096 375.696 137.52C375.28 136.944 374.736 136.496 374.064 136.176C373.392 135.856 372.704 135.696 372 135.696C371.296 135.696 370.608 135.856 369.936 136.176C369.264 136.496 368.72 136.944 368.304 137.52C367.888 138.096 367.6 138.736 367.44 139.44C367.28 140.144 367.2 140.848 367.2 141.552C367.2 142.32 367.28 143.088 367.44 143.856C367.6 144.592 367.872 145.296 368.256 145.968C368.64 146.608 369.168 147.136 369.84 147.552C370.512 147.968 371.232 148.176 372 148.176ZM372 165.024C372.8 165.024 373.568 164.864 374.304 164.544C375.072 164.224 375.696 163.76 376.176 163.152C376.688 162.512 377.04 161.808 377.232 161.04C377.456 160.24 377.568 159.44 377.568 158.64C377.568 157.808 377.472 156.976 377.28 156.144C377.088 155.312 376.752 154.544 376.272 153.84C375.792 153.136 375.168 152.576 374.4 152.16C373.632 151.744 372.832 151.536 372 151.536C371.168 151.536 370.368 151.744 369.6 152.16C368.832 152.576 368.208 153.136 367.728 153.84C367.248 154.544 366.912 155.312 366.72 156.144C366.528 156.976 366.432 157.808 366.432 158.64C366.432 159.44 366.528 160.24 366.72 161.04C366.944 161.808 367.296 162.512 367.776 163.152C368.288 163.76 368.912 164.224 369.648 164.544C370.416 164.864 371.2 165.024 372 165.024ZM391.968 168L396.864 158.304C397.248 157.536 397.632 156.784 398.016 156.048C398.432 155.28 398.864 154.528 399.312 153.792V153.744C399.312 153.712 399.312 153.696 399.312 153.696C399.344 153.696 399.36 153.68 399.36 153.648L399.408 153.552H399.456C399.456 153.552 399.456 153.536 399.456 153.504C398.88 153.76 398.288 153.936 397.68 154.032C397.104 154.128 396.512 154.176 395.904 154.176C395.008 154.176 394.112 154.08 393.216 153.888C392.32 153.664 391.504 153.296 390.768 152.784C390.032 152.272 389.392 151.648 388.848 150.912C388.304 150.176 387.856 149.392 387.504 148.56C387.184 147.728 386.96 146.864 386.832 145.968C386.736 145.072 386.688 144.176 386.688 143.28C386.688 142.352 386.752 141.44 386.88 140.544C387.008 139.648 387.232 138.784 387.552 137.952C387.872 137.088 388.304 136.288 388.848 135.552C389.424 134.816 390.08 134.208 390.816 133.728C391.584 133.216 392.416 132.864 393.312 132.672C394.208 132.448 395.104 132.336 396 132.336C396.96 132.336 397.904 132.464 398.832 132.72C399.76 132.976 400.592 133.392 401.328 133.968C402.096 134.544 402.736 135.248 403.248 136.08C403.792 136.88 404.208 137.728 404.496 138.624C404.816 139.52 405.024 140.448 405.12 141.408C405.248 142.368 405.312 143.328 405.312 144.288C405.312 145.664 405.168 147.024 404.88 148.368C404.592 149.712 404.192 151.04 403.68 152.352C403.2 153.632 402.656 154.896 402.048 156.144C401.44 157.36 400.816 158.576 400.176 159.792L396.096 168H391.968ZM396 150.816C396.576 150.816 397.152 150.736 397.728 150.576C398.304 150.384 398.816 150.112 399.264 149.76C399.712 149.376 400.08 148.928 400.368 148.416C400.688 147.872 400.928 147.328 401.088 146.784C401.28 146.208 401.408 145.632 401.472 145.056C401.536 144.448 401.568 143.856 401.568 143.28C401.568 142.672 401.536 142.08 401.472 141.504C401.408 140.896 401.296 140.32 401.136 139.776C400.976 139.2 400.736 138.656 400.416 138.144C400.128 137.632 399.744 137.184 399.264 136.8C398.816 136.416 398.304 136.144 397.728 135.984C397.152 135.792 396.576 135.696 396 135.696C395.424 135.696 394.848 135.792 394.272 135.984C393.696 136.144 393.168 136.416 392.688 136.8C392.24 137.184 391.856 137.632 391.536 138.144C391.248 138.656 391.024 139.2 390.864 139.776C390.704 140.32 390.592 140.896 390.528 141.504C390.464 142.08 390.432 142.672 390.432 143.28C390.432 143.856 390.464 144.448 390.528 145.056C390.592 145.632 390.704 146.208 390.864 146.784C391.024 147.328 391.248 147.856 391.536 148.368C391.856 148.88 392.24 149.328 392.688 149.712C393.136 150.096 393.648 150.384 394.224 150.576C394.8 150.736 395.392 150.816 396 150.816ZM420 168.384C419.136 168.384 418.272 168.288 417.408 168.096C416.544 167.936 415.744 167.648 415.008 167.232C414.272 166.816 413.6 166.288 412.992 165.648C412.416 164.976 411.952 164.256 411.6 163.488C411.248 162.688 411.008 161.856 410.88 160.992C410.752 160.128 410.688 159.264 410.688 158.4V142.32C410.688 141.456 410.752 140.592 410.88 139.728C411.008 138.864 411.248 138.048 411.6 137.28C411.952 136.48 412.416 135.76 412.992 135.12C413.6 134.448 414.272 133.904 415.008 133.488C415.744 133.072 416.544 132.784 417.408 132.624C418.272 132.432 419.136 132.336 420 132.336C420.864 132.336 421.728 132.432 422.592 132.624C423.456 132.784 424.256 133.072 424.992 133.488C425.728 133.904 426.384 134.448 426.96 135.12C427.568 135.76 428.048 136.48 428.4 137.28C428.752 138.048 428.992 138.864 429.12 139.728C429.248 140.592 429.312 141.456 429.312 142.32V158.4C429.312 159.264 429.248 160.128 429.12 160.992C428.992 161.856 428.752 162.688 428.4 163.488C428.048 164.256 427.568 164.976 426.96 165.648C426.384 166.288 425.728 166.816 424.992 167.232C424.256 167.648 423.456 167.936 422.592 168.096C421.728 168.288 420.864 168.384 420 168.384ZM414.432 152.736L425.568 143.856V142.32C425.568 141.776 425.536 141.232 425.472 140.688C425.408 140.144 425.28 139.616 425.088 139.104C424.896 138.592 424.624 138.112 424.272 137.664C423.952 137.216 423.568 136.848 423.12 136.56C422.672 136.24 422.176 136.016 421.632 135.888C421.088 135.76 420.544 135.696 420 135.696C419.456 135.696 418.912 135.76 418.368 135.888C417.824 136.016 417.328 136.24 416.88 136.56C416.432 136.848 416.032 137.216 415.68 137.664C415.36 138.112 415.104 138.592 414.912 139.104C414.72 139.616 414.592 140.144 414.528 140.688C414.464 141.232 414.432 141.776 414.432 142.32V152.736ZM420 165.024C420.544 165.024 421.088 164.96 421.632 164.832C422.176 164.704 422.672 164.496 423.12 164.208C423.568 163.888 423.952 163.504 424.272 163.056C424.624 162.608 424.896 162.128 425.088 161.616C425.28 161.104 425.408 160.576 425.472 160.032C425.536 159.488 425.568 158.944 425.568 158.4V147.984L414.432 156.864V158.4C414.432 158.944 414.464 159.488 414.528 160.032C414.592 160.576 414.72 161.104 414.912 161.616C415.104 162.128 415.36 162.608 415.68 163.056C416.032 163.504 416.432 163.888 416.88 164.208C417.328 164.496 417.824 164.704 418.368 164.832C418.912 164.96 419.456 165.024 420 165.024Z" fill="black"/>
</svg>
