<svg width="960" height="160" viewBox="0 0 960 160" fill="none" xmlns="http://www.w3.org/2000/svg">
<path d="M9.6 128V119.04H27.008V42.88H9.6V33.92H54.4V42.88H36.992V119.04H54.4V128H9.6ZM96 129.024C93.696 129.024 91.392 128.768 89.088 128.256C86.784 127.829 84.6507 127.061 82.688 125.952C80.7253 124.843 78.9333 123.435 77.312 121.728C75.776 119.936 74.5387 118.016 73.6 115.968C72.6613 113.835 72.0213 111.616 71.68 109.312C71.3387 107.008 71.168 104.704 71.168 102.4V87.04C71.168 84.736 71.3387 82.432 71.68 80.128C72.0213 77.824 72.6613 75.648 73.6 73.6C74.5387 71.4667 75.776 69.5467 77.312 67.84C78.9333 66.048 80.7253 64.5973 82.688 63.488C84.6507 62.3787 86.784 61.6107 89.088 61.184C91.392 60.672 93.696 60.416 96 60.416C98.304 60.416 100.608 60.672 102.912 61.184C105.216 61.6107 107.349 62.3787 109.312 63.488C111.275 64.5973 113.024 66.048 114.56 67.84C116.181 69.5467 117.461 71.4667 118.4 73.6C119.339 75.648 119.979 77.824 120.32 80.128C120.661 82.432 120.832 84.736 120.832 87.04V102.4C120.832 104.704 120.661 107.008 120.32 109.312C119.979 111.616 119.339 113.835 118.4 115.968C117.461 118.016 116.181 119.936 114.56 121.728C113.024 123.435 111.275 124.843 109.312 125.952C107.349 127.061 105.216 127.829 102.912 128.256C100.608 128.768 98.304 129.024 96 129.024ZM96 120.064C97.4507 120.064 98.9013 119.893 100.352 119.552C101.803 119.211 103.125 118.656 104.32 117.888C105.515 117.035 106.539 116.011 107.392 114.816C108.331 113.621 109.056 112.341 109.568 110.976C110.08 109.611 110.421 108.203 110.592 106.752C110.763 105.301 110.848 103.851 110.848 102.4V87.04C110.848 85.5893 110.763 84.1387 110.592 82.688C110.421 81.2373 110.08 79.8293 109.568 78.464C109.056 77.0987 108.331 75.8187 107.392 74.624C106.539 73.4293 105.515 72.448 104.32 71.68C103.125 70.8267 101.803 70.2293 100.352 69.888C98.9013 69.5467 97.4507 69.376 96 69.376C94.5493 69.376 93.0987 69.5467 91.648 69.888C90.1973 70.2293 88.8747 70.8267 87.68 71.68C86.4853 72.448 85.4187 73.4293 84.48 74.624C83.6267 75.8187 82.944 77.0987 82.432 78.464C81.92 79.8293 81.5787 81.2373 81.408 82.688C81.2373 84.1387 81.152 85.5893 81.152 87.04V102.4C81.152 103.851 81.2373 105.301 81.408 106.752C81.5787 108.203 81.92 109.611 82.432 110.976C82.944 112.341 83.6267 113.621 84.48 114.816C85.4187 116.011 86.4853 117.035 87.68 117.888C88.8747 118.656 90.1973 119.211 91.648 119.552C93.0987 119.893 94.5493 120.064 96 120.064ZM159.872 129.024C157.995 129.024 156.117 128.896 154.24 128.64C152.363 128.469 150.528 128.085 148.736 127.488C146.944 126.805 145.237 125.952 143.616 124.928C141.995 123.904 140.587 122.667 139.392 121.216C138.283 119.68 137.429 118.016 136.832 116.224C136.235 114.347 135.936 112.469 135.936 110.592V110.208H145.92V110.336C145.92 111.957 146.347 113.451 147.2 114.816C148.139 116.181 149.291 117.291 150.656 118.144C152.021 118.912 153.472 119.424 155.008 119.68C156.629 119.936 158.251 120.064 159.872 120.064C161.408 120.064 162.944 119.936 164.48 119.68C166.101 119.424 167.595 118.955 168.96 118.272C170.325 117.504 171.477 116.48 172.416 115.2C173.44 113.835 173.952 112.384 173.952 110.848C173.952 109.312 173.525 107.904 172.672 106.624C171.904 105.259 170.923 104.149 169.728 103.296C168.533 102.443 167.211 101.803 165.76 101.376C164.395 100.864 162.987 100.437 161.536 100.096C160.085 99.7547 158.635 99.4133 157.184 99.072C155.819 98.7307 154.411 98.304 152.96 97.792C151.595 97.28 150.229 96.7253 148.864 96.128C147.584 95.4453 146.347 94.6773 145.152 93.824C143.957 92.8853 142.848 91.8613 141.824 90.752C140.885 89.6427 140.075 88.448 139.392 87.168C138.709 85.8027 138.155 84.3947 137.728 82.944C137.387 81.4933 137.216 80.0427 137.216 78.592C137.216 76.7147 137.472 74.9227 137.984 73.216C138.581 71.424 139.435 69.8027 140.544 68.352C141.653 66.816 142.976 65.536 144.512 64.512C146.048 63.488 147.669 62.6773 149.376 62.08C151.083 61.3973 152.832 60.9707 154.624 60.8C156.501 60.544 158.336 60.416 160.128 60.416C162.005 60.416 163.84 60.544 165.632 60.8C167.424 60.9707 169.173 61.3973 170.88 62.08C172.672 62.6773 174.293 63.5307 175.744 64.64C177.28 65.664 178.603 66.9013 179.712 68.352C180.821 69.8027 181.632 71.424 182.144 73.216C182.741 75.008 183.04 76.8 183.04 78.592V78.976H173.056V78.848C173.056 77.312 172.672 75.904 171.904 74.624C171.136 73.2587 170.112 72.192 168.832 71.424C167.552 70.5707 166.144 70.016 164.608 69.76C163.157 69.504 161.664 69.376 160.128 69.376C158.677 69.376 157.184 69.504 155.648 69.76C154.197 70.016 152.832 70.528 151.552 71.296C150.272 72.064 149.205 73.088 148.352 74.368C147.499 75.648 147.072 77.056 147.072 78.592C147.072 80.384 147.627 82.048 148.736 83.584C149.845 85.0347 151.168 86.1867 152.704 87.04C154.24 87.8933 155.861 88.5333 157.568 88.96C159.36 89.3013 161.109 89.6853 162.816 90.112C164.608 90.5387 166.315 91.0507 167.936 91.648C169.643 92.16 171.264 92.8853 172.8 93.824C174.336 94.6773 175.787 95.7013 177.152 96.896C178.517 98.0053 179.669 99.328 180.608 100.864C181.632 102.315 182.4 103.893 182.912 105.6C183.509 107.307 183.808 109.056 183.808 110.848C183.808 112.725 183.509 114.56 182.912 116.352C182.315 118.144 181.419 119.808 180.224 121.344C179.029 122.795 177.621 124.032 176 125.056C174.464 126.08 172.8 126.891 171.008 127.488C169.216 128.085 167.381 128.469 165.504 128.64C163.627 128.896 161.749 129.024 159.872 129.024ZM224.256 129.024C221.952 129.024 219.648 128.811 217.344 128.384C215.04 127.957 212.864 127.189 210.816 126.08C208.853 124.885 207.061 123.435 205.44 121.728C203.904 119.936 202.624 118.016 201.6 115.968C200.661 113.835 200.021 111.616 199.68 109.312C199.339 107.008 199.168 104.704 199.168 102.4V87.04C199.168 84.736 199.339 82.432 199.68 80.128C200.021 77.824 200.661 75.648 201.6 73.6C202.539 71.4667 203.776 69.5467 205.312 67.84C206.933 66.048 208.725 64.5973 210.688 63.488C212.651 62.3787 214.784 61.6107 217.088 61.184C219.392 60.672 221.696 60.416 224 60.416C226.304 60.416 228.608 60.672 230.912 61.184C233.216 61.6107 235.349 62.3787 237.312 63.488C239.275 64.5973 241.024 66.048 242.56 67.84C244.181 69.5467 245.461 71.4667 246.4 73.6C247.339 75.648 247.979 77.824 248.32 80.128C248.661 82.432 248.832 84.736 248.832 87.04V99.2H209.152V102.4C209.152 103.851 209.237 105.301 209.408 106.752C209.579 108.203 209.92 109.611 210.432 110.976C211.029 112.341 211.755 113.621 212.608 114.816C213.547 116.011 214.613 117.035 215.808 117.888C217.088 118.656 218.453 119.211 219.904 119.552C221.355 119.893 222.805 120.064 224.256 120.064C225.877 120.064 227.499 119.893 229.12 119.552C230.827 119.211 232.363 118.613 233.728 117.76C235.093 116.907 236.203 115.755 237.056 114.304C237.995 112.853 238.507 111.275 238.592 109.568H248.576C248.491 111.531 248.107 113.451 247.424 115.328C246.827 117.12 245.931 118.827 244.736 120.448C243.627 121.984 242.261 123.349 240.64 124.544C239.104 125.653 237.44 126.549 235.648 127.232C233.856 127.915 231.979 128.384 230.016 128.64C228.053 128.896 226.133 129.024 224.256 129.024ZM238.848 90.24V87.04C238.848 85.5893 238.763 84.1387 238.592 82.688C238.421 81.2373 238.08 79.8293 237.568 78.464C237.056 77.0987 236.331 75.8187 235.392 74.624C234.539 73.4293 233.515 72.448 232.32 71.68C231.125 70.8267 229.803 70.2293 228.352 69.888C226.901 69.5467 225.451 69.376 224 69.376C222.549 69.376 221.099 69.5467 219.648 69.888C218.197 70.2293 216.875 70.8267 215.68 71.68C214.485 72.448 213.419 73.4293 212.48 74.624C211.627 75.8187 210.944 77.0987 210.432 78.464C209.92 79.8293 209.579 81.2373 209.408 82.688C209.237 84.1387 209.152 85.5893 209.152 87.04V90.24H238.848ZM282.24 128L261.632 61.44H272.128L284.928 105.856C285.44 107.648 285.952 109.44 286.464 111.232C286.976 113.024 287.488 114.859 288 116.736C288.512 114.859 289.024 113.024 289.536 111.232C290.048 109.44 290.56 107.648 291.072 105.856L303.872 61.44H314.368L293.76 128H282.24ZM330.24 128V33.92H340.096V90.368L345.344 83.968L364.288 61.44H376.704L348.928 94.72L376.704 128H364.288L340.096 99.072V128H330.24ZM412.032 129.024C409.899 129.024 407.765 128.725 405.632 128.128C403.584 127.531 401.707 126.592 400 125.312C398.293 124.032 396.843 122.496 395.648 120.704C394.539 118.912 393.643 117.035 392.96 115.072C392.277 113.024 391.808 110.933 391.552 108.8C391.296 106.667 391.168 104.533 391.168 102.4V87.04C391.168 84.736 391.339 82.4747 391.68 80.256C392.021 77.952 392.661 75.7333 393.6 73.6C394.539 71.4667 395.776 69.5467 397.312 67.84C398.848 66.048 400.597 64.5973 402.56 63.488C404.608 62.3787 406.741 61.6107 408.96 61.184C411.264 60.672 413.568 60.416 415.872 60.416C418.176 60.416 420.437 60.672 422.656 61.184C424.875 61.6107 426.965 62.4213 428.928 63.616C430.891 64.7253 432.597 66.176 434.048 67.968C435.499 69.76 436.651 71.7227 437.504 73.856C438.357 75.904 438.955 78.0373 439.296 80.256C439.637 82.4747 439.808 84.736 439.808 87.04V128H429.824V116.352C429.141 118.144 428.245 119.893 427.136 121.6C426.027 123.221 424.661 124.629 423.04 125.824C421.504 126.933 419.755 127.744 417.792 128.256C415.915 128.768 413.995 129.024 412.032 129.024ZM415.872 120.064C417.323 120.064 418.731 119.893 420.096 119.552C421.547 119.211 422.827 118.613 423.936 117.76C425.045 116.907 425.984 115.883 426.752 114.688C427.605 113.408 428.245 112.128 428.672 110.848C429.099 109.483 429.397 108.117 429.568 106.752C429.739 105.301 429.824 103.851 429.824 102.4V87.04C429.824 85.5893 429.739 84.1813 429.568 82.816C429.397 81.3653 429.099 80 428.672 78.72C428.245 77.3547 427.605 76.0747 426.752 74.88C425.984 73.6 425.003 72.5333 423.808 71.68C422.699 70.8267 421.461 70.2293 420.096 69.888C418.731 69.5467 417.323 69.376 415.872 69.376C414.421 69.376 412.971 69.5467 411.52 69.888C410.069 70.2293 408.747 70.8267 407.552 71.68C406.357 72.448 405.333 73.4293 404.48 74.624C403.627 75.8187 402.944 77.0987 402.432 78.464C401.92 79.8293 401.579 81.2373 401.408 82.688C401.237 84.1387 401.152 85.5893 401.152 87.04V102.4C401.152 103.851 401.237 105.301 401.408 106.752C401.579 108.203 401.92 109.611 402.432 110.976C402.944 112.341 403.627 113.621 404.48 114.816C405.419 116.011 406.485 117.035 407.68 117.888C408.875 118.656 410.155 119.211 411.52 119.552C412.971 119.893 414.421 120.064 415.872 120.064ZM518.144 128L518.912 109.184C519.424 96.64 520.064 84.096 520.832 71.552C521.6 59.008 521.984 46.464 521.984 33.92H533.888L544 81.664L554.112 33.92H566.016C566.016 46.464 566.4 59.008 567.168 71.552C567.936 84.096 568.576 96.64 569.088 109.184L569.856 128H559.872L559.104 109.184C558.763 99.968 558.421 90.752 558.08 81.536C557.824 72.2347 557.653 62.976 557.568 53.76L547.84 99.712H540.16L530.432 53.76C530.347 62.976 530.133 72.2347 529.792 81.536C529.536 90.752 529.237 99.968 528.896 109.184L528.128 128H518.144ZM604.032 129.024C601.899 129.024 599.765 128.725 597.632 128.128C595.584 127.531 593.707 126.592 592 125.312C590.293 124.032 588.843 122.496 587.648 120.704C586.539 118.912 585.643 117.035 584.96 115.072C584.277 113.024 583.808 110.933 583.552 108.8C583.296 106.667 583.168 104.533 583.168 102.4V87.04C583.168 84.736 583.339 82.4747 583.68 80.256C584.021 77.952 584.661 75.7333 585.6 73.6C586.539 71.4667 587.776 69.5467 589.312 67.84C590.848 66.048 592.597 64.5973 594.56 63.488C596.608 62.3787 598.741 61.6107 600.96 61.184C603.264 60.672 605.568 60.416 607.872 60.416C610.176 60.416 612.437 60.672 614.656 61.184C616.875 61.6107 618.965 62.4213 620.928 63.616C622.891 64.7253 624.597 66.176 626.048 67.968C627.499 69.76 628.651 71.7227 629.504 73.856C630.357 75.904 630.955 78.0373 631.296 80.256C631.637 82.4747 631.808 84.736 631.808 87.04V128H621.824V116.352C621.141 118.144 620.245 119.893 619.136 121.6C618.027 123.221 616.661 124.629 615.04 125.824C613.504 126.933 611.755 127.744 609.792 128.256C607.915 128.768 605.995 129.024 604.032 129.024ZM607.872 120.064C609.323 120.064 610.731 119.893 612.096 119.552C613.547 119.211 614.827 118.613 615.936 117.76C617.045 116.907 617.984 115.883 618.752 114.688C619.605 113.408 620.245 112.128 620.672 110.848C621.099 109.483 621.397 108.117 621.568 106.752C621.739 105.301 621.824 103.851 621.824 102.4V87.04C621.824 85.5893 621.739 84.1813 621.568 82.816C621.397 81.3653 621.099 80 620.672 78.72C620.245 77.3547 619.605 76.0747 618.752 74.88C617.984 73.6 617.003 72.5333 615.808 71.68C614.699 70.8267 613.461 70.2293 612.096 69.888C610.731 69.5467 609.323 69.376 607.872 69.376C606.421 69.376 604.971 69.5467 603.52 69.888C602.069 70.2293 600.747 70.8267 599.552 71.68C598.357 72.448 597.333 73.4293 596.48 74.624C595.627 75.8187 594.944 77.0987 594.432 78.464C593.92 79.8293 593.579 81.2373 593.408 82.688C593.237 84.1387 593.152 85.5893 593.152 87.04V102.4C593.152 103.851 593.237 105.301 593.408 106.752C593.579 108.203 593.92 109.611 594.432 110.976C594.944 112.341 595.627 113.621 596.48 114.816C597.419 116.011 598.485 117.035 599.68 117.888C600.875 118.656 602.155 119.211 603.52 119.552C604.971 119.893 606.421 120.064 607.872 120.064ZM684.288 128C682.496 128 680.704 127.872 678.912 127.616C677.205 127.275 675.541 126.72 673.92 125.952C672.299 125.184 670.848 124.16 669.568 122.88C668.373 121.6 667.349 120.149 666.496 118.528C665.728 116.907 665.173 115.243 664.832 113.536C664.576 111.744 664.448 109.952 664.448 108.16V70.4H648.192V61.44H664.448V33.92H674.432V61.44H695.808V70.4H674.432V108.16C674.432 109.611 674.603 111.019 674.944 112.384C675.285 113.749 675.883 114.987 676.736 116.096C677.675 117.12 678.784 117.888 680.064 118.4C681.429 118.827 682.837 119.04 684.288 119.04H695.808V128H684.288ZM735.872 129.024C733.995 129.024 732.117 128.896 730.24 128.64C728.363 128.469 726.528 128.085 724.736 127.488C722.944 126.805 721.237 125.952 719.616 124.928C717.995 123.904 716.587 122.667 715.392 121.216C714.283 119.68 713.429 118.016 712.832 116.224C712.235 114.347 711.936 112.469 711.936 110.592V110.208H721.92V110.336C721.92 111.957 722.347 113.451 723.2 114.816C724.139 116.181 725.291 117.291 726.656 118.144C728.021 118.912 729.472 119.424 731.008 119.68C732.629 119.936 734.251 120.064 735.872 120.064C737.408 120.064 738.944 119.936 740.48 119.68C742.101 119.424 743.595 118.955 744.96 118.272C746.325 117.504 747.477 116.48 748.416 115.2C749.44 113.835 749.952 112.384 749.952 110.848C749.952 109.312 749.525 107.904 748.672 106.624C747.904 105.259 746.923 104.149 745.728 103.296C744.533 102.443 743.211 101.803 741.76 101.376C740.395 100.864 738.987 100.437 737.536 100.096C736.085 99.7547 734.635 99.4133 733.184 99.072C731.819 98.7307 730.411 98.304 728.96 97.792C727.595 97.28 726.229 96.7253 724.864 96.128C723.584 95.4453 722.347 94.6773 721.152 93.824C719.957 92.8853 718.848 91.8613 717.824 90.752C716.885 89.6427 716.075 88.448 715.392 87.168C714.709 85.8027 714.155 84.3947 713.728 82.944C713.387 81.4933 713.216 80.0427 713.216 78.592C713.216 76.7147 713.472 74.9227 713.984 73.216C714.581 71.424 715.435 69.8027 716.544 68.352C717.653 66.816 718.976 65.536 720.512 64.512C722.048 63.488 723.669 62.6773 725.376 62.08C727.083 61.3973 728.832 60.9707 730.624 60.8C732.501 60.544 734.336 60.416 736.128 60.416C738.005 60.416 739.84 60.544 741.632 60.8C743.424 60.9707 745.173 61.3973 746.88 62.08C748.672 62.6773 750.293 63.5307 751.744 64.64C753.28 65.664 754.603 66.9013 755.712 68.352C756.821 69.8027 757.632 71.424 758.144 73.216C758.741 75.008 759.04 76.8 759.04 78.592V78.976H749.056V78.848C749.056 77.312 748.672 75.904 747.904 74.624C747.136 73.2587 746.112 72.192 744.832 71.424C743.552 70.5707 742.144 70.016 740.608 69.76C739.157 69.504 737.664 69.376 736.128 69.376C734.677 69.376 733.184 69.504 731.648 69.76C730.197 70.016 728.832 70.528 727.552 71.296C726.272 72.064 725.205 73.088 724.352 74.368C723.499 75.648 723.072 77.056 723.072 78.592C723.072 80.384 723.627 82.048 724.736 83.584C725.845 85.0347 727.168 86.1867 728.704 87.04C730.24 87.8933 731.861 88.5333 733.568 88.96C735.36 89.3013 737.109 89.6853 738.816 90.112C740.608 90.5387 742.315 91.0507 743.936 91.648C745.643 92.16 747.264 92.8853 748.8 93.824C750.336 94.6773 751.787 95.7013 753.152 96.896C754.517 98.0053 755.669 99.328 756.608 100.864C757.632 102.315 758.4 103.893 758.912 105.6C759.509 107.307 759.808 109.056 759.808 110.848C759.808 112.725 759.509 114.56 758.912 116.352C758.315 118.144 757.419 119.808 756.224 121.344C755.029 122.795 753.621 124.032 752 125.056C750.464 126.08 748.8 126.891 747.008 127.488C745.216 128.085 743.381 128.469 741.504 128.64C739.627 128.896 737.749 129.024 735.872 129.024ZM800 129.024C797.781 129.024 795.52 128.768 793.216 128.256C790.997 127.829 788.907 127.019 786.944 125.824C785.067 124.629 783.403 123.179 781.952 121.472C780.501 119.68 779.349 117.76 778.496 115.712C777.643 113.579 777.045 111.403 776.704 109.184C776.363 106.88 776.192 104.619 776.192 102.4V61.44H786.176V102.4C786.176 103.851 786.261 105.301 786.432 106.752C786.603 108.117 786.901 109.483 787.328 110.848C787.755 112.128 788.352 113.365 789.12 114.56C789.973 115.755 790.955 116.779 792.064 117.632C793.173 118.485 794.411 119.125 795.776 119.552C797.141 119.893 798.549 120.064 800 120.064C801.451 120.064 802.859 119.893 804.224 119.552C805.589 119.125 806.827 118.485 807.936 117.632C809.045 116.779 809.984 115.755 810.752 114.56C811.605 113.365 812.245 112.128 812.672 110.848C813.099 109.483 813.397 108.117 813.568 106.752C813.739 105.301 813.824 103.851 813.824 102.4V61.44H823.808V102.4C823.808 104.619 823.637 106.88 823.296 109.184C822.955 111.403 822.357 113.579 821.504 115.712C820.651 117.76 819.499 119.68 818.048 121.472C816.597 123.179 814.891 124.629 812.928 125.824C811.051 127.019 808.96 127.829 806.656 128.256C804.437 128.768 802.219 129.024 800 129.024ZM847.872 128V87.04C847.872 84.9067 848 82.7733 848.256 80.64C848.512 78.4213 848.981 76.3307 849.664 74.368C850.432 72.32 851.413 70.4 852.608 68.608C853.888 66.7307 855.381 65.1947 857.088 64C858.88 62.72 860.8 61.824 862.848 61.312C864.981 60.7147 867.115 60.416 869.248 60.416C871.979 60.416 874.624 60.8427 877.184 61.696C879.744 62.464 881.963 63.7867 883.84 65.664C885.803 67.456 887.253 69.632 888.192 72.192C889.216 74.752 889.813 77.3547 889.984 80H880C879.915 78.5493 879.616 77.184 879.104 75.904C878.677 74.5387 877.952 73.344 876.928 72.32C875.989 71.296 874.837 70.5707 873.472 70.144C872.107 69.632 870.699 69.376 869.248 69.376C867.968 69.376 866.688 69.632 865.408 70.144C864.213 70.5707 863.147 71.296 862.208 72.32C861.269 73.2587 860.501 74.3253 859.904 75.52C859.392 76.7147 858.965 77.952 858.624 79.232C858.283 80.512 858.069 81.8347 857.984 83.2C857.899 84.48 857.856 85.76 857.856 87.04V128H847.872ZM942.848 128C941.056 128 939.264 127.872 937.472 127.616C935.765 127.275 934.101 126.72 932.48 125.952C930.859 125.184 929.408 124.16 928.128 122.88C926.933 121.6 925.909 120.149 925.056 118.528C924.288 116.907 923.733 115.243 923.392 113.536C923.136 111.744 923.008 109.952 923.008 108.16V70.4H905.6V61.44H932.992V108.16C932.992 109.611 933.163 111.019 933.504 112.384C933.845 113.749 934.443 114.987 935.296 116.096C936.235 117.12 937.387 117.888 938.752 118.4C940.117 118.827 941.483 119.04 942.848 119.04H951.552V128H942.848ZM928 50.176C926.891 50.176 925.824 50.048 924.8 49.792C923.776 49.4507 922.88 48.896 922.112 48.128C921.344 47.36 920.789 46.464 920.448 45.44C920.192 44.416 920.064 43.3493 920.064 42.24C920.064 41.1307 920.192 40.064 920.448 39.04C920.789 38.016 921.344 37.12 922.112 36.352C922.88 35.584 923.776 35.0293 924.8 34.688C925.824 34.3467 926.891 34.176 928 34.176C929.109 34.176 930.176 34.3467 931.2 34.688C932.224 35.0293 933.12 35.584 933.888 36.352C934.656 37.12 935.211 38.016 935.552 39.04C935.893 40.064 936.064 41.1307 936.064 42.24C936.064 43.3493 935.893 44.416 935.552 45.44C935.211 46.464 934.656 47.36 933.888 48.128C933.12 48.896 932.224 49.4507 931.2 49.792C930.176 50.048 929.109 50.176 928 50.176Z" fill="white"/>
</svg>
